<?xml version="1.0" encoding="UTF-8" ?>
<!DOCTYPE svg PUBLIC "-//W3C//DTD SVG 1.1//EN" "http://www.w3.org/Graphics/SVG/1.1/DTD/svg11.dtd">
<svg width="1000pt" height="585pt" viewBox="0 0 1000 585" version="1.1" xmlns="http://www.w3.org/2000/svg">
<g id="#0d0d0dfe">
<path fill="#0d0d0d" opacity="1.00" d=" M 503.41 1.71 C 507.78 2.05 512.65 2.68 515.62 6.31 C 518.12 9.41 521.14 11.99 524.06 14.67 C 517.46 14.93 512.21 10.55 506.78 7.52 C 504.27 8.13 502.06 9.60 499.71 10.62 C 501.18 7.75 502.73 4.89 503.41 1.71 Z" />
<path fill="#0d0d0d" opacity="1.00" d=" M 472.11 17.09 C 472.80 10.75 476.28 4.12 482.90 2.44 C 481.40 8.30 478.76 15.64 472.11 17.09 Z" />
<path fill="#0d0d0d" opacity="1.00" d=" M 521.89 3.08 C 525.08 3.18 528.60 3.52 530.79 6.17 C 533.68 9.65 536.95 13.26 537.90 17.82 C 533.45 16.01 530.43 12.19 526.99 9.04 C 525.05 7.27 523.22 5.36 521.89 3.08 Z" />
<path fill="#0d0d0d" opacity="1.00" d=" M 462.50 9.95 C 462.53 7.25 464.50 5.21 466.08 3.24 C 467.35 10.32 466.02 17.44 465.27 24.49 C 464.60 24.63 463.28 24.93 462.62 25.08 C 462.41 20.04 462.07 14.98 462.50 9.95 Z" />
<path fill="#0d0d0d" opacity="1.00" d=" M 540.89 12.12 C 539.56 9.89 539.09 7.34 539.45 4.77 C 541.89 6.63 544.53 8.67 545.32 11.81 C 546.42 15.81 547.57 19.83 547.84 23.99 C 544.26 20.89 543.12 16.12 540.89 12.12 Z" />
<path fill="#0d0d0d" opacity="1.00" d=" M 453.72 17.88 C 452.90 14.55 451.21 10.67 453.77 7.64 C 456.23 10.47 457.31 14.07 457.59 17.75 C 456.62 17.78 454.69 17.85 453.72 17.88 Z" />
<path fill="#0d0d0d" opacity="1.00" d=" M 551.44 20.19 C 551.54 16.17 550.38 11.21 554.30 8.57 C 554.89 12.09 554.86 15.68 554.52 19.22 C 553.75 19.47 552.21 19.95 551.44 20.19 Z" />
<path fill="#0d0d0d" opacity="1.00" d=" M 439.98 15.74 C 441.36 14.30 442.75 12.86 444.11 11.40 C 444.45 12.88 447.48 14.90 445.97 16.02 C 443.97 16.53 441.94 16.17 439.98 15.74 Z" />
<path fill="#0d0d0d" opacity="1.00" d=" M 491.28 13.20 C 493.31 11.81 495.86 12.40 498.16 12.36 C 501.85 12.57 505.58 12.06 509.26 12.56 C 510.22 13.72 510.76 15.14 511.40 16.49 C 508.61 15.64 505.92 14.41 503.00 14.13 C 503.61 16.38 504.32 18.60 504.98 20.84 C 502.81 20.58 500.64 20.29 498.48 19.96 C 498.17 23.15 497.84 26.49 495.72 29.06 C 493.91 25.32 497.23 21.46 496.34 17.50 C 494.13 20.28 492.29 23.35 489.93 26.00 C 488.76 26.59 487.40 26.60 486.15 26.87 C 488.94 23.29 491.76 19.67 493.55 15.46 C 485.27 17.17 477.61 21.65 471.92 27.88 C 470.31 29.46 469.60 31.63 469.09 33.77 C 473.73 31.56 476.76 26.54 482.24 26.09 C 481.43 28.57 480.60 31.04 480.01 33.58 C 475.24 34.54 469.96 35.85 467.09 40.16 C 463.18 45.13 464.62 51.76 464.47 57.59 C 463.46 57.46 461.45 57.19 460.44 57.06 C 461.24 53.76 462.18 50.45 462.34 47.03 C 461.79 38.19 466.85 30.01 473.01 24.07 C 478.12 18.96 485.12 16.70 491.28 13.20 Z" />
<path fill="#0d0d0d" opacity="1.00" d=" M 560.37 16.66 C 561.31 16.12 562.28 15.58 563.25 15.04 C 564.39 16.40 565.55 17.75 566.73 19.10 C 567.51 17.99 568.30 16.88 569.12 15.78 C 569.31 17.24 569.49 18.71 569.69 20.17 C 570.69 19.50 571.70 18.81 572.71 18.12 C 572.59 20.13 572.46 22.14 572.37 24.15 C 575.32 23.80 577.58 21.96 579.53 19.86 C 583.17 26.56 581.48 34.36 581.81 41.64 C 580.67 42.62 579.48 43.54 578.49 44.68 C 578.53 45.93 578.76 47.16 578.93 48.40 C 580.26 47.54 581.62 46.72 583.01 45.94 C 583.37 48.73 583.54 51.53 583.71 54.34 C 585.85 53.39 587.99 52.41 590.12 51.42 C 593.65 49.24 597.79 51.62 601.58 50.43 C 607.21 48.99 612.92 47.76 618.78 48.40 C 618.71 49.41 618.64 50.42 618.59 51.43 C 613.98 53.47 609.15 55.23 604.03 55.13 C 596.59 55.52 587.61 53.74 581.88 59.76 C 586.52 62.18 591.86 62.90 596.95 61.55 C 603.38 59.80 610.07 60.32 616.60 61.21 C 619.07 61.85 621.56 58.38 623.63 60.53 C 623.85 63.27 623.54 66.03 623.41 68.77 C 626.26 66.59 628.90 64.06 632.09 62.35 C 634.31 61.39 634.76 64.52 635.17 66.03 C 635.94 72.06 635.31 78.18 634.65 84.20 C 634.56 86.49 632.56 87.96 631.19 89.56 C 627.94 86.07 624.79 82.45 622.27 78.39 C 621.46 78.41 620.65 78.43 619.85 78.45 C 619.43 80.52 618.96 82.58 618.48 84.63 C 611.66 86.27 606.56 80.71 600.90 78.05 C 603.13 81.46 606.23 84.13 609.45 86.57 C 613.70 89.78 615.69 94.89 617.46 99.72 C 618.47 99.71 619.49 99.70 620.52 99.69 C 622.08 96.74 623.74 93.84 625.09 90.78 C 626.11 92.11 627.13 93.44 628.18 94.75 C 633.76 89.03 638.68 82.71 643.97 76.73 C 648.76 81.36 648.29 88.40 647.02 94.38 C 645.63 100.19 646.39 106.21 646.40 112.11 C 646.89 111.87 647.87 111.38 648.36 111.14 C 649.56 106.03 649.56 100.52 651.91 95.75 C 652.55 95.50 653.83 95.01 654.47 94.77 C 654.70 98.25 655.28 101.85 654.39 105.28 C 651.95 111.70 646.93 117.03 645.99 124.01 C 652.14 119.60 652.02 110.71 658.18 106.43 C 658.27 109.09 658.73 111.93 657.52 114.42 C 655.07 119.79 649.86 123.29 647.47 128.71 C 653.35 125.91 657.56 120.27 664.06 118.65 C 663.92 122.16 661.66 125.08 658.59 126.61 C 651.70 130.58 642.92 133.75 640.01 141.89 C 647.01 139.73 653.04 135.42 659.66 132.41 C 662.30 131.06 665.34 131.37 668.19 131.67 C 663.38 138.15 654.59 138.38 647.83 141.72 C 654.93 141.50 661.64 138.47 668.82 138.66 C 668.81 139.50 668.79 141.18 668.77 142.03 C 664.11 144.80 658.54 144.32 653.33 144.57 C 653.36 145.43 653.40 146.28 653.44 147.14 C 659.92 148.99 667.63 150.75 671.25 157.04 C 669.68 157.72 668.08 158.31 666.62 159.17 C 666.34 160.46 666.78 161.44 667.92 162.12 C 670.54 164.12 672.09 167.08 674.03 169.68 C 672.83 170.39 671.63 171.09 670.44 171.79 C 670.56 173.33 670.68 174.88 670.80 176.44 C 668.92 176.36 667.05 176.25 665.18 176.14 C 664.14 177.50 663.09 178.85 662.01 180.18 C 660.61 178.49 659.29 176.73 657.95 175.00 C 655.53 175.49 653.13 176.04 650.74 176.65 C 655.12 181.37 661.80 181.69 667.58 183.50 C 669.95 184.17 671.43 186.20 672.49 188.29 C 669.48 188.42 666.40 188.52 663.53 187.49 C 657.10 185.65 652.40 179.85 645.54 179.23 C 650.54 184.91 657.83 187.68 663.50 192.52 C 665.33 193.93 665.46 196.28 665.55 198.39 C 667.02 199.99 668.41 201.66 669.63 203.48 C 659.53 204.79 651.99 196.84 643.10 193.70 C 643.85 195.51 644.38 197.67 646.32 198.59 C 653.65 202.92 663.27 205.21 667.35 213.47 C 659.59 212.33 653.95 206.36 647.13 203.04 C 648.18 207.04 650.40 210.75 653.81 213.18 C 656.12 215.20 659.36 215.09 662.23 215.63 C 662.10 218.28 661.36 220.82 660.63 223.35 C 660.40 225.99 660.52 228.66 660.28 231.30 C 657.45 231.35 654.40 230.07 651.84 231.76 C 649.03 233.58 645.65 233.39 642.46 233.60 C 642.50 235.01 642.54 236.43 642.61 237.84 C 644.14 237.13 645.66 236.39 647.18 235.64 C 649.33 238.98 652.55 241.74 653.21 245.87 C 651.35 247.38 649.87 249.25 648.70 251.31 C 647.19 251.27 645.69 251.23 644.21 251.20 C 643.60 252.47 642.99 253.73 642.36 254.98 C 643.52 256.10 644.68 257.24 645.85 258.36 C 642.97 259.95 640.77 262.49 637.90 264.08 C 630.66 266.92 622.78 266.27 615.18 267.01 C 620.65 270.99 629.18 270.59 632.53 277.26 C 622.97 279.23 616.18 269.54 606.78 270.23 C 608.61 273.95 611.43 277.54 615.68 278.49 C 618.68 278.76 621.74 278.11 624.71 278.88 C 624.65 280.04 624.60 281.21 624.55 282.37 C 622.48 283.95 620.73 285.88 619.48 288.17 C 618.04 290.90 614.92 291.85 612.53 293.50 C 611.46 293.99 610.38 295.10 609.12 294.68 C 603.77 293.29 598.44 291.79 593.22 289.97 C 591.76 291.08 590.28 292.19 588.78 293.25 C 588.73 290.81 588.74 288.37 588.71 285.93 C 587.18 286.84 585.65 287.74 584.11 288.62 C 585.22 291.36 586.20 294.37 588.50 296.38 C 593.96 297.26 599.53 297.62 604.84 299.37 C 605.01 300.11 605.35 301.57 605.52 302.31 C 598.54 303.15 591.80 301.03 584.92 300.41 C 588.76 304.71 592.78 309.20 593.68 315.14 C 591.56 314.58 589.30 313.88 588.01 311.95 C 585.30 308.31 583.23 304.25 580.93 300.34 C 580.50 300.48 579.62 300.76 579.19 300.90 C 581.51 305.93 584.26 310.79 585.66 316.19 C 582.03 317.97 578.17 317.06 574.44 316.27 C 571.61 319.16 569.08 322.42 568.23 326.48 C 564.85 326.71 561.50 327.42 558.11 327.30 C 555.04 325.39 551.93 323.53 548.63 322.04 C 548.27 324.29 548.07 326.60 547.36 328.78 C 545.82 331.79 543.40 334.28 542.16 337.47 C 539.77 337.80 537.37 338.20 535.17 339.24 C 530.94 341.29 526.12 340.37 521.61 340.28 C 522.47 341.38 523.31 342.50 524.13 343.65 C 520.97 343.86 517.46 342.80 514.60 344.59 C 511.73 346.49 508.15 344.69 505.06 345.90 C 502.21 346.93 499.60 344.71 497.00 343.83 C 496.07 344.86 495.14 345.89 494.21 346.92 C 492.84 345.47 491.59 343.85 489.88 342.79 C 484.51 341.69 479.49 344.43 474.27 345.11 C 472.78 343.93 471.39 342.55 469.60 341.83 C 466.43 341.31 463.20 341.50 460.00 341.39 C 459.07 339.63 458.25 337.65 456.46 336.59 C 451.50 335.47 446.41 336.42 441.65 337.92 C 441.62 336.37 441.59 334.84 441.57 333.30 C 438.01 333.76 434.45 334.28 430.87 334.38 C 434.35 330.86 434.72 326.01 434.83 321.32 C 430.76 321.61 426.66 322.09 423.00 324.03 C 420.21 321.91 417.16 320.12 413.70 319.38 C 412.25 316.70 410.34 314.30 408.19 312.14 C 405.44 312.99 402.74 314.02 400.00 314.87 C 400.85 310.12 405.18 307.47 408.08 304.03 C 402.99 305.32 397.91 306.97 392.59 306.79 C 393.24 305.26 393.95 303.75 394.67 302.24 C 387.29 301.07 379.06 297.68 376.58 289.95 C 381.63 291.24 386.60 293.07 391.90 292.96 C 391.47 289.96 390.71 287.02 390.16 284.05 C 392.85 284.47 395.49 285.21 398.11 285.96 C 397.60 283.73 397.09 281.50 396.59 279.28 C 393.07 279.23 389.54 279.29 386.02 279.40 C 386.77 281.40 387.55 283.40 388.17 285.45 C 385.43 285.33 382.84 286.08 380.30 286.99 C 378.13 286.61 376.01 285.95 373.85 285.52 C 373.68 284.28 373.52 283.06 373.36 281.83 C 372.13 281.38 370.90 280.93 369.68 280.48 C 371.75 277.94 373.02 274.98 372.09 271.67 C 374.31 271.74 376.53 271.80 378.75 271.80 C 378.67 270.01 378.87 268.18 378.44 266.43 C 377.35 264.68 375.95 263.16 374.67 261.56 C 373.95 263.21 373.48 265.09 372.09 266.34 C 369.13 266.98 366.12 267.27 363.12 267.59 C 359.86 262.92 356.44 258.29 352.34 254.32 C 352.29 252.74 352.26 251.15 352.24 249.57 C 357.15 248.83 362.26 246.43 363.80 241.29 C 358.34 242.02 353.08 244.18 347.48 243.44 C 347.35 242.37 347.23 241.30 347.10 240.24 C 351.29 238.80 355.66 238.25 360.07 238.24 C 362.85 238.38 365.02 236.53 366.92 234.75 C 359.30 233.83 351.63 235.22 344.00 234.47 C 344.14 232.68 344.92 230.70 347.07 230.87 C 350.25 230.48 353.46 230.76 356.66 230.60 C 351.59 226.50 344.88 224.45 340.79 219.19 C 337.72 211.89 332.58 205.18 332.34 196.96 C 337.12 193.13 339.55 187.14 340.01 181.15 C 338.90 181.35 337.79 181.56 336.69 181.77 C 335.73 184.63 334.90 187.54 334.20 190.47 C 333.28 190.45 331.45 190.41 330.53 190.39 C 330.79 188.26 329.55 185.33 331.80 183.98 C 337.22 179.77 341.10 173.10 341.48 166.21 C 336.53 170.62 335.80 178.70 329.18 181.34 C 328.89 172.92 335.86 166.83 341.57 161.66 C 346.36 159.21 349.41 154.75 353.08 150.98 C 354.36 149.81 354.59 148.04 355.02 146.45 C 349.97 145.14 344.95 146.82 339.96 147.44 C 336.61 147.94 333.55 146.32 330.69 144.81 C 337.10 141.27 344.45 142.66 351.39 141.80 C 347.15 135.37 337.57 132.83 336.96 124.15 C 341.53 125.94 345.45 129.01 348.62 132.72 C 348.85 130.48 349.19 128.24 349.13 125.99 C 348.72 123.28 347.18 120.83 347.13 118.05 C 347.00 115.48 347.29 112.92 347.52 110.37 C 348.40 110.48 349.28 110.59 350.16 110.69 C 351.00 115.95 351.58 121.28 352.88 126.45 C 354.97 119.94 359.53 114.69 362.10 108.40 C 364.51 110.29 365.84 113.05 367.14 115.74 C 370.78 113.75 373.46 110.60 374.93 106.72 C 372.47 106.51 370.01 106.36 367.56 106.03 C 369.46 105.45 371.37 104.92 373.28 104.36 C 372.11 102.53 370.97 100.69 369.88 98.82 C 366.79 99.78 363.76 100.90 360.75 102.06 C 362.19 102.68 363.64 103.28 365.10 103.87 C 362.68 107.83 358.85 110.34 354.66 112.10 C 354.51 110.47 354.38 108.85 354.24 107.22 C 352.50 107.40 350.76 107.57 349.03 107.73 C 349.18 107.26 349.48 106.31 349.63 105.83 C 351.35 105.34 353.06 104.83 354.77 104.28 C 353.23 102.95 351.69 101.65 350.15 100.33 C 351.57 99.99 353.01 99.66 354.44 99.33 C 353.61 97.39 352.77 95.46 352.00 93.50 C 353.20 93.43 354.39 93.37 355.60 93.31 C 356.50 94.97 357.42 96.62 358.36 98.26 C 359.50 96.16 360.60 94.03 361.68 91.90 C 368.16 93.94 371.52 100.55 375.78 105.36 C 380.64 105.25 385.51 105.06 390.35 105.59 C 386.58 106.60 382.55 106.90 379.10 108.89 C 375.57 110.59 373.15 113.75 370.38 116.39 C 367.77 118.84 363.54 118.45 361.19 121.29 C 357.19 125.17 352.25 130.29 354.57 136.35 C 356.73 138.96 359.15 141.37 361.02 144.22 C 367.68 141.06 374.25 137.39 379.33 131.94 C 377.07 130.17 374.36 129.34 371.55 129.03 C 373.65 127.71 375.89 126.58 378.28 125.86 C 378.74 127.48 379.22 129.11 379.71 130.73 C 383.37 125.60 385.52 119.63 387.77 113.79 C 390.62 106.09 396.23 99.65 402.78 94.82 C 406.89 91.74 410.96 88.40 415.87 86.66 C 419.23 85.43 422.38 83.68 425.79 82.56 C 435.34 80.43 445.48 78.74 455.09 81.48 C 462.36 81.53 470.00 80.74 476.77 84.05 C 484.13 86.30 489.72 91.68 495.47 96.49 C 498.58 99.66 502.05 102.66 504.14 106.64 C 504.40 109.97 504.97 113.25 506.36 116.32 C 506.42 114.44 506.41 112.55 506.39 110.68 C 508.26 109.73 510.13 108.79 511.99 107.82 C 509.03 104.92 505.57 102.26 503.72 98.46 C 503.39 95.32 503.46 92.07 502.10 89.13 C 499.72 83.62 497.98 77.84 497.26 71.87 C 498.66 70.67 500.06 69.46 501.47 68.27 C 500.48 67.35 499.48 66.43 498.60 65.42 C 498.02 62.54 498.53 59.45 497.28 56.71 C 495.69 53.35 492.59 51.13 489.92 48.69 C 491.30 47.40 492.79 46.22 494.38 45.18 C 495.33 40.52 495.86 35.53 498.66 31.53 C 501.35 27.57 505.72 25.34 509.23 22.22 C 511.31 20.47 512.17 17.80 513.38 15.45 C 517.17 17.45 520.21 20.58 521.18 24.86 C 520.42 25.60 519.68 26.35 518.94 27.09 C 516.91 25.13 514.92 23.14 512.94 21.13 C 508.66 27.53 509.38 37.11 501.88 41.10 C 502.44 36.18 505.00 31.81 505.75 26.94 C 501.75 29.38 498.77 33.52 497.65 38.06 C 497.14 42.85 497.50 47.69 497.67 52.49 C 497.73 55.77 499.97 58.27 502.02 60.58 C 502.40 58.49 502.87 56.43 503.48 54.39 C 505.46 54.54 507.45 54.68 509.45 54.84 C 509.39 56.17 509.29 57.49 509.14 58.82 C 507.95 59.94 506.53 60.75 505.21 61.67 C 505.33 63.18 505.46 64.69 505.62 66.20 C 511.26 62.38 514.33 56.17 518.17 50.76 C 512.92 50.42 509.24 46.73 505.37 43.65 C 505.51 42.85 505.64 42.06 505.79 41.27 C 511.68 46.06 519.45 46.60 526.34 49.20 C 536.75 50.61 547.19 48.94 557.55 47.95 C 557.54 47.35 557.52 46.16 557.51 45.56 C 554.15 45.19 550.76 45.77 547.42 45.36 C 544.62 43.90 542.32 41.29 539.02 40.96 C 536.06 40.54 533.15 39.90 530.25 39.19 C 529.80 41.50 529.60 43.85 529.43 46.20 C 524.93 44.73 520.57 42.78 515.83 42.17 C 517.48 40.11 519.43 38.15 520.34 35.62 C 520.66 33.19 520.33 30.74 520.26 28.31 C 522.31 26.94 524.28 24.88 526.98 25.19 C 531.82 24.66 535.55 29.01 540.37 28.50 C 536.51 22.31 528.97 21.21 522.43 19.99 C 527.66 19.11 533.62 18.63 538.22 21.79 C 541.37 24.35 544.14 27.84 544.59 32.00 C 544.69 34.09 546.44 35.42 547.70 36.88 C 548.14 33.63 548.24 30.36 548.13 27.09 C 550.11 28.51 552.23 29.72 554.41 30.82 C 554.37 32.39 554.31 33.97 554.26 35.54 C 554.81 35.16 555.38 34.77 555.94 34.38 C 556.77 37.11 559.20 37.76 561.77 37.30 C 561.79 33.97 561.59 30.63 561.61 27.30 C 559.54 26.20 557.53 24.97 555.58 23.67 C 557.96 23.35 560.36 23.23 562.77 23.09 C 562.00 20.93 561.18 18.80 560.37 16.66 M 572.64 26.44 C 573.41 29.37 571.17 34.37 575.26 35.13 C 575.78 32.31 576.27 29.49 576.64 26.65 C 575.64 26.60 573.64 26.50 572.64 26.44 M 526.82 30.15 C 526.34 31.20 525.87 32.24 525.39 33.28 C 528.69 34.98 532.28 35.70 535.98 35.61 C 539.72 35.46 542.39 40.51 546.12 38.50 C 544.27 35.92 542.65 32.06 538.95 31.99 C 534.84 31.75 530.84 30.92 526.82 30.15 M 565.78 32.64 C 566.79 33.69 567.81 34.73 568.84 35.77 C 569.71 35.52 571.45 35.02 572.32 34.77 C 572.11 33.63 571.90 32.48 571.70 31.33 C 569.72 31.78 567.74 32.20 565.78 32.64 M 562.14 39.36 C 559.94 39.19 558.02 40.35 556.18 41.36 C 557.47 43.06 559.20 44.49 560.13 46.46 C 560.53 48.33 560.46 50.27 560.55 52.18 C 561.66 52.84 562.78 53.49 563.92 54.15 C 563.24 54.63 562.57 55.12 561.88 55.56 C 558.92 54.26 555.66 54.23 552.49 54.15 C 551.34 56.04 550.54 58.26 548.88 59.77 C 546.98 60.73 544.85 61.08 542.84 61.69 C 542.71 60.32 542.60 58.94 542.49 57.56 C 544.31 57.20 546.15 56.87 547.99 56.57 C 548.17 55.26 548.35 53.96 548.54 52.66 C 542.84 52.86 536.96 50.29 531.42 52.51 C 528.34 53.59 526.60 56.57 525.30 59.37 C 522.64 65.17 520.05 71.11 519.04 77.45 C 518.34 80.81 518.92 84.66 516.36 87.34 C 515.07 81.16 516.27 74.88 516.49 68.67 C 514.42 69.71 512.36 70.76 510.27 71.75 C 512.03 78.24 511.21 84.95 512.09 91.54 C 507.09 86.78 507.35 79.11 506.72 72.73 C 504.89 72.67 503.06 72.63 501.24 72.60 C 501.56 76.34 503.29 79.69 504.29 83.25 C 504.58 89.50 506.22 95.55 507.16 101.72 C 508.87 101.49 510.87 101.73 512.19 100.34 C 517.81 96.03 520.25 89.06 525.06 84.02 C 529.56 79.21 534.18 74.48 539.22 70.22 C 545.02 64.37 552.83 60.75 560.95 59.64 C 566.99 60.21 573.10 61.10 579.16 60.22 C 577.38 58.53 574.93 58.44 572.67 58.05 C 574.45 54.85 576.95 52.14 578.92 49.06 C 578.17 48.52 577.35 48.14 576.47 47.94 C 573.44 49.22 570.44 50.60 567.25 51.43 C 567.75 49.46 568.14 47.19 570.01 46.01 C 572.47 43.69 576.92 42.78 576.94 38.72 C 571.99 38.70 567.09 39.38 562.14 39.36 M 563.61 62.28 C 565.40 64.96 568.19 66.54 570.91 68.10 C 574.04 69.85 575.92 73.01 577.67 76.01 C 578.54 74.70 579.43 73.38 580.34 72.08 C 582.05 73.44 583.66 74.92 585.24 76.44 C 585.96 76.09 587.40 75.40 588.12 75.05 C 582.64 67.10 572.83 63.51 563.61 62.28 M 543.68 71.14 C 547.49 71.09 551.27 70.51 555.08 70.50 C 558.61 70.52 563.15 72.21 562.93 76.43 C 556.10 77.46 549.71 73.80 542.91 74.62 C 539.69 74.77 537.17 76.96 534.82 78.92 C 541.28 82.65 547.13 87.88 550.50 94.63 C 542.95 92.75 537.63 86.51 531.41 82.24 C 527.95 85.97 524.60 89.87 522.38 94.49 C 528.74 93.48 535.20 93.45 541.51 94.81 C 540.08 95.88 538.76 97.33 536.89 97.56 C 531.20 98.67 525.38 99.56 519.96 101.69 C 516.91 103.58 516.55 107.72 515.81 110.92 C 513.50 119.59 514.00 128.68 514.61 137.54 C 517.16 133.82 519.37 129.88 521.66 126.00 C 520.57 124.34 519.50 122.67 518.44 121.01 C 520.59 118.54 523.75 118.16 526.84 118.09 C 526.27 120.13 525.64 122.16 525.13 124.21 C 526.70 123.43 528.26 122.61 529.79 121.73 C 530.24 122.43 530.71 123.12 531.18 123.82 C 532.33 122.60 533.49 121.38 534.67 120.17 C 534.14 118.45 533.63 116.72 533.12 114.99 C 532.23 116.38 531.33 117.76 530.44 119.13 C 530.48 115.83 531.69 112.72 532.54 109.57 C 531.06 109.61 529.59 109.65 528.12 109.70 C 529.32 108.47 530.44 107.15 531.78 106.07 C 533.27 105.07 535.28 104.99 536.51 103.57 C 538.80 101.48 540.72 98.43 544.09 98.10 C 547.41 97.53 550.58 96.41 553.82 95.54 C 553.75 96.93 553.68 98.34 553.60 99.74 C 554.60 99.51 555.60 99.28 556.61 99.07 C 556.65 94.92 553.39 92.00 550.98 89.02 C 548.29 85.90 546.72 81.98 546.01 77.96 C 549.78 78.39 553.13 80.78 554.77 84.21 C 558.37 91.30 559.57 99.81 565.46 105.59 C 565.73 103.49 565.84 101.33 565.01 99.34 C 562.86 92.61 560.52 84.88 564.38 78.29 C 565.34 78.31 566.29 78.34 567.26 78.36 C 567.69 80.83 568.19 83.30 568.67 85.77 C 571.12 85.38 573.58 84.96 576.04 84.51 C 572.10 77.00 568.06 68.96 560.66 64.28 C 554.11 61.80 547.65 66.20 543.68 71.14 M 602.90 65.01 C 598.42 66.39 593.70 65.45 589.12 65.71 C 594.57 71.98 602.93 74.68 610.98 75.33 C 613.65 74.94 615.85 73.17 618.18 71.91 C 615.59 71.01 612.98 70.19 610.37 69.37 C 610.35 68.97 610.32 68.16 610.30 67.76 C 611.82 67.63 613.36 67.52 614.89 67.37 C 614.62 66.31 614.36 65.26 614.11 64.20 C 610.37 64.48 606.53 63.89 602.90 65.01 M 628.11 68.33 C 626.53 69.34 628.35 71.77 629.79 70.60 C 631.33 69.58 629.52 67.16 628.11 68.33 M 625.22 75.35 C 627.10 78.30 629.12 81.16 631.22 83.97 C 631.66 81.22 631.74 78.42 631.61 75.64 C 629.47 75.54 627.34 75.44 625.22 75.35 M 588.71 82.43 C 589.98 84.01 591.27 85.59 592.48 87.22 C 590.68 87.44 588.89 87.60 587.10 87.74 C 587.83 90.46 589.70 93.33 588.28 96.15 C 586.11 101.33 584.20 106.99 579.65 110.63 C 574.08 115.11 569.85 121.58 569.38 128.85 C 572.26 126.79 573.98 123.68 575.84 120.76 C 577.93 117.49 580.88 114.86 584.18 112.84 C 584.78 114.40 585.37 115.97 585.97 117.54 C 591.58 114.56 598.40 112.30 600.98 105.88 C 598.91 104.78 596.84 103.71 594.68 102.82 C 593.01 105.65 591.19 108.41 588.87 110.76 C 588.36 106.08 588.12 101.02 590.77 96.89 C 593.76 91.72 595.17 85.61 593.48 79.75 C 591.87 80.61 590.28 81.52 588.71 82.43 M 422.92 86.10 C 419.65 87.36 417.95 90.63 415.90 93.23 C 417.87 94.22 419.85 95.21 421.84 96.19 C 422.61 94.07 423.42 91.95 424.31 89.87 C 424.84 92.01 425.32 94.16 425.79 96.32 C 427.43 94.47 429.08 92.61 430.85 90.87 C 430.12 93.68 429.09 96.40 428.29 99.19 C 429.85 98.54 431.64 98.12 432.72 96.69 C 436.63 92.19 442.20 88.46 448.38 88.68 C 443.32 94.48 436.76 98.71 429.76 101.76 C 428.67 103.50 426.86 105.50 427.63 107.70 C 428.41 110.61 429.08 113.55 429.72 116.49 C 428.14 117.58 426.82 118.94 427.02 121.01 C 427.05 124.89 425.09 128.58 425.52 132.45 C 427.74 134.90 431.26 134.13 434.19 134.29 C 432.85 131.98 431.28 129.81 429.77 127.62 C 433.37 127.51 436.97 127.70 440.58 127.65 C 437.32 124.59 433.75 121.86 430.78 118.50 C 431.81 118.52 433.89 118.57 434.93 118.59 C 436.21 121.69 439.33 122.79 442.31 123.61 C 443.44 125.05 444.11 127.14 446.00 127.77 C 451.11 130.06 456.77 130.25 462.20 131.31 C 467.54 132.33 472.65 129.94 477.95 129.80 C 481.61 129.66 485.31 129.65 488.90 130.47 C 491.97 131.23 494.54 133.17 497.36 134.51 C 498.84 135.35 500.17 133.77 501.48 133.28 C 502.80 133.85 504.12 134.45 505.46 135.02 C 505.56 128.06 505.54 120.04 500.24 114.77 C 495.67 109.79 488.36 112.41 482.50 111.27 C 480.65 110.63 477.91 110.35 478.07 107.79 C 480.80 106.29 483.99 106.50 487.00 106.56 C 491.93 106.65 496.09 109.73 500.83 110.72 C 498.47 102.54 488.41 97.15 480.38 100.49 C 474.79 102.64 468.91 104.29 462.91 104.68 C 464.76 100.49 469.21 98.66 473.32 97.44 C 478.34 95.57 483.78 96.64 488.99 96.14 C 484.53 90.58 476.72 89.28 470.14 91.04 C 467.68 91.94 465.48 93.41 462.99 94.22 C 460.18 94.91 457.27 94.40 454.46 94.11 C 458.66 88.24 466.51 89.68 472.04 86.05 C 465.40 82.82 457.24 85.21 452.50 90.58 C 451.06 93.43 451.78 96.96 453.46 99.55 C 456.33 104.38 460.58 108.64 461.35 114.45 C 459.94 114.40 458.53 114.35 457.13 114.30 C 456.78 115.27 456.43 116.23 456.09 117.20 C 459.08 117.45 462.41 117.08 464.89 119.13 C 468.11 121.54 471.70 123.38 475.43 124.90 C 475.28 125.65 475.00 127.15 474.86 127.90 C 469.39 125.21 463.20 124.25 458.01 120.99 C 456.08 119.79 454.03 118.81 451.87 118.14 C 451.07 119.65 450.29 121.16 449.52 122.68 C 447.67 122.04 445.81 121.43 443.91 120.98 C 438.65 120.46 437.33 114.36 434.78 110.65 C 436.87 110.01 438.99 109.45 441.13 108.98 C 441.28 110.63 441.43 112.28 441.58 113.93 C 443.19 114.79 444.72 115.77 446.19 116.85 C 446.46 115.91 446.74 114.98 447.02 114.04 C 448.05 114.93 449.07 115.82 450.10 116.71 C 450.27 114.54 450.36 112.36 450.42 110.19 C 451.94 111.02 453.49 111.81 455.09 112.52 C 453.84 107.04 451.88 101.65 448.80 96.93 C 448.10 102.49 448.39 108.23 446.11 113.50 C 444.02 110.92 442.95 107.59 443.25 104.28 C 445.46 97.17 448.96 90.41 454.08 84.94 C 451.12 84.19 448.13 83.35 445.05 83.41 C 437.62 83.47 429.91 83.20 422.92 86.10 M 567.82 86.48 C 567.55 92.25 567.20 98.05 567.82 103.81 C 571.49 98.68 574.60 93.17 577.65 87.67 C 574.36 87.40 571.09 86.96 567.82 86.48 M 603.22 86.60 C 604.09 91.56 605.33 96.49 605.27 101.58 C 608.61 101.49 611.95 101.44 615.29 101.26 C 610.27 97.21 607.54 91.26 603.22 86.60 M 640.48 92.00 C 640.02 94.34 642.09 95.75 643.50 97.22 C 643.60 94.10 643.52 90.97 643.33 87.85 C 641.88 88.87 640.04 89.89 640.48 92.00 M 408.56 96.41 C 407.70 100.53 406.66 104.66 406.57 108.90 C 406.57 111.88 404.69 114.36 403.97 117.17 C 403.69 120.57 405.33 123.75 406.54 126.83 C 408.26 124.06 409.24 120.92 409.64 117.69 C 411.49 118.56 413.42 119.22 415.36 119.89 C 416.15 118.18 417.38 116.59 417.67 114.69 C 417.53 111.61 416.52 108.65 416.19 105.59 C 417.57 105.43 418.95 105.26 420.34 105.10 C 420.48 104.18 420.76 102.34 420.90 101.43 C 419.02 101.01 417.04 99.92 415.15 100.86 C 413.15 101.43 412.22 103.43 410.94 104.88 C 411.12 103.43 411.29 101.97 411.45 100.52 C 414.78 100.22 418.11 99.77 421.41 99.16 C 419.62 97.22 417.42 95.77 414.83 95.19 C 414.68 93.52 414.50 91.85 414.28 90.20 C 412.11 91.94 409.09 93.39 408.56 96.41 M 596.13 99.61 C 597.25 100.05 598.38 100.50 599.52 100.94 C 600.05 96.94 599.22 92.95 596.78 89.67 C 596.22 92.96 596.11 96.29 596.13 99.61 M 569.74 116.84 C 573.61 112.96 575.48 107.72 578.23 103.08 C 580.90 99.51 578.15 95.16 578.00 91.27 C 571.60 97.95 568.58 107.70 569.74 116.84 M 363.20 96.19 C 361.99 97.65 364.53 99.35 365.51 97.79 C 366.73 96.32 364.18 94.67 363.20 96.19 M 390.40 115.11 C 394.01 119.51 397.12 124.83 402.86 126.74 C 401.90 119.89 396.93 114.22 397.09 107.12 C 398.62 107.65 400.13 108.21 401.65 108.77 C 402.40 105.00 403.72 101.35 403.94 97.48 C 397.33 101.43 393.84 108.54 390.40 115.11 M 538.48 104.57 C 544.82 104.42 551.16 104.79 557.50 104.58 C 554.52 102.08 551.20 99.12 547.03 99.46 C 543.38 99.26 540.61 101.95 538.48 104.57 M 637.32 100.75 C 636.42 105.72 639.95 109.71 641.87 113.95 C 641.78 109.23 641.55 103.78 637.32 100.75 M 420.19 108.28 C 419.75 111.55 421.39 114.59 422.39 117.60 C 423.56 115.51 425.14 113.46 425.34 111.00 C 425.10 108.68 423.89 106.63 422.98 104.53 C 422.03 105.76 420.72 106.79 420.19 108.28 M 535.07 110.04 C 535.56 113.86 536.60 117.58 537.72 121.27 C 542.14 116.83 546.75 112.62 551.66 108.73 C 546.12 108.74 540.25 107.49 535.07 110.04 M 632.22 109.30 C 631.98 109.77 631.49 110.70 631.25 111.17 C 633.54 115.45 636.65 119.25 640.48 122.25 C 641.10 117.16 637.17 113.28 634.62 109.32 C 634.02 109.32 632.82 109.31 632.22 109.30 M 555.58 110.50 C 549.66 113.47 546.95 120.01 542.55 124.64 C 544.43 124.36 546.31 123.99 548.18 123.61 C 547.31 132.94 537.03 137.49 535.40 146.50 C 538.89 145.08 540.68 141.68 542.96 138.92 C 545.63 135.40 549.79 133.12 554.26 133.14 C 553.21 135.36 551.91 137.51 549.90 138.97 C 545.40 142.48 541.24 146.37 536.84 149.99 C 535.23 149.68 533.61 149.41 532.00 149.14 C 533.75 141.01 537.54 133.39 541.20 125.95 C 539.08 125.45 536.97 124.89 534.88 124.32 C 533.17 125.97 531.61 127.78 529.64 129.12 C 528.09 129.60 526.30 129.24 524.87 130.01 C 518.49 136.10 513.91 143.88 511.19 152.24 C 510.25 155.66 510.62 159.25 510.68 162.75 C 519.62 160.14 528.10 156.16 537.09 153.69 C 544.82 152.56 552.41 150.37 560.29 150.33 C 560.38 149.93 560.58 149.13 560.67 148.73 C 558.59 148.04 556.54 147.26 554.59 146.27 C 556.38 145.87 558.20 145.54 560.01 145.21 C 560.41 143.13 560.62 140.89 562.22 139.33 C 564.54 136.69 565.57 133.28 566.68 130.02 C 564.46 126.70 564.18 122.82 564.41 118.94 C 564.75 114.23 560.81 108.47 555.58 110.50 M 592.40 118.36 C 589.07 119.52 585.91 121.08 583.11 123.24 C 581.00 124.96 577.98 124.94 576.00 126.84 C 571.73 130.77 567.85 135.33 565.90 140.88 C 573.77 139.05 579.00 130.44 587.64 131.56 C 586.22 134.62 584.26 137.66 580.99 138.96 C 575.59 141.24 569.73 142.23 564.42 144.75 C 564.46 147.39 564.48 150.04 564.34 152.68 C 566.41 152.70 568.49 152.72 570.58 152.72 C 570.51 151.17 570.45 149.62 570.40 148.07 C 576.67 147.24 582.68 145.10 588.36 142.38 C 591.44 140.89 594.82 140.32 598.21 140.07 C 596.70 138.49 595.22 136.90 593.79 135.26 C 591.89 135.39 590.00 135.52 588.12 135.63 C 589.10 125.94 599.22 120.75 601.40 111.45 C 597.84 112.99 595.53 116.23 592.40 118.36 M 608.63 112.19 C 613.96 117.34 623.12 117.21 626.49 124.56 C 623.63 127.31 623.47 131.35 622.35 134.90 C 622.64 135.37 622.95 135.82 623.26 136.29 C 625.90 133.03 628.76 129.96 631.81 127.08 C 630.11 122.57 629.11 117.56 625.93 113.79 C 622.55 113.33 619.09 113.86 615.76 113.08 C 613.42 112.49 611.02 112.23 608.63 112.19 M 597.38 130.07 C 598.17 130.54 599.76 131.48 600.56 131.96 C 601.22 130.74 601.90 129.53 602.49 128.28 C 604.24 125.28 602.75 121.78 602.44 118.61 C 599.98 122.04 598.45 126.01 597.38 130.07 M 610.03 118.12 C 610.38 119.92 610.25 121.98 611.48 123.48 C 613.28 126.35 616.82 127.15 619.82 128.13 C 619.02 123.13 614.19 120.20 610.03 118.12 M 385.92 127.61 C 390.98 128.40 396.13 128.71 401.26 128.47 C 397.68 124.79 392.96 122.64 388.54 120.17 C 387.60 122.63 386.70 125.10 385.92 127.61 M 602.96 127.62 C 602.02 131.38 603.08 135.25 603.49 139.01 C 604.56 138.61 605.64 138.22 606.72 137.81 C 606.75 134.81 606.91 131.78 606.39 128.80 C 605.74 127.19 604.59 126.79 602.96 127.62 M 611.83 127.63 C 613.16 130.41 614.93 132.96 617.06 135.19 C 617.28 133.56 617.49 131.94 617.70 130.31 C 615.77 129.35 613.83 128.42 611.83 127.63 M 385.90 132.23 C 387.83 136.29 390.44 140.09 394.16 142.70 C 396.81 145.34 400.75 144.11 404.06 144.29 C 408.98 143.96 413.69 146.11 417.51 149.06 C 414.83 149.45 412.07 149.72 409.43 148.92 C 406.05 147.97 402.58 148.95 399.24 149.52 C 399.76 152.39 400.31 155.27 400.74 158.16 C 402.01 156.12 403.49 154.22 405.21 152.54 C 405.49 154.38 405.74 156.24 405.99 158.09 C 407.27 157.44 408.56 156.79 409.84 156.14 C 412.97 158.13 416.85 157.71 420.21 158.90 C 424.15 162.10 425.80 167.14 428.22 171.43 C 430.39 165.55 429.85 157.54 424.44 153.59 C 421.22 152.63 417.81 152.70 414.52 152.18 C 417.28 151.44 420.12 151.06 422.92 150.46 C 422.96 146.83 420.26 144.28 417.29 142.65 C 409.43 140.73 400.45 145.01 393.32 140.06 C 394.62 139.16 395.79 138.00 397.30 137.43 C 403.70 136.26 409.82 139.11 416.09 139.85 C 415.06 138.55 414.02 137.26 412.96 135.99 C 413.19 135.46 413.64 134.39 413.87 133.86 C 413.54 133.79 413.23 133.72 412.92 133.65 C 403.90 133.30 394.85 133.61 385.90 132.23 M 441.48 131.83 C 440.69 135.14 440.30 138.65 438.55 141.63 C 435.87 141.81 433.22 141.21 430.61 140.74 C 430.20 146.59 430.21 152.66 433.18 157.91 C 436.62 153.16 436.47 145.05 443.21 143.41 C 441.26 148.32 437.78 152.84 438.26 158.41 C 440.60 158.91 442.94 159.42 445.32 159.79 C 444.65 161.90 443.92 163.98 443.18 166.06 C 445.51 167.61 447.51 169.58 449.65 171.37 C 449.35 165.59 449.93 159.80 452.25 154.45 C 456.88 147.71 461.31 140.83 466.54 134.52 C 464.31 134.71 461.70 134.24 459.91 135.91 C 454.55 140.30 451.56 147.58 444.55 149.82 C 444.50 141.87 451.82 137.35 457.81 133.73 C 453.11 130.15 446.93 131.79 441.48 131.83 M 629.35 136.34 C 625.95 140.52 621.69 144.36 620.22 149.72 C 626.23 147.65 631.09 143.42 636.51 140.26 C 636.67 137.24 636.99 134.24 637.34 131.24 C 634.19 132.07 631.35 133.75 629.35 136.34 M 477.27 133.43 C 476.93 135.84 476.17 138.39 477.10 140.77 C 478.09 143.37 479.64 145.72 480.71 148.29 C 482.28 151.79 482.22 155.71 482.30 159.46 C 484.82 160.08 487.35 159.63 489.60 158.34 C 489.33 154.46 489.18 150.56 489.56 146.68 C 490.88 147.96 492.52 149.08 493.13 150.91 C 495.45 156.74 496.89 163.01 496.67 169.32 C 495.42 168.33 494.21 167.31 492.98 166.32 C 491.58 166.78 490.18 167.24 488.78 167.70 C 490.45 169.54 492.08 171.43 493.47 173.50 C 490.94 173.56 488.41 173.51 485.89 173.56 C 486.72 174.86 486.90 176.81 488.36 177.61 C 490.43 177.89 492.53 177.86 494.63 177.91 C 495.36 175.72 495.87 173.31 497.59 171.62 C 499.35 169.33 502.25 167.78 503.07 164.85 C 503.63 162.88 504.39 160.94 504.66 158.89 C 502.99 156.10 501.32 153.20 501.74 149.79 C 506.33 148.91 506.98 143.67 506.67 139.81 C 505.19 142.45 504.07 145.27 503.06 148.12 C 495.51 144.68 486.86 144.61 479.65 140.36 C 479.45 139.32 479.25 138.28 479.07 137.25 C 481.59 137.29 484.16 137.11 486.65 137.62 C 490.90 138.88 494.70 141.31 498.99 142.49 C 495.51 134.62 485.30 130.86 477.27 133.43 M 608.84 139.20 C 609.63 140.47 610.77 141.46 611.85 142.48 C 612.06 139.05 610.61 135.94 609.03 133.00 C 608.72 135.03 608.07 137.20 608.84 139.20 M 375.01 141.03 C 372.08 147.09 371.65 154.09 368.00 159.87 C 367.31 159.86 365.92 159.83 365.23 159.81 C 364.39 153.55 367.96 148.31 370.35 142.87 C 363.90 145.37 362.53 152.99 361.51 159.01 C 361.63 163.57 366.05 166.24 370.28 165.44 C 370.39 167.10 370.47 168.77 370.55 170.44 C 372.17 170.50 373.79 170.56 375.42 170.67 C 374.34 171.65 373.24 172.61 372.13 173.56 C 372.48 174.32 372.84 175.09 373.21 175.86 C 375.00 174.73 376.78 173.58 378.59 172.48 C 378.67 168.48 378.80 164.42 379.97 160.56 C 381.19 155.72 382.35 150.36 380.02 145.65 C 377.79 151.41 377.32 157.62 375.48 163.48 C 374.44 163.54 373.41 163.60 372.39 163.67 C 372.37 159.72 371.70 155.46 373.85 151.90 C 376.84 146.59 379.20 140.99 380.68 135.08 C 378.47 136.72 376.16 138.44 375.01 141.03 M 420.25 134.66 C 420.39 136.85 420.49 139.04 420.51 141.24 C 423.28 142.04 425.96 143.10 428.65 144.16 C 428.67 141.98 428.67 139.80 428.64 137.62 C 425.95 136.34 423.20 135.15 420.25 134.66 M 461.36 147.96 C 462.33 152.30 465.22 155.89 467.03 159.91 C 468.59 162.81 468.36 166.20 468.32 169.38 C 461.75 165.44 459.39 157.82 458.17 150.71 C 455.63 155.53 455.86 162.16 459.82 166.15 C 460.91 167.69 463.25 169.10 462.38 171.29 C 461.07 173.59 458.37 173.48 456.11 173.92 C 454.23 174.84 454.59 177.20 454.12 178.89 C 458.08 178.11 461.84 176.60 465.75 175.60 C 465.22 177.07 464.67 178.52 464.17 179.99 C 468.31 179.74 472.23 178.28 475.87 176.37 C 477.93 177.27 480.06 177.95 482.24 178.52 C 482.29 176.93 482.34 175.35 482.37 173.78 C 479.74 172.61 477.27 171.16 474.78 169.74 C 476.49 169.30 478.20 168.87 479.92 168.42 C 478.84 167.06 477.76 165.71 476.71 164.34 C 478.15 164.70 479.59 165.08 481.04 165.44 C 480.87 162.64 480.56 159.75 478.54 157.61 C 475.06 153.30 475.00 147.61 473.86 142.45 C 473.30 142.41 472.18 142.33 471.62 142.29 C 471.66 147.82 471.78 153.36 471.52 158.89 C 470.75 158.79 469.20 158.59 468.43 158.49 C 467.60 156.31 466.33 154.23 466.17 151.86 C 465.50 146.40 469.66 141.97 470.06 136.65 C 465.80 138.94 461.55 142.83 461.36 147.96 M 386.37 139.69 C 386.15 146.71 388.87 153.39 390.94 159.99 C 391.72 163.44 395.65 165.38 398.91 164.08 C 396.52 160.83 396.38 156.75 394.81 153.17 C 392.75 148.26 390.31 143.37 386.37 139.69 M 576.58 149.65 C 576.54 150.53 576.45 152.28 576.41 153.16 C 577.06 153.49 578.36 154.16 579.01 154.50 C 580.31 153.51 581.62 152.53 582.93 151.54 C 583.74 152.63 584.58 153.71 585.42 154.79 C 586.33 154.75 587.23 154.71 588.15 154.67 C 588.87 153.30 589.12 151.43 590.75 150.81 C 594.76 148.57 599.15 147.03 602.97 144.42 C 602.32 143.28 601.68 142.15 601.04 141.02 C 594.61 147.62 584.71 146.77 576.58 149.65 M 598.36 151.39 C 595.80 151.26 594.96 153.85 593.87 155.63 C 596.23 155.34 598.56 154.57 600.96 154.68 C 603.06 155.09 605.02 156.01 607.12 156.47 C 610.90 155.79 613.96 153.14 616.99 150.94 C 614.58 149.54 612.15 148.20 609.74 146.82 C 606.28 149.09 602.58 151.13 598.36 151.39 M 629.85 148.98 C 636.45 151.94 643.86 149.57 650.75 151.34 C 650.71 152.39 650.68 153.45 650.66 154.51 C 644.40 154.76 638.01 155.30 631.88 153.67 C 625.99 152.62 618.75 152.50 614.59 157.57 C 620.67 158.94 626.90 158.16 633.06 158.34 C 637.42 158.24 640.81 161.39 643.93 164.02 C 648.29 160.67 652.43 157.03 656.91 153.82 C 653.99 151.29 650.90 148.83 647.24 147.46 C 641.62 145.08 635.05 145.95 629.85 148.98 M 351.24 158.37 C 349.49 161.98 351.71 165.78 352.53 169.33 C 354.53 174.72 353.02 180.59 354.60 186.07 C 356.27 183.25 358.06 180.49 360.03 177.86 C 358.69 177.62 357.37 177.39 356.04 177.16 C 356.77 175.33 357.57 173.53 358.43 171.75 C 357.16 169.69 355.57 167.58 355.65 165.04 C 355.51 158.89 359.18 153.62 360.87 147.90 C 356.74 150.36 353.00 153.80 351.24 158.37 M 548.94 154.89 C 551.27 157.54 554.46 159.11 557.66 160.46 C 561.33 162.03 564.57 164.38 567.85 166.63 C 568.04 163.04 566.83 159.33 563.80 157.20 C 559.67 153.71 553.91 154.39 548.94 154.89 M 383.24 156.22 C 383.69 162.73 384.67 169.74 381.69 175.83 C 379.70 179.93 378.86 184.47 379.12 189.02 C 378.86 194.07 381.36 199.63 386.26 201.60 C 385.71 197.72 383.76 194.30 382.68 190.59 C 382.08 187.59 382.44 184.51 382.57 181.49 C 383.73 182.04 384.91 182.59 386.10 183.12 C 386.73 174.41 386.93 165.61 385.67 156.95 C 385.06 156.77 383.85 156.40 383.24 156.22 M 539.25 157.10 C 539.27 158.78 539.31 160.47 539.37 162.16 C 540.63 161.09 541.89 160.01 543.17 158.94 C 541.85 158.33 540.55 157.71 539.25 157.10 M 490.19 156.96 C 489.30 159.79 488.64 162.68 487.97 165.56 C 488.90 165.52 490.76 165.45 491.69 165.41 C 491.50 162.55 491.04 159.71 490.19 156.96 M 522.15 162.36 C 522.99 165.62 524.87 168.67 527.99 170.17 C 530.22 171.61 532.85 170.37 534.94 169.32 C 532.76 167.68 530.49 166.15 528.28 164.56 C 528.58 163.85 528.88 163.15 529.19 162.45 C 530.95 162.53 532.71 162.63 534.48 162.73 C 534.36 161.16 534.24 159.58 534.12 158.01 C 529.99 159.04 525.98 160.52 522.15 162.36 M 577.44 158.58 C 583.47 163.90 592.07 164.63 598.27 169.74 C 603.92 173.43 606.50 179.82 608.91 185.82 C 610.13 184.88 611.35 183.93 612.58 182.98 C 611.64 175.28 607.71 168.18 602.47 162.59 C 595.12 157.88 585.87 157.74 577.44 158.58 M 412.71 161.92 C 413.46 163.39 414.22 164.86 414.95 166.34 C 413.52 166.56 412.09 166.76 410.66 166.97 C 410.53 168.30 410.40 169.64 410.28 170.98 C 408.68 170.37 407.11 169.71 405.54 169.05 C 405.44 170.49 405.35 171.94 405.26 173.38 C 408.24 175.18 411.40 176.66 414.62 178.02 C 415.63 174.97 416.21 171.80 416.90 168.66 C 423.77 174.50 422.15 184.68 419.78 192.32 C 421.45 191.03 423.67 190.08 424.65 188.12 C 424.37 186.57 423.80 185.08 423.35 183.58 C 425.12 183.36 426.89 183.17 428.68 182.98 C 426.26 180.02 427.05 176.16 426.33 172.70 C 422.91 168.30 418.71 164.49 415.99 159.54 C 414.88 160.33 413.79 161.13 412.71 161.92 M 436.71 162.11 C 434.49 168.58 431.51 175.15 432.38 182.16 C 434.54 181.41 436.68 180.55 438.69 179.44 C 442.17 179.64 445.65 179.64 449.13 179.48 C 448.31 177.82 447.92 175.82 446.55 174.52 C 444.64 173.46 442.50 172.90 440.48 172.13 C 440.49 170.04 440.76 167.93 440.48 165.86 C 439.41 164.43 438.00 163.32 436.71 162.11 M 451.68 169.59 C 453.50 169.44 455.33 169.28 457.15 169.10 C 456.48 166.51 455.69 163.95 454.86 161.41 C 453.25 163.89 452.13 166.66 451.68 169.59 M 543.27 166.87 C 545.16 166.71 547.05 166.56 548.95 166.37 C 548.37 164.40 548.06 162.09 546.05 161.03 C 545.11 162.97 544.20 164.92 543.27 166.87 M 551.85 161.78 C 555.53 166.88 560.48 170.93 563.71 176.39 C 563.72 174.13 564.07 171.82 563.53 169.60 C 559.94 166.59 556.24 163.55 551.85 161.78 M 621.90 161.63 C 623.93 165.42 627.84 168.08 632.07 168.71 C 636.43 169.33 640.22 166.50 643.26 163.74 C 639.14 163.45 634.88 164.16 630.90 162.81 C 628.00 161.82 624.95 161.41 621.90 161.63 M 652.45 162.18 C 653.88 163.73 655.79 164.60 657.79 165.14 C 657.24 163.95 656.69 162.77 656.15 161.58 C 655.22 161.73 653.37 162.03 652.45 162.18 M 346.94 182.72 C 343.93 184.83 341.71 187.83 341.16 191.53 C 341.68 191.57 342.72 191.65 343.24 191.69 C 343.34 190.39 343.44 189.09 343.56 187.79 C 344.72 188.50 345.87 189.22 347.04 189.92 C 347.19 187.04 348.54 184.49 349.42 181.81 C 349.38 175.66 348.75 169.51 348.28 163.38 C 343.91 168.83 344.45 176.57 346.94 182.72 M 608.51 163.27 C 611.73 168.49 615.88 173.16 620.99 176.60 C 622.82 175.62 624.66 174.69 626.53 173.79 C 622.05 168.34 615.71 163.82 608.51 163.27 M 501.58 192.81 C 503.71 192.01 505.55 190.66 506.85 188.80 C 508.99 185.86 511.73 183.45 514.12 180.73 C 514.62 178.93 514.57 177.03 514.81 175.19 C 522.21 177.84 526.84 184.72 533.88 188.01 C 530.47 179.15 521.78 173.86 518.16 165.10 C 509.02 171.25 501.56 181.42 501.58 192.81 M 637.78 172.24 C 644.31 175.48 651.70 172.69 657.90 169.98 C 654.63 168.30 651.41 166.45 647.94 165.24 C 643.95 166.48 640.81 169.49 637.78 172.24 M 395.18 167.08 C 395.22 167.60 395.30 168.64 395.34 169.16 C 397.01 168.70 398.71 168.30 400.40 167.88 C 398.66 167.58 396.92 167.32 395.18 167.08 M 548.22 185.02 C 547.85 187.16 549.36 188.53 550.89 189.73 C 551.97 184.97 554.74 180.93 558.17 177.54 C 558.77 179.78 559.35 182.02 559.99 184.25 C 562.08 182.30 562.45 179.50 562.81 176.82 C 560.65 176.20 557.96 176.39 556.43 174.49 C 554.11 172.14 552.44 169.27 550.67 166.52 C 545.89 171.45 548.36 178.91 548.22 185.02 M 583.08 166.24 C 583.66 168.08 584.23 170.02 585.54 171.50 C 590.06 176.89 595.76 181.07 601.46 185.11 C 601.37 181.80 601.83 177.44 598.42 175.55 C 593.44 172.24 588.90 168.04 583.08 166.24 M 568.01 167.32 C 566.66 173.77 567.82 180.40 567.74 186.93 C 569.14 184.68 570.61 182.42 571.37 179.85 C 572.03 175.42 570.19 171.08 568.01 167.32 M 390.34 169.90 C 390.31 174.63 391.88 179.26 391.37 184.00 C 390.85 187.82 386.85 190.77 388.15 194.87 C 388.91 201.64 393.59 206.89 398.16 211.55 C 400.07 212.65 402.41 212.57 404.52 213.10 C 403.84 209.85 404.78 205.53 401.49 203.51 C 398.50 200.78 394.70 199.24 391.50 196.83 C 390.78 193.09 394.10 190.36 395.00 186.97 C 395.87 180.92 393.80 174.83 390.34 169.90 M 576.10 169.74 C 576.37 173.24 577.75 176.50 578.44 179.91 C 576.65 182.97 574.33 185.74 573.07 189.11 C 571.24 193.69 567.98 197.54 566.15 202.10 C 566.36 205.24 568.63 207.73 570.00 210.44 C 572.58 210.10 575.16 209.76 577.76 209.58 C 580.59 204.75 580.46 199.03 580.20 193.63 C 577.32 196.99 575.11 201.93 569.99 201.99 C 570.60 198.77 572.14 195.81 574.57 193.58 C 576.83 191.03 580.44 188.91 580.37 185.06 C 580.76 179.68 580.87 173.35 576.10 169.74 M 530.21 172.52 C 530.23 173.29 530.27 174.83 530.29 175.61 C 531.19 176.53 532.07 177.48 532.96 178.43 C 533.59 178.21 534.86 177.78 535.49 177.57 C 535.82 176.83 536.48 175.34 536.81 174.60 C 534.89 173.10 532.67 172.13 530.21 172.52 M 398.53 175.21 C 400.44 179.39 404.13 183.57 409.20 182.93 C 406.10 179.79 402.49 177.15 398.53 175.21 M 537.42 174.50 C 536.48 179.13 540.21 182.59 542.45 186.17 C 543.23 183.96 543.96 181.52 543.18 179.19 C 541.54 177.31 539.45 175.91 537.42 174.50 M 626.27 175.54 C 624.68 176.48 626.16 179.39 627.83 178.35 C 629.36 177.39 627.94 174.52 626.27 175.54 M 585.34 177.47 C 585.82 179.87 586.36 182.29 587.41 184.52 C 590.22 190.09 595.68 193.76 598.43 199.37 C 600.41 203.11 600.06 207.52 601.46 211.45 C 603.13 213.70 606.40 215.12 606.60 218.23 C 607.04 224.78 605.88 231.75 609.00 237.85 C 611.12 234.16 612.90 230.18 613.60 225.96 C 611.43 217.64 604.20 211.84 601.75 203.63 C 601.07 200.74 601.45 197.74 601.71 194.82 C 603.93 196.75 606.17 198.92 607.01 201.84 C 608.54 205.80 608.38 210.57 611.65 213.68 C 612.42 206.24 609.71 199.02 606.31 192.54 C 603.66 192.11 600.57 192.44 598.48 190.44 C 593.68 186.55 590.43 181.05 585.34 177.47 M 363.18 179.79 C 363.23 183.48 365.55 186.44 367.96 188.99 C 367.56 185.44 366.66 181.55 363.18 179.79 M 368.93 179.27 C 369.78 183.63 372.20 187.43 375.34 190.50 C 375.38 187.25 376.08 183.66 374.31 180.72 C 372.74 179.58 370.75 179.58 368.93 179.27 M 492.07 181.64 C 483.67 181.97 475.22 180.49 466.86 181.80 C 470.72 185.20 475.92 186.58 480.98 186.52 C 486.18 186.16 490.86 189.50 496.09 188.38 C 494.84 185.49 495.54 182.56 497.42 180.15 C 495.69 180.82 493.97 181.69 492.07 181.64 M 638.22 179.58 C 638.61 188.58 648.16 194.24 656.36 194.73 C 652.32 187.81 645.70 182.40 638.22 179.58 M 400.37 181.67 C 401.43 184.20 402.79 186.59 404.26 188.91 C 403.06 190.91 402.17 193.07 402.25 195.45 C 403.21 195.78 404.18 196.13 405.14 196.48 C 405.32 195.07 405.50 193.66 405.68 192.26 C 406.51 192.00 408.19 191.48 409.02 191.22 C 407.31 187.15 404.54 183.45 400.37 181.67 M 439.76 181.71 C 442.10 185.71 447.02 185.21 451.01 185.56 C 453.32 185.91 454.03 183.29 453.91 181.51 C 449.19 181.19 444.45 181.11 439.76 181.71 M 627.03 183.28 C 627.49 184.86 627.91 186.58 629.51 187.42 C 629.66 185.99 629.80 184.57 629.94 183.15 C 629.21 183.18 627.76 183.25 627.03 183.28 M 518.18 184.24 C 516.14 184.95 514.54 186.49 512.84 187.75 C 507.81 191.85 501.95 195.46 499.09 201.56 C 509.27 201.08 520.24 199.03 529.76 203.82 C 530.51 203.18 531.23 202.52 531.97 201.87 C 530.32 200.32 528.43 198.93 526.04 199.01 C 521.00 198.82 516.08 197.68 511.51 195.54 C 511.37 194.45 511.22 193.36 511.09 192.28 C 514.04 192.22 517.01 192.01 519.96 192.39 C 526.21 193.50 531.38 198.81 538.08 197.43 C 534.59 192.57 529.16 189.85 524.30 186.64 C 522.42 185.54 520.46 184.04 518.18 184.24 M 412.52 198.42 C 410.74 198.87 408.97 199.31 407.21 199.75 C 407.72 204.80 408.45 209.82 409.31 214.82 C 410.20 219.11 414.03 221.69 417.35 224.08 C 416.30 219.49 413.64 215.64 411.21 211.71 C 412.52 203.91 417.76 197.08 418.42 189.08 C 418.28 187.10 418.82 183.98 415.83 184.49 C 413.79 188.86 412.80 193.62 412.52 198.42 M 429.81 186.92 C 425.64 189.08 423.22 193.42 421.75 197.71 C 424.83 196.18 427.71 194.27 430.81 192.76 C 434.37 191.11 438.44 191.32 442.26 191.60 C 438.61 197.67 430.59 197.02 424.94 200.05 C 421.21 201.56 419.60 205.47 417.54 208.60 C 423.46 208.30 429.13 205.97 435.10 206.33 C 439.74 206.63 444.33 205.52 448.54 203.61 C 446.65 203.10 444.75 202.64 442.84 202.21 C 444.02 197.68 445.93 193.41 447.65 189.08 C 441.81 187.82 435.83 185.54 429.81 186.92 M 459.13 189.10 C 457.16 194.94 456.13 201.62 451.23 205.89 C 455.82 207.76 460.84 207.51 465.56 208.81 C 462.91 211.16 459.53 212.31 456.56 214.13 C 455.00 217.38 460.14 217.88 461.98 219.61 C 464.36 218.12 467.32 217.28 469.08 214.98 C 470.73 211.72 471.65 208.02 471.37 204.36 C 469.68 206.89 468.23 209.57 466.69 212.19 C 465.26 209.47 465.90 206.53 467.08 203.87 C 468.83 199.94 468.44 195.52 467.40 191.45 C 465.20 195.91 465.58 202.87 459.41 203.99 C 458.14 198.79 461.52 194.56 463.34 190.04 C 463.10 188.26 462.48 186.56 461.99 184.84 C 460.92 186.17 459.55 187.37 459.13 189.10 M 397.29 186.46 C 396.77 189.70 397.46 192.86 399.87 195.17 C 399.57 192.13 398.69 189.17 397.29 186.46 M 632.41 187.69 C 632.33 189.24 631.66 190.92 632.55 192.37 C 633.08 193.78 634.44 195.18 633.67 196.77 C 631.84 202.21 627.54 206.45 626.04 212.04 C 631.13 208.46 634.31 202.90 639.00 198.85 C 637.47 194.95 636.02 191.01 634.59 187.07 C 634.04 187.23 632.95 187.54 632.41 187.69 M 608.99 188.62 C 609.67 190.63 610.35 192.63 611.07 194.62 C 612.47 192.72 613.78 190.75 614.98 188.71 C 613.13 187.28 610.98 188.11 608.99 188.62 M 472.69 188.43 C 476.75 194.38 483.76 197.56 490.28 200.06 C 490.69 197.96 491.10 195.86 491.53 193.77 C 485.48 191.29 479.21 189.18 472.69 188.43 M 539.05 188.91 C 539.78 191.10 540.66 193.24 541.51 195.40 C 542.14 195.44 543.41 195.53 544.04 195.57 C 542.77 193.08 541.10 190.82 539.05 188.91 M 348.64 197.48 C 346.79 197.47 344.95 197.46 343.11 197.47 C 343.66 200.48 344.37 203.48 344.57 206.55 C 345.65 206.55 346.74 206.56 347.84 206.56 C 347.56 203.90 347.29 201.24 347.11 198.57 C 350.57 198.43 353.68 199.85 356.43 201.82 C 356.39 197.48 356.38 193.14 356.34 188.81 C 352.82 190.76 350.19 193.78 348.64 197.48 M 585.47 189.99 C 585.76 193.22 586.32 196.48 587.48 199.52 C 589.27 203.19 592.63 205.74 595.94 207.97 C 595.96 204.19 593.55 201.18 591.88 197.99 C 590.18 195.00 588.88 191.45 585.47 189.99 M 365.37 191.84 C 366.46 194.64 367.35 197.56 368.97 200.12 C 371.78 202.75 375.93 202.88 379.54 203.46 C 376.44 198.04 371.38 193.67 365.37 191.84 M 617.76 218.10 C 618.40 217.86 619.69 217.38 620.33 217.13 C 622.44 212.67 624.36 208.07 625.11 203.15 C 623.78 203.24 622.47 203.33 621.16 203.44 C 621.58 199.02 622.53 194.00 618.80 190.62 C 613.59 198.93 615.47 209.17 617.76 218.10 M 336.81 198.53 C 337.57 198.59 339.09 198.71 339.85 198.77 C 339.71 196.98 339.55 195.19 339.33 193.42 C 338.23 194.99 337.41 196.72 336.81 198.53 M 475.12 195.85 C 475.76 201.09 478.17 206.26 482.21 209.73 C 484.94 209.68 487.38 208.22 489.90 207.31 C 484.38 204.28 480.09 199.63 475.12 195.85 M 522.67 214.54 C 530.47 218.07 538.84 220.55 545.82 225.67 C 545.64 224.74 545.47 223.81 545.30 222.89 C 538.80 219.71 534.24 212.87 526.55 212.39 C 530.40 207.90 536.41 207.10 541.53 204.82 C 533.98 203.03 525.41 207.17 522.67 214.54 M 554.94 204.00 C 556.42 206.67 558.22 209.15 560.39 211.31 C 561.03 207.60 558.23 204.98 554.94 204.00 M 498.48 206.36 C 498.47 209.26 498.45 212.17 498.49 215.07 C 504.45 210.14 511.95 208.07 519.47 207.01 C 512.58 205.59 505.46 206.63 498.48 206.36 M 587.54 205.98 C 588.74 209.53 590.69 212.80 593.74 215.07 C 593.50 212.89 593.79 210.43 592.20 208.68 C 590.90 207.39 589.15 206.76 587.54 205.98 M 369.58 207.09 C 369.46 208.92 369.36 210.76 369.27 212.59 C 371.58 213.60 373.92 214.81 376.52 214.83 C 380.56 215.18 384.34 213.29 388.35 213.16 C 388.49 215.51 388.60 217.87 388.74 220.23 C 394.22 222.02 400.07 221.68 405.75 221.48 C 404.19 221.08 402.58 220.88 400.99 220.70 C 396.37 216.03 391.55 211.30 385.53 208.48 C 380.28 207.47 374.86 208.04 369.58 207.09 M 537.25 210.42 C 538.00 212.09 539.80 212.86 541.18 213.94 C 544.49 216.06 547.02 219.11 549.78 221.86 C 550.06 216.74 547.31 212.18 545.91 207.40 C 542.88 207.97 539.92 208.87 537.25 210.42 M 578.04 211.13 C 579.07 212.94 580.13 214.73 581.28 216.49 C 581.85 213.20 581.91 209.84 581.40 206.54 C 580.24 208.05 579.14 209.59 578.04 211.13 M 617.69 229.70 C 621.47 226.41 623.49 221.55 627.56 218.55 C 630.03 216.43 633.17 215.25 636.43 215.29 C 637.52 212.68 638.95 210.05 638.57 207.12 C 629.66 212.24 620.02 219.02 617.69 229.70 M 421.08 214.15 C 421.26 223.18 427.32 231.72 435.90 234.66 C 437.24 233.84 438.59 233.03 439.96 232.25 C 438.41 225.73 430.81 219.97 434.57 212.91 C 438.97 218.80 440.52 226.17 444.70 232.16 C 443.02 233.52 441.38 234.93 439.79 236.39 C 445.18 236.67 450.64 236.57 455.86 235.04 C 460.91 233.53 465.96 235.96 471.05 235.35 C 475.65 234.82 479.89 237.12 484.38 237.71 C 482.12 234.15 480.12 229.78 475.90 228.20 C 472.99 227.02 470.76 224.62 467.73 223.69 C 468.54 228.03 473.03 229.78 475.85 232.63 C 473.59 232.79 471.25 232.89 469.20 231.79 C 465.11 229.96 460.67 229.27 456.24 229.07 C 456.38 230.49 456.54 231.91 456.68 233.34 C 451.57 231.46 446.29 229.05 442.81 224.71 C 441.30 223.04 443.18 221.17 443.82 219.57 C 443.23 215.41 441.11 211.14 436.93 209.65 C 431.22 208.53 425.89 211.48 421.08 214.15 M 478.34 209.43 C 478.72 212.50 480.20 215.25 482.30 217.47 C 483.03 214.02 481.16 211.23 478.34 209.43 M 508.26 215.24 C 506.03 217.19 502.96 217.28 500.18 217.73 C 500.20 219.93 500.28 222.13 500.42 224.34 C 504.77 222.68 507.86 219.02 511.82 216.71 C 514.62 214.94 517.74 213.80 520.82 212.63 C 520.23 211.52 519.65 210.42 519.07 209.32 C 514.85 210.00 511.51 212.68 508.26 215.24 M 636.92 222.91 C 638.80 222.23 641.49 222.07 642.06 219.73 C 643.01 216.19 642.70 212.44 642.06 208.88 C 639.88 213.37 638.62 218.23 636.92 222.91 M 583.40 213.63 C 583.47 214.79 583.54 215.95 583.62 217.11 C 584.13 217.26 585.16 217.57 585.67 217.72 C 585.53 215.70 585.38 213.68 585.20 211.66 C 584.75 212.15 583.85 213.14 583.40 213.63 M 553.47 212.91 C 553.56 218.66 555.08 224.50 558.43 229.24 C 559.21 223.35 556.76 217.65 553.47 212.91 M 471.64 221.99 C 472.71 221.51 473.79 221.04 474.88 220.56 C 474.80 217.79 474.56 214.96 472.88 212.64 C 471.34 215.54 471.39 218.81 471.64 221.99 M 598.38 215.41 C 598.13 217.56 597.86 219.70 597.61 221.84 C 596.41 222.02 595.22 222.21 594.05 222.41 C 591.03 222.66 589.86 225.99 588.00 227.91 C 586.02 225.99 584.12 224.00 582.28 221.96 C 579.86 223.22 577.76 224.97 576.08 227.10 C 572.20 231.86 566.63 235.02 563.40 240.32 C 569.02 238.07 573.05 233.33 578.22 230.35 C 580.52 228.79 583.40 229.43 585.99 229.57 C 582.24 235.34 575.90 238.21 569.84 240.88 C 565.61 242.69 562.05 245.62 558.57 248.56 C 555.39 251.16 551.00 250.52 547.27 251.67 C 552.78 253.34 558.62 252.15 564.28 252.34 C 564.39 250.86 564.51 249.39 564.66 247.92 C 571.40 247.53 575.02 241.38 580.09 237.87 C 583.76 235.06 588.52 234.58 592.58 232.55 C 594.62 230.71 595.87 228.20 597.39 225.94 C 598.06 228.91 598.72 231.94 598.47 235.01 C 598.31 239.41 596.25 243.40 595.55 247.70 C 598.85 247.22 602.21 245.35 603.19 241.96 C 604.10 237.31 603.56 232.49 602.27 227.98 C 600.73 223.14 601.57 218.01 601.46 213.04 C 600.42 213.82 599.39 214.61 598.38 215.41 M 476.63 220.71 C 477.50 220.60 479.22 220.40 480.08 220.29 C 479.54 218.09 478.77 215.95 477.83 213.89 C 477.07 216.09 476.73 218.39 476.63 220.71 M 486.06 215.23 C 486.45 217.41 486.95 219.56 487.46 221.71 C 487.04 222.20 486.20 223.18 485.78 223.67 C 483.80 223.91 481.83 224.17 479.87 224.46 C 483.83 229.17 487.95 233.77 492.55 237.88 C 493.57 230.19 491.42 222.68 489.64 215.29 C 488.44 215.27 487.24 215.25 486.06 215.23 M 589.69 214.77 C 589.39 216.13 589.10 217.49 588.82 218.85 C 589.40 218.77 590.56 218.60 591.13 218.51 C 590.65 217.26 590.18 216.01 589.69 214.77 M 644.42 217.53 C 644.20 220.28 644.12 223.04 644.20 225.80 C 645.32 226.20 646.45 226.59 647.58 226.99 C 647.65 223.70 647.62 220.42 647.59 217.13 C 646.52 217.27 645.47 217.40 644.42 217.53 M 652.34 216.00 C 652.92 218.28 652.41 221.99 655.62 222.26 C 655.11 219.89 655.21 216.78 652.34 216.00 M 564.14 224.63 C 564.08 227.58 564.12 230.53 564.34 233.48 C 567.98 229.72 571.30 225.66 575.05 222.00 C 576.43 220.89 576.44 219.04 576.84 217.46 C 572.45 219.59 568.70 222.83 564.14 224.63 M 362.41 218.87 C 367.83 222.11 374.14 224.31 380.54 223.64 C 376.25 218.54 368.55 218.40 362.41 218.87 M 521.42 218.86 C 519.55 223.55 521.30 229.41 525.79 231.92 C 526.38 230.44 526.93 228.95 527.51 227.47 C 531.51 226.44 535.61 225.91 539.65 225.06 C 533.76 222.45 527.34 221.40 521.42 218.86 M 503.07 229.05 C 503.22 236.25 506.15 242.92 507.89 249.81 C 508.93 253.40 509.02 257.18 509.64 260.85 C 512.20 255.25 515.11 249.74 516.76 243.79 C 514.40 243.64 512.05 243.52 509.70 243.37 C 509.33 241.41 509.13 239.41 508.53 237.51 C 507.09 235.46 505.18 233.58 505.10 230.92 C 507.86 229.52 511.27 228.74 513.03 225.97 C 514.30 224.08 514.32 221.72 514.57 219.55 C 510.47 222.39 507.04 226.04 503.07 229.05 M 350.80 220.60 C 353.15 224.60 356.92 227.80 361.38 229.18 C 365.49 229.77 370.53 230.32 373.40 226.64 C 369.70 226.26 365.94 226.30 362.30 225.47 C 358.34 224.15 354.85 221.70 350.80 220.60 M 650.08 223.69 C 648.76 225.10 651.39 227.08 652.60 225.75 C 653.91 224.25 651.32 222.41 650.08 223.69 M 613.19 242.05 C 622.40 240.00 629.67 233.48 638.54 230.49 C 637.55 228.44 636.82 226.29 636.19 224.12 C 634.52 226.14 632.71 228.05 630.81 229.86 C 630.28 227.93 629.80 226.01 629.33 224.08 C 623.66 229.71 615.16 233.67 613.19 242.05 M 379.64 232.65 C 378.76 234.95 379.23 237.53 379.09 239.95 C 384.03 234.67 391.27 231.95 395.30 225.80 C 389.45 225.56 383.02 227.59 379.64 232.65 M 406.13 227.31 C 402.54 227.23 399.31 229.38 396.94 231.90 C 394.30 234.24 394.75 238.67 396.71 241.30 C 402.23 245.51 409.12 247.66 413.99 252.79 C 418.56 251.37 422.91 249.39 427.18 247.23 C 429.09 246.16 431.33 246.46 433.43 246.43 C 434.24 245.52 435.06 244.63 435.88 243.73 C 434.92 242.56 433.96 241.39 433.03 240.21 C 429.32 241.69 425.66 243.30 422.12 245.15 C 417.68 247.69 412.36 246.84 407.52 246.43 C 408.43 245.09 409.04 243.38 410.59 242.62 C 416.03 239.38 422.62 239.98 428.69 239.36 C 428.57 238.50 428.45 237.65 428.34 236.80 C 424.53 235.89 420.51 234.60 416.64 235.95 C 410.33 237.83 404.02 241.98 397.21 239.80 C 397.15 239.46 397.03 238.79 396.97 238.45 C 402.44 232.88 411.14 233.96 418.18 232.21 C 414.70 229.58 410.62 227.29 406.13 227.31 M 532.20 231.24 C 532.19 232.51 532.19 233.78 532.19 235.06 C 536.82 232.83 541.54 230.81 546.05 228.34 C 541.28 228.40 536.70 229.79 532.20 231.24 M 512.14 235.92 C 513.21 235.72 514.29 235.53 515.38 235.33 C 516.08 236.58 516.83 237.81 517.63 239.02 C 517.61 235.17 515.93 231.59 515.13 227.88 C 513.45 230.27 512.17 232.94 512.14 235.92 M 540.61 238.59 C 537.78 244.55 534.51 250.30 531.92 256.37 C 533.72 255.83 535.70 255.46 537.08 254.05 C 542.55 249.18 543.90 241.24 549.47 236.44 C 551.01 234.90 553.32 234.80 555.33 234.34 C 552.46 240.58 546.84 245.03 544.17 251.38 C 550.40 248.73 557.42 243.63 556.90 236.04 C 557.24 232.88 554.18 230.05 551.05 230.64 C 546.56 231.32 542.48 234.44 540.61 238.59 M 521.34 232.44 C 521.37 234.24 521.48 236.03 521.63 237.83 C 522.35 237.34 523.80 236.37 524.52 235.89 C 523.56 234.64 522.53 233.45 521.34 232.44 M 370.48 250.52 C 372.51 252.35 375.21 253.21 377.24 255.04 C 377.57 256.71 377.71 258.41 377.92 260.11 C 379.10 251.28 386.57 245.44 389.19 237.25 C 384.43 242.37 379.32 247.16 374.63 252.35 C 373.80 250.73 372.48 249.27 372.25 247.42 C 371.54 242.34 376.05 238.38 375.70 233.29 C 369.52 236.50 368.22 244.47 370.48 250.52 M 625.06 241.40 C 629.88 242.34 634.81 242.45 639.71 242.59 C 639.51 240.50 639.31 238.42 639.12 236.33 C 633.98 236.16 628.87 237.92 625.06 241.40 M 578.43 243.33 C 576.40 244.09 575.12 245.86 574.07 247.65 C 580.29 246.52 586.02 243.01 592.53 243.44 C 592.52 241.60 592.52 239.76 592.51 237.92 C 587.85 239.80 583.04 241.32 578.43 243.33 M 449.38 243.43 C 445.17 249.19 444.95 256.82 441.09 262.82 C 446.18 262.70 451.98 261.99 455.95 265.95 C 453.99 266.95 452.15 268.51 449.86 268.59 C 445.03 268.86 440.46 266.82 435.64 266.81 C 436.94 268.01 438.14 269.64 440.06 269.79 C 445.51 270.61 450.86 271.95 456.32 272.68 C 458.34 269.09 459.56 265.06 459.60 260.92 C 458.90 259.23 457.69 257.82 456.66 256.32 C 454.54 258.31 452.33 260.26 449.76 261.65 C 449.42 261.28 448.74 260.52 448.40 260.14 C 449.22 251.39 457.86 246.82 461.85 239.67 C 457.47 239.55 452.23 239.46 449.38 243.43 M 466.66 240.73 C 461.18 244.17 458.69 250.48 456.66 256.32 C 457.99 256.27 459.33 256.20 460.67 256.12 C 460.68 254.49 460.69 252.87 460.72 251.25 C 462.80 251.47 464.88 251.66 466.97 251.76 C 466.07 250.07 464.72 248.72 463.21 247.58 C 466.98 242.47 474.48 245.01 478.84 240.75 C 474.84 240.19 470.59 239.56 466.66 240.73 M 525.68 239.95 C 525.24 241.69 525.26 243.65 524.28 245.21 C 522.07 247.31 518.93 248.68 517.83 251.72 C 514.94 258.48 511.26 265.07 510.44 272.50 C 517.11 272.87 522.08 267.79 525.82 262.93 C 529.25 255.20 532.65 247.44 535.25 239.37 C 532.05 239.42 528.85 239.56 525.68 239.95 M 430.59 258.06 C 429.78 261.93 434.03 263.96 437.31 263.31 C 437.57 260.54 437.66 257.62 439.11 255.16 C 441.08 251.22 444.47 247.74 444.68 243.13 C 438.39 246.19 432.90 251.35 430.59 258.06 M 394.23 243.30 C 394.70 246.06 394.63 249.23 396.57 251.48 C 399.53 255.13 403.70 258.45 408.70 257.95 C 408.87 257.25 409.22 255.84 409.40 255.14 C 403.40 252.48 399.19 247.36 394.23 243.30 M 477.74 246.59 C 475.22 247.85 471.46 248.55 471.07 251.90 C 475.24 251.16 479.31 248.45 483.65 249.72 C 487.56 250.87 491.28 252.55 495.17 253.78 C 493.52 250.31 491.12 246.98 487.52 245.35 C 484.33 243.63 480.81 245.54 477.74 246.59 M 586.70 247.66 C 585.18 249.08 585.68 251.34 585.41 253.19 C 588.27 251.17 590.56 248.31 591.07 244.76 C 589.56 245.65 588.00 246.48 586.70 247.66 M 388.96 246.48 C 386.75 251.75 384.74 257.11 382.19 262.23 C 383.84 263.88 385.54 265.49 387.23 267.11 C 388.34 260.37 392.85 253.10 388.96 246.48 M 620.73 247.79 C 626.21 251.14 632.42 253.19 638.80 253.91 C 639.15 253.09 639.50 252.27 639.86 251.46 C 638.34 251.16 636.83 250.87 635.32 250.60 C 635.30 249.21 635.28 247.83 635.27 246.45 C 630.40 246.54 625.40 246.12 620.73 247.79 M 359.21 249.61 C 359.36 251.55 359.54 253.50 359.82 255.43 C 361.46 253.37 362.77 251.05 363.42 248.48 C 362.01 248.85 360.61 249.23 359.21 249.61 M 598.17 253.20 C 598.89 253.98 599.61 254.76 600.33 255.56 C 608.90 255.80 617.54 254.99 626.02 256.67 C 625.47 258.39 624.81 260.07 624.17 261.76 C 628.56 261.43 632.93 260.66 637.05 259.07 C 629.95 256.60 623.92 251.90 616.89 249.31 C 610.34 247.00 603.92 250.36 598.17 253.20 M 411.48 260.30 C 412.72 261.88 413.92 263.48 415.14 265.08 C 419.46 261.58 423.95 257.62 425.35 252.00 C 420.37 254.14 416.16 257.62 411.48 260.30 M 477.29 253.41 C 476.31 254.65 475.51 256.01 474.68 257.34 C 476.36 256.68 478.05 256.05 479.76 255.48 C 479.41 257.75 479.01 260.02 478.71 262.31 C 481.06 261.09 484.91 258.59 483.56 255.56 C 481.69 254.35 479.49 253.67 477.29 253.41 M 393.66 253.59 C 393.41 257.83 392.98 262.18 393.81 266.37 C 395.88 269.50 399.15 271.53 402.07 273.79 C 400.40 268.83 398.85 263.83 397.19 258.87 C 396.60 256.76 395.07 255.18 393.66 253.59 M 489.65 255.81 C 488.14 263.12 481.50 267.49 478.93 274.25 C 485.09 270.63 489.19 263.57 496.83 262.63 C 494.93 271.92 483.31 272.32 479.00 279.82 C 486.29 278.78 492.11 273.05 499.74 273.25 C 500.31 269.16 500.05 264.88 498.15 261.15 C 496.90 257.64 492.99 256.36 489.65 255.81 M 549.84 259.05 C 555.70 259.66 561.60 259.57 567.49 259.64 C 567.57 258.48 567.66 257.33 567.76 256.18 C 561.63 255.93 555.61 257.01 549.84 259.05 M 577.12 267.58 C 580.74 266.89 584.20 265.64 587.64 264.36 C 586.36 269.76 582.39 274.00 580.04 278.98 C 580.98 280.84 581.89 282.73 582.76 284.64 C 584.15 284.23 585.54 283.80 586.94 283.39 C 585.67 282.20 584.38 281.03 583.11 279.86 C 585.37 277.70 587.03 275.12 587.43 271.96 C 589.14 273.16 590.85 274.38 592.57 275.58 C 592.44 273.43 592.90 271.07 591.73 269.13 C 589.17 264.43 585.83 260.21 582.66 255.91 C 579.65 259.14 577.93 263.28 577.12 267.58 M 599.65 258.43 C 601.52 261.11 603.91 263.69 607.21 264.48 C 612.56 265.30 617.81 263.52 622.89 262.08 C 615.31 260.09 607.57 257.82 599.65 258.43 M 401.50 260.25 C 402.94 263.95 405.02 267.35 406.98 270.79 C 408.65 269.92 410.30 269.03 411.95 268.11 C 411.82 267.51 411.56 266.30 411.43 265.69 C 408.03 264.03 404.88 261.93 401.50 260.25 M 545.63 261.83 C 552.05 265.10 558.72 267.97 565.70 269.82 C 565.70 268.43 565.70 267.04 565.71 265.65 C 561.19 265.41 556.92 263.99 552.79 262.23 C 550.54 261.10 548.00 261.35 545.63 261.83 M 534.43 263.70 C 534.39 264.59 534.37 265.47 534.34 266.36 C 537.59 267.50 540.86 268.68 544.34 268.85 C 544.43 266.30 544.50 263.76 544.55 261.21 C 541.18 262.07 537.82 262.98 534.43 263.70 M 474.81 263.45 C 475.33 266.00 476.47 268.35 477.95 270.49 C 478.79 267.85 479.54 265.18 480.23 262.49 C 478.42 262.80 476.61 263.13 474.81 263.45 M 462.82 265.25 C 461.97 268.09 461.55 271.03 461.46 273.99 C 461.31 278.22 459.74 282.21 459.27 286.39 C 462.60 282.92 463.06 277.96 464.84 273.70 C 466.07 271.17 465.61 268.34 465.45 265.65 C 464.79 265.55 463.48 265.35 462.82 265.25 M 469.96 264.20 C 469.42 268.35 470.14 272.56 469.49 276.69 C 467.86 280.37 465.51 283.72 464.26 287.58 C 468.27 284.89 471.42 280.92 473.04 276.36 C 473.95 272.18 473.93 266.86 469.96 264.20 M 597.48 265.42 C 597.56 268.91 597.66 272.40 597.63 275.90 C 599.60 275.35 601.57 274.76 603.54 274.18 C 602.64 270.60 600.55 267.50 597.48 265.42 M 422.34 267.91 C 419.59 272.48 418.48 277.75 417.90 282.99 C 417.51 286.94 414.50 289.78 412.57 293.02 C 412.49 294.63 413.29 295.25 414.95 294.86 C 419.51 295.07 422.42 290.47 424.35 286.93 C 425.48 280.62 424.68 273.90 422.34 267.91 M 430.53 269.23 C 429.16 278.05 435.30 285.76 442.45 290.08 C 438.22 283.24 437.46 274.26 430.53 269.23 M 405.91 276.64 C 406.97 279.32 408.41 281.82 409.85 284.31 C 410.50 284.10 411.79 283.67 412.44 283.46 C 414.26 279.62 415.87 275.67 416.60 271.46 C 412.85 272.78 409.38 274.73 405.91 276.64 M 525.51 272.42 C 522.59 274.24 523.53 277.98 522.56 280.80 C 521.20 284.52 519.34 288.03 517.97 291.75 C 521.15 289.33 523.92 286.37 525.65 282.73 C 527.63 278.61 531.11 275.60 534.23 272.38 C 531.36 272.05 528.28 271.15 525.51 272.42 M 384.09 276.72 C 386.49 276.67 388.89 276.62 391.30 276.51 C 389.94 275.44 388.58 274.39 387.19 273.36 C 386.16 274.48 385.13 275.61 384.09 276.72 M 440.92 274.09 C 446.07 277.49 452.76 278.84 456.20 284.43 C 454.14 284.50 451.96 285.00 449.97 284.29 C 447.00 282.68 444.57 280.27 441.95 278.18 C 443.96 282.63 446.15 287.04 447.37 291.80 C 449.63 291.63 452.01 291.94 454.18 291.15 C 458.22 287.84 456.36 282.05 456.48 277.56 C 451.37 276.10 446.29 274.23 440.92 274.09 M 538.49 274.37 C 536.55 277.41 534.60 280.54 531.78 282.85 C 529.18 284.96 526.68 287.22 524.84 290.04 C 527.89 288.90 530.82 287.37 533.25 285.18 C 536.33 282.42 540.06 280.62 543.69 278.70 C 541.99 277.20 540.23 275.79 538.49 274.37 M 549.58 274.56 C 554.03 280.11 561.08 282.20 567.44 284.70 C 567.99 281.14 567.63 277.53 565.70 274.43 C 560.33 274.23 554.95 274.20 549.58 274.56 M 471.63 288.44 C 479.65 288.63 487.32 285.30 495.39 286.61 C 495.53 287.64 495.68 288.68 495.84 289.72 C 492.61 291.79 488.94 293.31 485.05 293.32 C 478.57 293.43 472.07 293.11 465.61 293.83 C 468.54 295.39 471.62 296.81 475.00 297.00 C 480.90 297.52 486.40 299.94 491.51 302.81 C 491.25 303.41 490.71 304.62 490.44 305.23 C 488.68 305.61 486.91 306.01 485.17 306.47 C 487.44 307.73 489.81 308.80 492.19 309.84 C 496.01 302.38 497.76 294.14 499.48 286.00 C 499.93 283.08 499.91 280.11 499.99 277.17 C 491.50 283.33 479.16 280.72 471.63 288.44 M 602.08 277.44 C 600.19 277.44 600.07 280.66 602.01 280.71 C 603.82 280.71 603.92 277.49 602.08 277.44 M 509.06 297.20 C 514.65 293.70 518.16 287.07 517.66 280.47 C 512.95 284.78 509.70 290.83 509.06 297.20 M 531.87 289.55 C 538.11 289.82 544.10 287.55 550.36 287.62 C 549.37 285.54 548.33 283.51 547.33 281.44 C 542.59 284.87 537.11 287.03 531.87 289.55 M 605.49 281.65 C 605.25 284.20 605.21 286.76 605.47 289.31 C 606.51 289.42 607.56 289.54 608.62 289.67 C 608.48 286.93 608.17 284.21 607.67 281.52 C 607.12 281.55 606.03 281.62 605.49 281.65 M 613.04 280.95 C 614.21 282.53 615.60 283.92 617.12 285.17 C 617.23 283.86 617.35 282.54 617.47 281.23 C 616.36 281.16 614.15 281.02 613.04 280.95 M 610.67 283.81 C 610.54 285.14 610.42 286.47 610.31 287.81 C 611.52 287.67 612.75 287.53 613.98 287.39 C 612.86 286.21 611.77 285.01 610.67 283.81 M 558.02 286.59 C 561.47 294.37 572.01 297.15 573.05 306.17 C 565.61 304.42 562.29 297.05 557.28 292.10 C 556.84 295.84 557.43 299.92 560.61 302.35 C 566.01 306.46 572.55 308.71 578.71 311.42 C 577.62 303.64 574.65 295.67 568.47 290.51 C 565.52 288.04 561.58 287.67 558.02 286.59 M 431.49 287.76 C 432.18 293.52 434.96 298.67 436.66 304.14 C 437.74 307.24 437.57 310.57 437.97 313.79 C 439.97 309.93 441.97 305.55 441.11 301.10 C 438.92 296.04 435.47 291.55 431.49 287.76 M 539.04 292.36 C 533.47 291.50 526.97 291.58 522.43 295.33 C 527.99 295.46 533.66 293.60 539.09 295.57 C 537.58 297.14 536.07 298.72 534.61 300.34 C 538.16 300.56 541.99 301.15 545.28 299.41 C 548.59 298.03 551.83 295.44 551.78 291.52 C 547.59 292.42 543.30 292.94 539.04 292.36 M 422.17 295.32 C 420.57 298.26 425.56 295.47 422.17 295.32 M 427.01 300.20 C 428.22 300.73 429.44 301.28 430.66 301.82 C 430.52 299.80 430.37 297.78 430.17 295.76 C 429.12 297.24 428.07 298.72 427.01 300.20 M 446.94 297.31 C 450.27 302.33 456.27 304.34 460.34 308.60 C 462.10 310.60 464.45 311.73 467.14 311.83 C 464.05 303.45 454.74 299.96 446.94 297.31 M 460.07 296.65 C 463.91 302.51 471.19 304.99 477.97 304.37 C 472.61 300.76 466.74 296.85 460.07 296.65 M 406.53 299.22 C 406.66 300.64 407.32 300.88 408.49 299.94 C 408.35 298.51 407.69 298.26 406.53 299.22 M 503.65 317.34 C 507.19 312.77 509.52 307.14 514.50 303.83 C 516.97 305.78 519.84 307.11 522.49 308.79 C 523.64 307.47 524.79 306.15 525.94 304.82 C 522.56 304.21 518.35 304.15 517.16 300.19 C 508.64 300.27 503.29 309.59 503.65 317.34 M 411.31 304.32 C 411.27 305.49 411.24 306.67 411.21 307.85 C 414.44 307.89 417.35 306.56 420.04 304.89 C 418.49 303.96 417.14 302.15 415.18 302.30 C 413.84 302.86 412.59 303.63 411.31 304.32 M 446.37 302.87 C 448.93 307.71 452.93 311.46 456.92 315.11 C 460.31 318.18 461.74 322.63 462.79 326.95 C 454.78 326.29 454.66 316.26 449.20 312.19 C 450.47 317.64 453.06 322.80 452.71 328.55 C 459.67 329.85 466.91 329.27 473.48 326.54 C 473.59 325.73 473.81 324.12 473.92 323.31 C 472.06 323.90 470.20 324.52 468.35 325.14 C 468.18 324.30 467.83 322.61 467.66 321.77 C 466.20 321.63 464.74 321.49 463.29 321.35 C 463.36 319.31 463.50 317.28 463.66 315.26 C 457.33 312.43 452.26 307.75 447.73 302.61 C 447.39 302.67 446.71 302.80 446.37 302.87 M 526.16 305.39 C 526.73 306.82 527.30 308.25 527.89 309.69 C 531.31 308.09 534.73 306.45 538.01 304.55 C 534.05 304.04 529.96 304.03 526.16 305.39 M 469.92 306.10 C 470.26 308.53 471.04 310.87 472.04 313.11 C 473.02 311.46 474.01 309.82 474.98 308.17 C 473.29 307.47 471.61 306.77 469.92 306.10 M 527.73 314.11 C 530.00 315.09 532.52 315.88 534.98 315.05 C 540.03 313.61 545.29 310.51 546.96 305.21 C 540.73 308.57 533.99 310.82 527.73 314.11 M 551.97 306.84 C 550.77 309.77 549.74 312.75 548.67 315.72 C 549.39 316.37 550.12 317.02 550.86 317.68 C 552.11 316.91 553.05 315.11 554.70 315.34 C 555.73 317.60 556.68 319.94 558.24 321.91 C 558.41 319.31 558.43 316.71 558.48 314.11 C 557.37 314.33 556.17 314.48 555.15 313.89 C 553.50 312.02 554.71 308.70 554.38 306.26 C 553.57 306.46 552.76 306.65 551.97 306.84 M 558.95 305.82 C 560.24 308.48 561.40 311.63 564.17 313.11 C 566.11 313.73 568.16 313.07 570.14 312.91 C 567.54 309.11 563.36 306.81 558.95 305.82 M 414.31 314.14 C 417.47 313.53 419.42 311.01 420.13 307.99 C 417.28 309.03 414.92 311.05 414.31 314.14 M 443.72 307.39 C 442.78 314.68 441.44 321.92 439.02 328.89 C 441.90 328.87 444.78 328.77 447.66 328.64 C 447.41 323.74 446.66 318.89 446.43 313.99 C 446.40 311.51 445.00 309.39 443.72 307.39 M 427.51 309.76 C 428.18 311.32 428.79 312.90 429.37 314.50 C 430.16 314.61 431.73 314.82 432.51 314.92 C 432.33 313.05 432.12 311.18 431.87 309.32 C 430.41 309.46 428.96 309.61 427.51 309.76 M 418.02 317.04 C 419.29 317.41 420.56 317.78 421.84 318.15 C 421.66 316.18 421.49 314.22 421.24 312.26 C 420.13 313.83 419.06 315.43 418.02 317.04 M 426.80 318.73 C 426.81 316.65 426.69 314.58 426.47 312.52 C 425.15 314.64 423.56 317.43 426.80 318.73 M 481.02 315.33 C 482.42 317.03 483.70 318.83 485.15 320.50 C 487.83 319.26 488.49 316.03 489.28 313.47 C 487.12 313.10 484.96 312.73 482.80 312.37 C 482.20 313.35 481.62 314.34 481.02 315.33 M 511.53 313.56 C 508.44 317.04 505.63 320.77 503.47 324.91 C 505.41 327.62 507.70 330.38 511.05 331.31 C 515.31 329.91 518.86 327.01 522.73 324.81 C 522.70 324.05 522.65 322.55 522.62 321.80 C 520.52 323.16 518.44 324.55 516.30 325.83 C 515.79 324.05 515.47 322.22 515.29 320.38 C 513.51 319.98 511.73 319.58 509.98 319.15 C 511.10 317.80 512.28 316.48 513.50 315.20 C 512.83 314.66 512.18 314.11 511.53 313.56 M 539.95 320.87 C 537.00 324.62 533.42 328.01 531.59 332.52 C 534.73 333.53 537.95 334.27 541.22 334.79 C 540.20 327.41 545.99 321.70 546.43 314.57 C 543.97 316.35 541.82 318.49 539.95 320.87 M 564.02 316.94 C 562.71 317.95 564.21 320.56 565.71 319.48 C 567.03 318.47 565.50 315.85 564.02 316.94 M 520.63 332.47 C 522.61 332.56 524.60 332.62 526.59 332.66 C 529.71 328.19 533.61 324.35 536.81 319.94 C 530.14 322.15 525.46 327.68 520.63 332.47 M 461.69 333.57 C 461.58 334.07 461.36 335.05 461.25 335.54 C 465.50 336.09 469.93 335.91 473.19 332.80 C 469.32 332.42 465.50 333.04 461.69 333.57 Z" />
<path fill="#0d0d0d" opacity="1.00" d=" M 447.20 17.15 C 451.36 20.48 451.78 26.40 453.49 31.15 C 449.76 27.49 443.89 23.05 447.20 17.15 Z" />
<path fill="#0d0d0d" opacity="1.00" d=" M 432.58 29.28 C 435.31 26.06 437.53 22.40 440.70 19.57 C 439.22 24.02 436.71 28.11 432.92 30.97 C 432.84 30.55 432.67 29.70 432.58 29.28 Z" />
<path fill="#0d0d0d" opacity="1.00" d=" M 455.58 25.68 C 456.52 25.58 457.47 25.48 458.42 25.37 C 458.48 27.87 458.58 30.38 458.66 32.88 C 457.62 32.07 456.58 31.25 455.54 30.45 C 455.54 28.86 455.55 27.27 455.58 25.68 Z" />
<path fill="#0d0d0d" opacity="1.00" d=" M 441.99 27.07 C 442.99 25.98 444.53 26.71 445.76 26.83 C 444.26 29.81 441.46 31.83 439.82 34.71 C 437.97 37.88 435.55 40.63 432.96 43.19 C 441.36 46.03 448.96 50.67 455.85 56.20 C 455.12 56.47 453.67 57.01 452.94 57.28 C 446.20 51.57 438.45 45.05 429.02 45.90 C 421.24 46.79 416.85 53.88 410.44 57.39 C 408.28 58.78 407.58 61.42 406.49 63.60 C 405.72 63.68 404.18 63.85 403.40 63.94 C 403.81 56.07 411.52 51.75 418.42 50.33 C 418.52 48.62 418.62 46.91 418.72 45.21 C 414.81 45.59 410.84 46.21 407.41 48.25 C 402.53 50.41 402.49 56.52 399.53 60.38 C 399.44 58.45 399.40 56.52 399.34 54.59 C 393.86 57.79 390.53 63.45 388.51 69.30 C 388.08 71.90 384.93 71.17 383.06 71.82 C 386.86 64.18 391.31 56.47 398.30 51.31 C 402.90 47.71 408.40 45.60 413.65 43.17 C 410.68 42.20 407.67 41.29 404.85 39.92 C 408.47 39.02 412.24 38.72 415.76 37.41 C 418.42 36.64 421.08 35.35 423.93 35.64 C 427.11 36.00 430.28 37.08 433.51 36.55 C 437.01 34.04 438.68 29.79 441.99 27.07 M 416.26 42.07 C 420.81 43.09 425.59 43.03 430.15 42.06 C 425.78 40.24 420.55 39.77 416.26 42.07 Z" />
<path fill="#0d0d0d" opacity="1.00" d=" M 584.63 35.45 C 585.68 31.85 588.03 28.84 590.34 25.96 C 592.35 30.87 589.46 36.39 585.96 39.86 C 585.43 38.45 584.06 37.07 584.63 35.45 Z" />
<path fill="#0d0d0d" opacity="1.00" d=" M 445.21 32.01 C 447.59 34.11 449.93 36.50 450.40 39.80 C 448.69 38.69 447.01 37.54 445.29 36.46 C 445.25 34.97 445.22 33.49 445.21 32.01 Z" />
<path fill="#0d0d0d" opacity="1.00" d=" M 596.31 33.36 C 597.39 31.95 599.24 31.63 600.80 30.98 C 600.21 36.88 596.70 41.82 592.71 45.96 C 590.02 41.40 593.37 36.78 596.31 33.36 Z" />
<path fill="#0d0d0d" opacity="1.00" d=" M 456.62 36.56 C 458.66 36.60 460.69 36.54 462.73 36.45 C 461.99 40.19 461.16 43.93 460.06 47.58 C 458.98 43.88 458.06 40.13 456.62 36.56 Z" />
<path fill="#0d0d0d" opacity="1.00" d=" M 599.52 43.70 C 603.48 41.30 607.69 38.74 612.53 39.10 C 609.92 44.21 604.73 47.53 599.20 48.64 C 599.30 46.99 599.41 45.35 599.52 43.70 Z" />
<path fill="#0d0d0d" opacity="1.00" d=" M 468.59 71.86 C 469.28 61.46 465.37 50.07 470.93 40.50 C 473.92 46.60 472.57 53.70 470.18 59.75 C 468.09 64.73 470.34 70.40 473.57 74.35 C 474.92 75.80 474.74 77.86 474.95 79.69 C 472.30 79.40 468.85 80.48 467.06 77.92 C 464.10 74.03 461.56 69.79 457.84 66.52 C 458.58 65.06 459.28 63.58 459.97 62.10 C 461.20 65.39 463.02 68.40 464.82 71.39 C 465.76 71.51 467.65 71.74 468.59 71.86 Z" />
<path fill="#0d0d0d" opacity="1.00" d=" M 476.42 51.36 C 476.40 46.44 480.38 43.22 484.21 40.90 C 482.50 44.92 480.81 49.59 476.42 51.36 Z" />
<path fill="#0d0d0d" opacity="1.00" d=" M 450.36 42.93 C 451.39 43.48 452.42 44.04 453.46 44.60 C 453.53 45.63 453.61 46.66 453.70 47.70 C 452.62 47.64 451.55 47.59 450.48 47.54 C 450.43 46.00 450.39 44.46 450.36 42.93 Z" />
<path fill="#0d0d0d" opacity="1.00" d=" M 384.82 50.65 C 387.33 45.24 394.27 44.32 399.11 46.99 C 394.46 48.62 389.83 50.60 384.82 50.65 Z" />
<path fill="#0d0d0d" opacity="1.00" d=" M 422.46 55.46 C 425.18 53.12 428.67 52.03 432.09 51.17 C 431.31 53.18 430.93 55.68 428.86 56.83 C 425.50 59.13 422.18 61.50 418.98 64.01 C 424.51 66.93 428.95 71.37 434.20 74.70 C 431.49 74.69 428.58 74.51 426.57 72.44 C 423.38 69.15 419.29 67.04 415.18 65.15 C 417.73 62.01 419.26 58.06 422.46 55.46 Z" />
<path fill="#0d0d0d" opacity="1.00" d=" M 480.88 59.41 C 482.88 57.38 485.05 55.52 487.20 53.64 C 487.37 55.22 487.55 56.79 487.72 58.37 C 485.53 59.20 483.15 61.11 480.88 59.41 Z" />
<path fill="#0d0d0d" opacity="1.00" d=" M 382.91 58.19 C 385.95 57.24 388.64 54.97 391.99 55.39 C 389.32 57.71 386.27 59.54 383.12 61.13 C 378.90 63.18 374.79 66.23 369.85 65.81 C 371.58 63.58 373.30 61.23 375.72 59.70 C 377.85 58.27 380.52 58.70 382.91 58.19 Z" />
<path fill="#0d0d0d" opacity="1.00" d=" M 474.68 53.80 C 476.74 55.41 478.91 57.05 480.27 59.33 C 480.67 63.82 479.95 68.36 480.64 72.83 C 481.15 75.36 481.92 77.83 482.42 80.36 C 478.09 77.53 478.29 71.87 476.34 67.56 C 474.40 63.25 474.21 58.44 474.68 53.80 Z" />
<path fill="#0d0d0d" opacity="1.00" d=" M 525.17 76.35 C 527.08 68.61 527.16 58.21 535.60 54.45 C 535.99 58.96 533.67 62.97 531.96 66.97 C 530.41 70.55 528.29 73.94 525.17 76.35 Z" />
<path fill="#0d0d0d" opacity="1.00" d=" M 436.40 58.79 C 443.70 57.34 450.36 61.36 456.04 65.42 C 451.36 66.06 446.77 64.71 442.22 63.88 C 439.41 63.53 437.94 60.82 436.40 58.79 Z" />
<path fill="#0d0d0d" opacity="1.00" d=" M 483.93 62.65 C 487.02 62.17 489.92 61.01 492.50 59.23 C 492.84 59.96 493.52 61.40 493.86 62.12 C 492.62 63.51 491.36 64.87 490.12 66.25 C 491.59 72.72 493.35 79.12 495.44 85.42 C 496.01 87.20 496.30 89.05 496.34 90.92 C 494.29 87.53 492.07 84.22 490.36 80.64 C 487.57 74.92 483.90 69.26 483.93 62.65 Z" />
<path fill="#0d0d0d" opacity="1.00" d=" M 428.19 61.31 C 432.43 61.76 436.23 63.83 439.48 66.50 C 442.87 69.35 446.92 71.80 448.82 75.99 C 444.62 74.48 440.80 72.15 436.91 70.00 C 433.34 67.92 429.19 65.72 428.19 61.31 Z" />
<path fill="#0d0d0d" opacity="1.00" d=" M 393.42 70.86 C 393.77 67.26 396.52 64.38 399.77 63.04 C 398.97 67.29 397.91 71.52 396.06 75.46 C 395.20 73.93 393.65 72.64 393.42 70.86 Z" />
<path fill="#0d0d0d" opacity="1.00" d=" M 400.65 67.34 C 403.10 68.49 405.59 69.55 408.09 70.58 C 405.57 70.61 403.06 70.65 400.55 70.51 C 400.57 69.45 400.61 68.40 400.65 67.34 Z" />
<path fill="#0d0d0d" opacity="1.00" d=" M 368.06 71.91 C 370.86 68.52 375.21 69.35 379.09 69.67 C 376.99 71.92 374.89 74.16 372.74 76.36 C 371.13 74.93 369.59 73.42 368.06 71.91 Z" />
<path fill="#0d0d0d" opacity="1.00" d=" M 373.50 79.61 C 377.07 78.14 379.85 75.38 382.77 72.94 C 381.96 76.56 380.89 80.11 380.14 83.73 C 383.54 83.66 386.85 82.84 389.94 81.43 C 389.02 79.06 387.95 76.75 386.94 74.43 C 387.68 74.47 389.15 74.55 389.88 74.58 C 391.82 77.65 394.14 80.58 395.05 84.17 C 391.02 84.22 386.94 84.87 383.21 86.42 C 380.45 87.57 380.64 91.01 380.09 93.46 C 376.83 93.61 373.58 93.42 370.33 93.58 C 367.66 87.66 362.50 82.53 362.65 75.65 C 366.33 76.87 369.25 81.00 373.50 79.61 M 371.66 91.48 C 373.11 90.84 374.89 90.55 375.68 89.00 C 374.63 86.97 373.11 85.25 371.55 83.60 C 371.41 86.23 371.49 88.85 371.66 91.48 Z" />
<path fill="#0d0d0d" opacity="1.00" d=" M 416.47 75.16 C 417.44 75.26 418.42 75.37 419.40 75.48 C 419.86 76.23 420.33 76.99 420.80 77.75 C 419.36 77.68 417.92 77.61 416.49 77.54 C 416.48 76.94 416.47 75.75 416.47 75.16 Z" />
<path fill="#0d0d0d" opacity="1.00" d=" M 357.37 82.81 C 360.47 83.89 363.00 85.98 365.19 88.37 C 363.38 88.94 361.55 89.47 359.72 89.97 C 358.66 87.68 357.82 85.30 357.37 82.81 Z" />
<path fill="#0d0d0d" opacity="1.00" d=" M 467.00 109.09 C 471.09 109.52 474.98 111.23 477.99 114.06 C 482.07 117.88 486.01 121.96 488.95 126.76 C 484.52 126.66 481.46 123.27 477.99 121.02 C 473.54 117.91 468.43 114.72 467.00 109.09 Z" />
<path fill="#0d0d0d" opacity="1.00" d=" M 517.58 112.58 C 520.73 111.75 523.85 110.84 527.04 110.15 C 525.56 112.57 523.94 114.91 522.09 117.07 C 520.55 115.60 519.04 114.12 517.58 112.58 Z" />
<path fill="#0d0d0d" opacity="1.00" d=" M 488.00 113.60 C 489.97 114.19 492.15 114.81 493.34 116.66 C 496.62 121.15 498.85 126.39 500.22 131.77 C 498.83 131.23 497.13 131.12 496.21 129.80 C 492.49 125.02 488.88 119.74 488.00 113.60 Z" />
<path fill="#0d0d0d" opacity="1.00" d=" M 555.57 113.50 C 558.36 115.87 560.34 119.25 560.39 122.98 C 560.49 127.25 560.42 131.53 560.52 135.80 C 559.76 135.62 558.25 135.25 557.50 135.06 C 555.74 128.03 553.11 120.74 555.57 113.50 Z" />
<path fill="#0d0d0d" opacity="1.00" d=" M 370.59 119.55 C 372.60 118.99 374.73 119.27 376.80 119.25 C 376.67 120.18 376.56 121.10 376.44 122.03 C 372.45 122.18 368.67 123.53 364.87 124.59 C 366.52 122.66 368.29 120.73 370.59 119.55 Z" />
<path fill="#0d0d0d" opacity="1.00" d=" M 358.04 136.79 C 358.63 132.81 361.94 130.48 365.67 129.71 C 364.92 130.57 364.17 131.42 363.42 132.26 C 363.81 133.18 364.21 134.10 364.61 135.02 C 362.46 135.76 360.28 136.42 358.04 136.79 Z" />
<path fill="#0d0d0d" opacity="1.00" d=" M 522.07 144.04 C 524.29 139.36 527.11 134.34 532.38 132.66 C 531.76 137.72 528.82 142.03 526.30 146.32 C 523.78 150.01 521.42 154.07 517.50 156.46 C 517.78 151.94 520.25 148.05 522.07 144.04 Z" />
<path fill="#0d0d0d" opacity="1.00" d=" M 330.46 160.65 C 333.85 153.34 342.56 149.30 350.37 150.62 C 347.39 154.15 342.70 155.29 339.14 158.09 C 336.69 160.11 333.56 160.72 330.46 160.65 Z" />
<path fill="#0d0d0d" opacity="1.00" d=" M 425.58 213.15 C 431.82 217.50 433.05 225.37 436.75 231.53 C 435.81 231.49 433.93 231.43 432.99 231.40 C 430.48 227.85 427.20 224.74 425.54 220.65 C 425.09 218.17 425.43 215.64 425.58 213.15 Z" />
<path fill="#0d0d0d" opacity="1.00" d=" M 519.01 258.77 C 521.16 253.43 522.77 247.08 528.46 244.40 C 528.63 249.01 525.94 252.95 523.99 256.92 C 521.70 261.08 520.40 265.97 516.62 269.13 C 515.68 265.43 517.87 262.12 519.01 258.77 Z" />
<path fill="#0d0d0d" opacity="1.00" d=" M 27.11 398.01 C 32.54 396.15 38.37 396.20 44.03 396.57 C 57.15 398.01 68.67 407.38 73.83 419.37 C 77.79 428.13 78.31 438.03 77.22 447.46 C 75.65 458.73 69.77 469.60 60.33 476.16 C 51.66 482.00 40.65 483.48 30.50 481.56 C 19.78 479.06 10.26 471.66 5.37 461.78 C 2.77 456.53 1.60 450.75 0.00 445.15 L 0.00 432.99 C 1.15 429.21 2.12 425.39 3.44 421.67 C 7.27 410.82 16.07 401.56 27.11 398.01 M 34.64 399.00 C 22.01 401.29 14.05 414.10 13.52 426.26 C 13.30 434.74 13.37 443.23 13.48 451.71 C 13.64 462.29 19.12 473.46 29.13 477.91 C 33.67 480.28 38.97 480.13 43.92 479.62 C 54.06 477.77 61.48 468.71 63.73 459.01 C 64.86 452.40 64.43 445.67 64.53 439.00 C 64.44 432.80 64.84 426.53 63.77 420.39 C 61.76 412.36 57.00 404.40 49.20 400.89 C 44.65 398.99 39.53 397.57 34.64 399.00 Z" />
<path fill="#0d0d0d" opacity="1.00" d=" M 302.32 398.42 C 312.49 398.29 322.66 398.32 332.83 398.41 C 332.64 399.37 332.45 400.34 332.27 401.31 C 329.40 401.53 326.53 401.73 323.66 401.93 C 323.55 427.19 323.50 452.46 323.69 477.72 C 333.73 477.67 343.77 477.73 353.81 477.68 C 356.83 470.36 359.12 462.76 362.17 455.44 C 362.79 455.36 364.04 455.18 364.67 455.10 C 365.45 463.42 365.39 471.82 364.84 480.16 C 346.22 480.34 327.60 480.14 308.99 480.27 C 306.51 480.34 304.04 479.95 301.68 479.19 C 304.88 477.90 308.23 477.06 311.58 476.26 C 311.54 451.48 311.72 426.70 311.49 401.93 C 308.60 401.72 305.71 401.51 302.83 401.27 C 302.66 400.32 302.49 399.37 302.32 398.42 Z" />
<path fill="#0d0d0d" opacity="1.00" d=" M 588.63 398.79 C 594.76 397.97 600.94 398.45 607.10 398.39 C 607.65 424.63 607.00 450.89 607.42 477.14 C 610.07 477.55 612.97 477.79 614.90 479.90 C 608.80 480.44 602.64 480.47 596.56 479.73 C 596.55 477.25 596.52 474.78 596.42 472.32 C 592.05 477.42 586.14 481.87 579.09 481.65 C 573.07 481.03 566.81 478.97 562.56 474.44 C 557.11 468.79 554.71 460.71 555.19 452.97 C 554.79 442.97 560.32 432.52 569.63 428.34 C 574.09 426.19 579.22 426.35 584.04 426.74 C 589.33 427.31 592.69 431.83 596.39 435.10 C 596.71 424.09 596.57 413.06 596.47 402.04 C 593.66 401.49 591.00 400.39 588.63 398.79 M 573.65 430.61 C 570.78 432.44 568.75 435.37 567.77 438.61 C 565.63 444.51 566.58 450.87 566.36 457.01 C 566.19 463.02 566.80 469.57 570.61 474.49 C 574.24 478.87 580.67 479.23 585.79 477.80 C 590.05 476.05 593.19 472.23 595.26 468.21 C 597.05 463.71 596.42 458.73 596.58 454.00 C 596.42 449.23 597.04 444.25 595.37 439.68 C 592.99 434.79 588.85 429.81 583.06 429.34 C 579.91 429.14 576.49 429.00 573.65 430.61 Z" />
<path fill="#0d0d0d" opacity="1.00" d=" M 105.15 427.25 C 110.97 427.27 116.79 427.24 122.61 427.35 C 122.73 441.26 122.48 455.17 122.72 469.07 C 122.66 473.18 125.82 477.43 130.12 477.58 C 136.88 478.30 142.50 473.45 146.54 468.62 C 148.05 467.18 147.68 464.95 147.79 463.08 C 147.72 452.21 147.78 441.34 147.74 430.48 C 145.64 430.13 143.54 429.76 141.44 429.42 C 141.38 428.88 141.27 427.81 141.22 427.27 C 146.90 427.26 152.58 427.27 158.27 427.32 C 158.58 443.91 158.15 460.52 158.49 477.12 C 161.15 477.61 163.78 478.25 166.34 479.14 C 160.54 481.10 154.32 480.01 148.32 480.13 C 148.01 477.41 147.71 474.69 147.35 471.99 C 142.32 477.38 135.58 481.65 128.00 481.65 C 121.07 481.79 113.15 477.41 112.31 469.97 C 111.92 456.81 112.48 443.63 112.04 430.47 C 109.81 430.12 107.59 429.75 105.36 429.44 C 105.31 428.89 105.21 427.80 105.15 427.25 Z" />
<path fill="#0d0d0d" opacity="1.00" d=" M 191.07 427.27 C 196.64 427.25 202.22 427.30 207.79 427.28 C 208.06 429.58 208.30 431.89 208.56 434.20 C 212.36 430.17 217.00 425.78 223.04 426.52 C 228.28 425.99 234.67 430.64 232.35 436.38 C 230.54 440.79 225.25 439.58 221.52 439.28 C 221.56 436.97 221.93 434.63 221.47 432.34 C 216.10 428.86 210.34 434.50 208.38 439.25 C 208.06 451.90 208.20 464.59 208.35 477.26 C 211.47 477.44 214.62 477.91 217.37 479.50 C 212.32 480.61 207.13 480.16 202.00 480.25 C 197.97 480.24 193.84 480.58 189.96 479.22 C 192.42 478.29 194.96 477.62 197.52 477.03 C 197.75 461.57 197.54 446.11 197.63 430.66 C 195.63 430.23 193.63 429.80 191.62 429.39 C 191.48 428.86 191.21 427.80 191.07 427.27 Z" />
<path fill="#0d0d0d" opacity="1.00" d=" M 402.82 428.66 C 407.82 426.10 413.61 426.49 419.06 426.61 C 424.86 426.77 431.08 429.34 434.05 434.56 C 436.43 438.64 435.56 443.51 435.71 448.01 C 435.80 457.01 435.49 466.04 435.83 475.04 C 435.75 477.28 438.26 477.93 440.05 477.92 C 441.94 476.52 443.38 474.64 444.99 472.95 C 444.62 474.83 445.17 477.18 443.55 478.58 C 439.41 483.30 431.22 482.31 427.62 477.45 C 426.44 475.82 425.46 474.08 424.42 472.39 C 419.52 478.33 411.82 482.28 404.03 481.54 C 400.22 480.82 396.26 479.25 393.95 475.98 C 390.89 471.96 390.76 466.36 392.66 461.83 C 394.38 457.13 398.88 454.17 403.33 452.37 C 410.24 449.51 417.86 449.80 425.20 449.70 C 425.09 444.40 426.10 438.81 424.11 433.75 C 420.54 426.32 408.70 426.96 404.56 433.45 C 403.29 436.31 405.81 438.74 407.05 441.08 C 406.03 442.47 405.08 443.97 403.71 445.05 C 400.05 447.22 394.16 444.63 394.56 440.00 C 393.62 434.52 398.46 430.77 402.82 428.66 M 418.26 452.55 C 414.48 453.09 410.68 454.28 407.58 456.55 C 402.47 460.63 400.05 469.69 405.55 474.47 C 410.48 478.66 417.73 475.89 421.55 471.53 C 426.17 466.62 425.71 459.22 424.88 453.03 C 423.01 451.71 420.42 452.56 418.26 452.55 Z" />
<path fill="#0d0d0d" opacity="1.00" d=" M 468.18 427.28 C 473.99 427.25 479.81 427.27 485.63 427.32 C 485.67 430.47 485.70 433.62 485.91 436.77 C 489.63 433.49 493.07 429.66 497.78 427.78 C 501.63 426.21 505.92 426.38 509.98 426.75 C 516.01 427.45 521.37 432.76 521.39 438.97 C 521.59 451.67 521.25 464.39 521.54 477.09 C 524.21 477.59 526.87 478.22 529.45 479.14 C 525.79 480.61 521.83 480.23 517.99 480.25 C 513.49 480.22 508.97 480.38 504.49 479.91 C 506.50 478.64 508.71 477.72 510.69 476.39 C 511.57 474.77 511.24 472.82 511.36 471.06 C 511.21 460.68 511.47 450.30 511.24 439.92 C 511.24 436.23 509.71 432.49 506.37 430.64 C 501.40 429.26 496.08 430.81 492.46 434.42 C 489.59 437.38 485.19 440.27 485.67 444.95 C 485.74 455.64 485.64 466.33 485.75 477.02 C 487.97 477.64 490.17 478.34 492.33 479.20 C 488.70 480.58 484.79 480.24 481.00 480.25 C 476.48 480.19 471.96 480.40 467.46 479.92 C 469.40 477.91 472.20 477.59 474.83 477.27 C 475.58 471.54 475.19 465.75 475.26 460.00 C 475.21 450.15 475.40 440.29 475.16 430.44 C 472.91 430.09 470.67 429.72 468.43 429.40 C 468.37 428.87 468.24 427.81 468.18 427.28 Z" />
<path fill="#0d0d0d" opacity="1.00" d=" M 642.20 441.97 C 641.38 433.78 649.21 427.06 656.94 426.69 C 662.59 426.50 668.76 425.96 673.82 429.01 C 676.00 430.37 678.48 432.15 678.58 434.99 C 678.82 437.59 678.90 440.92 676.30 442.40 C 674.00 443.17 671.51 442.60 669.14 442.58 C 668.93 439.88 669.59 437.27 670.45 434.74 C 671.34 431.84 668.05 429.80 665.79 428.82 C 660.15 427.81 653.68 428.17 649.28 432.26 C 646.60 434.30 647.27 438.06 647.63 440.97 C 647.66 442.43 649.37 442.85 650.39 443.54 C 658.37 447.35 667.64 447.93 675.24 452.61 C 680.91 456.30 681.46 463.93 680.16 469.96 C 678.68 474.62 674.94 478.59 670.26 480.13 C 663.09 482.93 655.03 481.73 647.96 479.24 C 643.78 477.75 640.54 473.57 641.33 468.99 C 641.18 465.57 644.45 463.81 646.87 462.14 C 648.91 462.97 650.94 463.80 652.99 464.62 C 652.96 468.20 649.93 472.18 652.63 475.40 C 653.87 477.64 656.49 478.57 658.94 478.59 C 663.87 478.83 669.55 479.19 673.39 475.47 C 677.25 472.81 677.57 466.08 673.37 463.61 C 665.60 458.68 656.05 457.99 647.84 454.07 C 643.39 451.87 641.71 446.64 642.20 441.97 Z" />
<path fill="#0d0d0d" opacity="1.00" d=" M 724.87 428.78 C 730.11 426.06 736.24 426.28 741.95 426.84 C 747.86 428.02 754.14 431.21 756.57 437.06 C 758.21 440.36 758.35 444.89 755.48 447.58 C 751.74 449.52 745.36 448.97 744.53 443.99 C 745.75 440.69 748.93 437.06 746.45 433.56 C 741.79 426.54 730.45 427.18 725.42 433.44 C 722.20 437.51 721.16 442.87 721.24 447.95 C 721.30 453.51 720.96 459.10 721.56 464.64 C 722.47 470.19 725.38 476.31 731.11 478.15 C 736.59 478.96 742.84 479.14 747.49 475.62 C 751.83 472.81 753.61 467.77 756.28 463.60 C 757.54 469.99 752.67 475.39 747.64 478.52 C 735.90 485.47 719.39 479.90 713.06 468.12 C 709.47 462.11 709.40 454.84 710.10 448.09 C 711.41 439.72 717.25 432.36 724.87 428.78 Z" />
<path fill="#0d0d0d" opacity="1.00" d=" M 790.33 433.25 C 794.21 428.86 800.17 426.60 805.96 426.57 C 811.55 426.47 817.59 426.19 822.53 429.27 C 826.81 431.46 829.36 436.19 829.29 440.95 C 829.44 451.95 829.18 462.95 829.36 473.95 C 829.22 476.12 831.29 478.39 833.56 477.75 C 835.51 476.93 837.07 475.44 838.88 474.35 C 838.72 480.87 830.39 483.41 825.40 480.44 C 821.91 478.97 820.30 475.31 818.26 472.39 C 813.48 478.42 805.78 482.26 798.03 481.55 C 793.95 480.88 789.85 478.92 787.50 475.38 C 784.34 470.79 784.93 464.45 787.67 459.80 C 790.36 455.42 795.21 452.90 800.03 451.57 C 806.27 449.52 812.91 449.87 819.38 449.60 C 819.02 443.77 820.65 437.13 816.92 432.08 C 812.47 426.86 803.73 427.65 799.27 432.46 C 797.13 435.61 800.43 438.65 800.66 441.77 C 798.97 446.44 791.66 447.34 789.05 442.96 C 787.43 439.97 787.99 435.79 790.33 433.25 M 801.61 456.57 C 796.63 460.03 795.65 467.00 797.54 472.42 C 799.37 475.11 802.61 476.90 805.92 476.53 C 811.23 476.02 816.14 472.31 818.13 467.35 C 820.02 462.62 819.24 457.45 819.34 452.50 C 813.21 452.05 806.57 452.52 801.61 456.57 Z" />
<path fill="#0d0d0d" opacity="1.00" d=" M 861.22 427.28 C 867.04 427.23 872.87 427.28 878.70 427.32 C 878.75 430.09 878.80 432.87 878.97 435.65 C 882.48 432.18 885.80 427.76 890.97 426.83 C 896.10 426.26 901.60 426.18 906.38 428.47 C 913.43 431.52 918.13 438.59 919.78 445.91 C 920.67 454.03 921.15 463.07 916.36 470.16 C 910.82 479.37 898.21 484.28 888.20 479.81 C 884.34 478.31 881.99 474.66 878.94 472.07 C 878.80 483.55 878.46 495.07 879.14 506.54 C 882.04 506.62 884.93 506.73 887.84 506.87 C 887.79 507.53 887.68 508.84 887.63 509.49 C 878.86 509.31 870.08 509.46 861.31 509.39 C 861.37 508.62 861.44 507.85 861.51 507.08 C 863.83 506.70 866.13 506.21 868.39 505.52 C 868.34 480.57 868.35 455.63 868.38 430.68 C 866.08 430.22 863.79 429.77 861.50 429.35 C 861.43 428.83 861.29 427.80 861.22 427.28 M 888.52 430.45 C 882.38 433.83 878.49 440.97 878.79 447.96 C 878.76 452.33 878.71 456.70 878.84 461.07 C 878.78 467.30 882.46 473.21 887.58 476.59 C 890.90 478.84 895.16 478.71 898.97 478.20 C 904.24 477.02 907.53 471.81 908.49 466.79 C 909.70 459.95 909.28 452.95 909.11 446.04 C 908.67 439.94 906.81 432.60 900.57 430.04 C 896.71 428.82 892.25 428.80 888.52 430.45 Z" />
<path fill="#0d0d0d" opacity="1.00" d=" M 952.39 440.21 C 955.93 433.07 963.06 427.83 970.97 426.75 C 976.57 426.27 982.65 426.15 987.60 429.26 C 994.52 432.95 998.14 440.75 998.50 448.35 C 986.06 448.54 973.61 448.43 961.17 448.41 C 960.61 457.29 959.05 468.05 966.16 474.87 C 970.09 479.41 976.58 478.88 981.96 478.20 C 988.68 476.64 993.67 471.14 995.85 464.75 C 996.37 464.63 997.42 464.38 997.95 464.26 C 997.24 471.43 991.96 477.70 985.15 479.92 C 970.97 485.74 952.79 476.00 950.06 460.81 C 949.14 453.94 948.98 446.47 952.39 440.21 M 965.72 432.68 C 962.32 436.30 960.93 441.32 960.99 446.20 C 969.59 446.18 978.21 446.60 986.79 445.93 C 986.66 443.26 986.65 440.58 986.19 437.94 C 985.49 433.62 982.19 429.70 977.86 428.70 C 973.48 427.89 968.86 429.61 965.72 432.68 Z" />
<path fill="#0d0d0d" opacity="1.00" d=" M 263.05 548.33 C 268.91 548.37 274.79 548.03 280.63 548.55 C 287.21 549.26 293.00 554.23 294.66 560.65 C 297.46 569.41 292.86 580.48 283.54 582.88 C 276.69 584.14 269.64 583.43 262.70 583.43 C 262.87 571.73 262.24 560.00 263.05 548.33 M 270.57 555.33 C 270.91 562.72 269.81 570.23 271.31 577.53 C 275.14 577.51 279.03 577.01 282.55 575.42 C 288.66 571.74 289.11 561.84 283.51 557.49 C 279.95 554.36 274.90 555.40 270.57 555.33 Z" />
<path fill="#0d0d0d" opacity="1.00" d=" M 416.71 554.51 C 418.47 549.57 423.99 547.12 428.98 547.42 C 434.12 546.97 438.86 549.25 443.07 551.94 C 441.61 553.44 440.65 555.79 438.65 556.57 C 434.25 555.65 429.89 554.12 425.30 554.71 C 425.26 556.40 425.23 558.11 425.21 559.82 C 430.13 561.90 435.73 562.62 440.08 565.89 C 443.65 568.53 443.88 573.61 442.58 577.50 C 440.77 580.98 437.06 582.75 434.04 585.00 L 426.26 585.00 C 422.35 583.06 418.55 580.90 415.12 578.19 C 416.39 576.35 417.68 574.52 418.97 572.69 C 423.75 575.43 429.07 577.39 434.68 576.35 C 434.49 574.67 434.38 572.98 433.99 571.35 C 429.28 568.54 423.15 568.79 418.93 565.05 C 416.04 562.41 415.90 558.07 416.71 554.51 Z" />
<path fill="#0d0d0d" opacity="1.00" d=" M 557.67 548.73 C 564.63 546.07 572.84 547.26 578.71 551.91 C 577.64 553.89 576.54 555.86 575.43 557.82 C 572.06 556.45 568.75 554.34 564.97 554.66 C 560.83 554.76 557.28 557.77 555.60 561.41 C 554.70 565.65 554.68 570.70 557.98 573.97 C 561.68 577.94 567.76 576.45 572.47 575.58 C 572.47 572.21 572.49 568.84 572.58 565.49 C 575.09 565.49 577.59 565.51 580.11 565.55 C 580.02 569.90 580.67 574.37 579.68 578.66 C 575.58 584.05 568.07 583.95 561.95 583.56 C 557.18 583.46 552.97 580.46 550.15 576.81 C 547.00 572.96 547.19 567.65 547.38 562.96 C 547.42 556.63 552.33 551.45 557.67 548.73 Z" />
<path fill="#0d0d0d" opacity="1.00" d=" M 628.31 548.29 C 631.20 548.65 635.07 547.16 637.08 549.94 C 642.51 556.39 647.26 563.38 652.59 569.92 C 653.94 562.80 652.93 555.51 653.30 548.32 C 656.07 548.31 658.84 548.32 661.63 548.37 C 661.74 560.05 661.58 571.73 661.72 583.41 C 658.30 583.22 653.75 584.92 651.50 581.48 C 646.63 575.44 642.23 569.04 637.35 563.02 C 635.93 569.72 636.90 576.63 636.70 583.42 C 633.87 583.52 631.04 583.54 628.22 583.48 C 628.35 571.75 628.19 560.02 628.31 548.29 Z" />
<path fill="#0d0d0d" opacity="1.00" d=" M 710.33 554.39 C 712.27 549.43 717.90 546.97 723.00 547.41 C 727.98 547.11 732.48 549.46 736.65 551.88 C 735.11 553.69 733.59 555.51 732.10 557.36 C 727.94 555.04 723.20 554.14 718.47 554.71 C 718.63 556.35 718.71 558.02 719.09 559.65 C 723.89 562.64 730.33 562.31 734.50 566.44 C 737.19 569.08 737.03 573.20 736.46 576.64 C 735.15 580.91 730.75 582.90 727.21 585.00 L 720.18 585.00 C 716.55 583.14 712.64 581.60 709.60 578.81 C 709.06 576.24 711.50 574.45 712.66 572.44 C 717.34 575.72 722.94 577.46 728.66 576.21 C 728.35 574.62 728.13 573.03 727.67 571.49 C 722.93 568.43 716.51 568.79 712.37 564.67 C 709.55 562.10 709.45 557.84 710.33 554.39 Z" />
<path fill="#0d0d0d" opacity="1.00" d=" M 343.39 548.33 C 351.76 548.28 360.14 548.25 368.51 548.35 C 368.51 550.66 368.50 552.98 368.46 555.31 C 362.53 555.35 356.59 555.23 350.66 555.46 C 350.66 557.66 350.64 559.86 350.61 562.07 C 356.15 562.69 361.73 562.33 367.29 562.53 C 367.30 564.62 367.33 566.72 367.37 568.82 C 362.03 569.58 356.62 569.23 351.25 569.33 C 350.61 572.01 350.82 574.74 351.49 577.40 C 357.23 577.36 362.98 577.38 368.72 577.40 C 368.73 579.44 368.73 581.49 368.72 583.55 C 360.26 583.56 351.81 583.59 343.35 583.53 C 343.29 571.79 343.24 560.06 343.39 548.33 Z" />
<path fill="#0d0d0d" opacity="1.00" d=" M 491.17 548.41 C 493.63 548.34 496.08 548.29 498.55 548.28 C 498.72 560.04 498.64 571.81 498.60 583.57 C 496.10 583.56 493.61 583.53 491.12 583.49 C 491.22 571.79 491.15 560.10 491.17 548.41 Z" />
</g>
</svg>
