<svg width="460" height="461" viewBox="0 0 460 461" fill="none" xmlns="http://www.w3.org/2000/svg">
<path d="M232.32 0C238.147 0.453333 244.64 1.29333 248.6 6.13333C251.933 10.2667 255.96 13.7067 259.853 17.28C251.053 17.6267 244.053 11.7867 236.813 7.74667C233.467 8.56 230.52 10.52 227.387 11.88C229.347 8.05333 231.413 4.24 232.32 0Z" fill="#0D0D0D"/>
<path d="M190.586 20.506C191.506 12.0527 196.146 3.21266 204.973 0.972656C202.973 8.78599 199.453 18.5727 190.586 20.506Z" fill="#0D0D0D"/>
<path d="M256.957 1.82812C261.21 1.96146 265.904 2.41479 268.824 5.94813C272.677 10.5881 277.037 15.4015 278.304 21.4815C272.37 19.0681 268.344 13.9748 263.757 9.77479C261.17 7.41479 258.73 4.86813 256.957 1.82812Z" fill="#0D0D0D"/>
<path d="M177.772 10.9857C177.812 7.38573 180.439 4.66573 182.546 2.03906C184.239 11.4791 182.466 20.9724 181.466 30.3724C180.572 30.5591 178.812 30.9591 177.932 31.1591C177.652 24.4391 177.199 17.6924 177.772 10.9857Z" fill="#0D0D0D"/>
<path d="M282.291 13.8781C280.517 10.9048 279.891 7.50479 280.371 4.07812C283.624 6.55813 287.144 9.27813 288.197 13.4648C289.664 18.7981 291.197 24.1581 291.557 29.7048C286.784 25.5715 285.264 19.2115 282.291 13.8781Z" fill="#0D0D0D"/>
<path d="M166.067 21.5596C164.973 17.1196 162.72 11.9463 166.133 7.90625C169.413 11.6796 170.853 16.4796 171.227 21.3863C169.933 21.4263 167.36 21.5196 166.067 21.5596Z" fill="#0D0D0D"/>
<path d="M296.357 24.6418C296.491 19.2818 294.944 12.6684 300.17 9.14844C300.957 13.8418 300.917 18.6284 300.464 23.3484C299.437 23.6818 297.384 24.3218 296.357 24.6418Z" fill="#0D0D0D"/>
<path d="M147.746 18.7085C149.586 16.7885 151.439 14.8685 153.253 12.9219C153.706 14.8952 157.746 17.5885 155.733 19.0819C153.066 19.7619 150.359 19.2819 147.746 18.7085Z" fill="#0D0D0D"/>
<path d="M216.147 15.3193C218.854 13.466 222.254 14.2526 225.321 14.1993C230.241 14.4793 235.214 13.7993 240.121 14.466C241.401 16.0126 242.121 17.906 242.974 19.706C239.254 18.5726 235.667 16.9326 231.774 16.5593C232.587 19.5593 233.534 22.5193 234.414 25.506C231.521 25.1593 228.627 24.7726 225.747 24.3326C225.334 28.586 224.894 33.0393 222.067 36.466C219.654 31.4793 224.081 26.3326 222.894 21.0526C219.947 24.7593 217.494 28.8526 214.347 32.386C212.787 33.1726 210.974 33.186 209.307 33.546C213.027 28.7726 216.787 23.946 219.174 18.3326C208.134 20.6126 197.921 26.586 190.334 34.8926C188.187 36.9993 187.241 39.8926 186.561 42.746C192.747 39.7993 196.787 33.106 204.094 32.506C203.014 35.8126 201.907 39.106 201.121 42.4927C194.761 43.7727 187.721 45.5193 183.894 51.266C178.681 57.8926 180.601 66.7326 180.401 74.506C179.054 74.3326 176.374 73.9727 175.027 73.7993C176.094 69.3993 177.347 64.986 177.561 60.426C176.827 48.6393 183.574 37.7326 191.787 29.8126C198.601 22.9993 207.934 19.986 216.147 15.3193Z" fill="#0D0D0D"/>
<path d="M308.265 19.9334C309.518 19.2134 310.812 18.4934 312.105 17.7734C313.625 19.5868 315.172 21.3868 316.745 23.1868C317.785 21.7068 318.838 20.2268 319.932 18.7601C320.185 20.7068 320.425 22.6668 320.692 24.6134C322.025 23.7201 323.372 22.8001 324.718 21.8801C324.558 24.5601 324.385 27.2401 324.265 29.9201C328.198 29.4534 331.212 27.0001 333.812 24.2001C338.665 33.1334 336.412 43.5334 336.852 53.2401C335.332 54.5468 333.745 55.7734 332.425 57.2934C332.478 58.9601 332.785 60.6001 333.012 62.2534C334.785 61.1068 336.598 60.0134 338.452 58.9734C338.932 62.6934 339.158 66.4268 339.385 70.1734C342.238 68.9068 345.092 67.6001 347.932 66.2801C352.638 63.3734 358.158 66.5468 363.212 64.9601C370.718 63.0401 378.332 61.4001 386.145 62.2534C386.052 63.6001 385.958 64.9468 385.892 66.2934C379.745 69.0134 373.305 71.3601 366.478 71.2268C356.558 71.7468 344.585 69.3734 336.945 77.4001C343.132 80.6268 350.252 81.5868 357.038 79.7868C365.612 77.4534 374.532 78.1468 383.238 79.3334C386.532 80.1868 389.852 75.5601 392.612 78.4268C392.905 82.0801 392.492 85.7601 392.318 89.4134C396.118 86.5068 399.638 83.1334 403.892 80.8534C406.852 79.5734 407.452 83.7468 407.998 85.7601C409.025 93.8001 408.185 101.96 407.305 109.987C407.185 113.04 404.518 115 402.692 117.133C398.358 112.48 394.158 107.653 390.798 102.24C389.718 102.267 388.638 102.293 387.572 102.32C387.012 105.08 386.385 107.827 385.745 110.56C376.652 112.747 369.852 105.333 362.305 101.787C365.278 106.333 369.412 109.893 373.705 113.147C379.372 117.427 382.025 124.24 384.385 130.68C385.732 130.667 387.092 130.653 388.465 130.64C390.545 126.707 392.758 122.84 394.558 118.76C395.918 120.533 397.278 122.307 398.678 124.053C406.118 116.427 412.678 108 419.732 100.027C426.118 106.2 425.492 115.587 423.798 123.56C421.945 131.307 422.958 139.333 422.972 147.2C423.625 146.88 424.932 146.227 425.585 145.907C427.185 139.093 427.185 131.747 430.318 125.387C431.172 125.053 432.878 124.4 433.732 124.08C434.038 128.72 434.812 133.52 433.625 138.093C430.372 146.653 423.678 153.76 422.425 163.067C430.625 157.187 430.465 145.333 438.678 139.627C438.798 143.173 439.412 146.96 437.798 150.28C434.532 157.44 427.585 162.107 424.398 169.333C432.238 165.6 437.852 158.08 446.518 155.92C446.332 160.6 443.318 164.493 439.225 166.533C430.038 171.827 418.332 176.053 414.452 186.907C423.785 184.027 431.825 178.28 440.652 174.267C444.172 172.467 448.225 172.88 452.025 173.28C445.612 181.92 433.892 182.227 424.878 186.68C434.345 186.387 443.292 182.347 452.865 182.6C452.852 183.72 452.825 185.96 452.798 187.093C446.585 190.787 439.158 190.147 432.212 190.48C432.252 191.627 432.305 192.76 432.358 193.907C440.998 196.373 451.278 198.72 456.105 207.107C454.012 208.013 451.878 208.8 449.932 209.947C449.558 211.667 450.145 212.973 451.665 213.88C455.158 216.547 457.225 220.493 459.812 223.96C458.212 224.907 456.612 225.84 455.025 226.773C455.185 228.827 455.345 230.893 455.505 232.973C452.998 232.867 450.505 232.72 448.012 232.573C446.625 234.387 445.225 236.187 443.785 237.96C441.918 235.707 440.158 233.36 438.372 231.053C435.145 231.707 431.945 232.44 428.758 233.253C434.598 239.547 443.505 239.973 451.212 242.387C454.372 243.28 456.345 245.987 457.758 248.773C453.745 248.947 449.638 249.08 445.812 247.707C437.238 245.253 430.972 237.52 421.825 236.693C428.492 244.267 438.212 247.96 445.772 254.413C448.212 256.293 448.385 259.427 448.505 262.24C450.465 264.373 452.318 266.6 453.945 269.027C440.478 270.773 430.425 260.173 418.572 255.987C419.572 258.4 420.278 261.28 422.865 262.507C432.638 268.28 445.465 271.333 450.905 282.347C440.558 280.827 433.038 272.867 423.945 268.44C425.345 273.773 428.305 278.72 432.852 281.96C435.932 284.653 440.252 284.507 444.078 285.227C443.905 288.76 442.918 292.147 441.945 295.52C441.638 299.04 441.798 302.6 441.478 306.12C437.705 306.187 433.638 304.48 430.225 306.733C426.478 309.16 421.972 308.907 417.718 309.187C417.772 311.067 417.825 312.96 417.918 314.84C419.958 313.893 421.985 312.907 424.012 311.907C426.878 316.36 431.172 320.04 432.052 325.547C429.572 327.56 427.598 330.053 426.038 332.8C424.025 332.747 422.025 332.693 420.052 332.653C419.238 334.347 418.425 336.027 417.585 337.693C419.132 339.187 420.678 340.707 422.238 342.2C418.398 344.32 415.465 347.707 411.638 349.827C401.985 353.613 391.478 352.747 381.345 353.733C388.638 359.04 400.012 358.507 404.478 367.4C391.732 370.027 382.678 357.107 370.145 358.027C372.585 362.987 376.345 367.773 382.012 369.04C386.012 369.4 390.092 368.533 394.052 369.56C393.972 371.107 393.905 372.667 393.838 374.213C391.078 376.32 388.745 378.893 387.078 381.947C385.158 385.587 380.998 386.853 377.812 389.053C376.385 389.707 374.945 391.187 373.265 390.627C366.132 388.773 359.025 386.773 352.065 384.347C350.118 385.827 348.145 387.307 346.145 388.72C346.078 385.467 346.092 382.213 346.052 378.96C344.012 380.173 341.972 381.373 339.918 382.547C341.398 386.2 342.705 390.213 345.772 392.893C353.052 394.067 360.478 394.547 367.558 396.88C367.785 397.867 368.238 399.813 368.465 400.8C359.158 401.92 350.172 399.093 340.998 398.267C346.118 404 351.478 409.987 352.678 417.907C349.852 417.16 346.838 416.227 345.118 413.653C341.505 408.8 338.745 403.387 335.678 398.173C335.105 398.36 333.932 398.733 333.358 398.92C336.452 405.627 340.118 412.107 341.985 419.307C337.145 421.68 331.998 420.467 327.025 419.413C323.252 423.267 319.878 427.613 318.745 433.027C314.238 433.333 309.772 434.28 305.252 434.12C301.158 431.573 297.012 429.093 292.612 427.107C292.132 430.107 291.865 433.187 290.918 436.093C288.865 440.107 285.638 443.427 283.985 447.68C280.798 448.12 277.598 448.653 274.665 450.04C269.025 452.773 262.598 451.547 256.585 451.427C257.732 452.893 258.852 454.387 259.945 455.92C255.732 456.2 251.052 454.787 247.238 457.173C243.412 459.707 238.638 457.307 234.518 458.92C230.718 460.293 227.238 457.333 223.772 456.16C222.532 457.533 221.292 458.907 220.052 460.28C218.225 458.347 216.558 456.187 214.278 454.773C207.118 453.307 200.425 456.96 193.465 457.867C191.478 456.293 189.625 454.453 187.238 453.493C183.012 452.8 178.705 453.053 174.438 452.907C173.198 450.56 172.105 447.92 169.718 446.507C163.105 445.013 156.318 446.28 149.972 448.28C149.932 446.213 149.892 444.173 149.865 442.12C145.118 442.733 140.372 443.427 135.598 443.56C140.238 438.867 140.732 432.4 140.878 426.147C135.452 426.533 129.985 427.173 125.105 429.76C121.385 426.933 117.318 424.547 112.705 423.56C110.772 419.987 108.225 416.787 105.358 413.907C101.692 415.04 98.0917 416.413 94.4384 417.547C95.5717 411.213 101.345 407.68 105.212 403.093C98.425 404.813 91.6517 407.013 84.5584 406.773C85.425 404.733 86.3717 402.72 87.3317 400.707C77.4917 399.147 66.5183 394.627 63.2117 384.32C69.945 386.04 76.5717 388.48 83.6383 388.333C83.065 384.333 82.0517 380.413 81.3184 376.453C84.905 377.013 88.425 378 91.9183 379C91.2383 376.027 90.5584 373.053 89.8917 370.093C85.1984 370.027 80.4917 370.107 75.7983 370.253C76.7983 372.92 77.8384 375.587 78.665 378.32C75.0117 378.16 71.5583 379.16 68.1717 380.373C65.2783 379.867 62.4517 378.987 59.5717 378.413C59.345 376.76 59.1317 375.133 58.9183 373.493C57.2783 372.893 55.6383 372.293 54.0117 371.693C56.7717 368.307 58.465 364.36 57.225 359.947C60.185 360.04 63.145 360.12 66.105 360.12C65.9984 357.733 66.265 355.293 65.6917 352.96C64.2384 350.627 62.3717 348.6 60.665 346.467C59.705 348.667 59.0784 351.173 57.225 352.84C53.2784 353.693 49.265 354.08 45.265 354.507C40.9183 348.28 36.3583 342.107 30.8917 336.813C30.825 334.707 30.785 332.587 30.7583 330.48C37.305 329.493 44.1183 326.293 46.1717 319.44C38.8917 320.413 31.8784 323.293 24.4117 322.307C24.2384 320.88 24.0784 319.453 23.905 318.04C29.4917 316.12 35.3184 315.387 41.1984 315.373C44.905 315.56 47.7984 313.093 50.3317 310.72C40.1717 309.493 29.945 311.347 19.7717 310.347C19.9584 307.96 20.9984 305.32 23.865 305.547C28.105 305.027 32.385 305.4 36.6517 305.187C29.8917 299.72 20.945 296.987 15.4917 289.973C11.3984 280.24 4.54501 271.293 4.22501 260.333C10.5983 255.227 13.8384 247.24 14.4517 239.253C12.9717 239.52 11.4917 239.8 10.025 240.08C8.74502 243.893 7.63837 247.773 6.70504 251.68C5.47837 251.653 3.03835 251.6 1.81168 251.573C2.15835 248.733 0.505003 244.827 3.505 243.027C10.7317 237.413 15.905 228.52 16.4117 219.333C9.8117 225.213 8.83834 235.987 0.0116761 239.507C-0.374991 228.28 8.91836 220.16 16.5317 213.267C22.9184 210 26.985 204.053 31.8783 199.027C33.585 197.467 33.8917 195.107 34.465 192.987C27.7317 191.24 21.0383 193.48 14.385 194.307C9.91834 194.973 5.83836 192.813 2.02502 190.8C10.5717 186.08 20.3717 187.933 29.625 186.787C23.9717 178.213 11.1983 174.827 10.385 163.253C16.4783 165.64 21.705 169.733 25.9317 174.68C26.2383 171.693 26.6917 168.707 26.6117 165.707C26.065 162.093 24.0117 158.827 23.945 155.12C23.7717 151.693 24.1583 148.28 24.465 144.88C25.6383 145.027 26.8117 145.173 27.985 145.307C29.105 152.32 29.8784 159.427 31.6117 166.32C34.3984 157.64 40.4784 150.64 43.905 142.253C47.1184 144.773 48.8917 148.453 50.625 152.04C55.4784 149.387 59.0517 145.187 61.0117 140.013C57.7317 139.733 54.4517 139.533 51.185 139.093C53.7184 138.32 56.265 137.613 58.8117 136.867C57.2517 134.427 55.7317 131.973 54.2784 129.48C50.1584 130.76 46.1184 132.253 42.105 133.8C44.025 134.627 45.9584 135.427 47.905 136.213C44.6784 141.493 39.5717 144.84 33.985 147.187C33.785 145.013 33.6117 142.853 33.425 140.68C31.105 140.92 28.785 141.147 26.4784 141.36C26.6784 140.733 27.0784 139.467 27.2784 138.827C29.5717 138.173 31.8517 137.493 34.1317 136.76C32.0783 134.987 30.025 133.253 27.9717 131.493C29.865 131.04 31.785 130.6 33.6917 130.16C32.585 127.573 31.465 125 30.4384 122.387C32.0384 122.293 33.625 122.213 35.2384 122.133C36.4384 124.347 37.665 126.547 38.9183 128.733C40.4383 125.933 41.905 123.093 43.345 120.253C51.985 122.973 56.465 131.787 62.145 138.2C68.625 138.053 75.1184 137.8 81.5717 138.507C76.545 139.853 71.1717 140.253 66.5717 142.907C61.865 145.173 58.6384 149.387 54.945 152.907C51.465 156.173 45.825 155.653 42.6917 159.44C37.3584 164.613 30.7717 171.44 33.865 179.52C36.745 183 39.9717 186.213 42.465 190.013C51.345 185.8 60.105 180.907 66.8783 173.64C63.865 171.28 60.2517 170.173 56.505 169.76C59.305 168 62.2917 166.493 65.4784 165.533C66.0917 167.693 66.7317 169.867 67.385 172.027C72.265 165.187 75.1317 157.227 78.1317 149.44C81.9317 139.173 89.4117 130.587 98.145 124.147C103.625 120.04 109.052 115.587 115.598 113.267C120.078 111.627 124.278 109.293 128.825 107.8C141.558 104.96 155.078 102.707 167.892 106.36C177.585 106.427 187.772 105.373 196.798 109.787C206.612 112.787 214.065 119.96 221.732 126.373C225.878 130.6 230.505 134.6 233.292 139.907C233.638 144.347 234.398 148.72 236.252 152.813C236.332 150.307 236.318 147.787 236.292 145.293C238.785 144.027 241.278 142.773 243.758 141.48C239.812 137.613 235.198 134.067 232.732 129C232.292 124.813 232.385 120.48 230.572 116.56C227.398 109.213 225.078 101.507 224.118 93.5468C225.985 91.9468 227.852 90.3334 229.732 88.7468C228.412 87.5201 227.078 86.2934 225.905 84.9468C225.132 81.1068 225.812 76.9868 224.145 73.3334C222.025 68.8534 217.892 65.8934 214.332 62.6401C216.172 60.9201 218.158 59.3468 220.278 57.9601C221.545 51.7468 222.252 45.0934 225.985 39.7601C229.572 34.4801 235.398 31.5068 240.078 27.3468C242.852 25.0134 243.998 21.4534 245.612 18.3201C250.665 20.9868 254.718 25.1601 256.012 30.8668C254.998 31.8534 254.012 32.8534 253.025 33.8401C250.318 31.2268 247.665 28.5734 245.025 25.8934C239.318 34.4268 240.278 47.2001 230.278 52.5201C231.025 45.9601 234.438 40.1334 235.438 33.6401C230.105 36.8934 226.132 42.4134 224.638 48.4668C223.958 54.8534 224.438 61.3068 224.665 67.7068C224.745 72.0801 227.732 75.4134 230.465 78.4934C230.972 75.7068 231.598 72.9601 232.412 70.2401C235.052 70.4401 237.705 70.6268 240.372 70.8401C240.292 72.6134 240.158 74.3734 239.958 76.1468C238.372 77.6401 236.478 78.7201 234.718 79.9468C234.878 81.9601 235.052 83.9734 235.265 85.9868C242.785 80.8934 246.878 72.6134 251.998 65.4001C244.998 64.9468 240.092 60.0268 234.932 55.9201C235.118 54.8534 235.292 53.8001 235.492 52.7468C243.345 59.1334 253.705 59.8534 262.892 63.3201C276.772 65.2001 290.692 62.9734 304.505 61.6534C304.492 60.8534 304.465 59.2668 304.452 58.4668C299.972 57.9734 295.452 58.7468 290.998 58.2001C287.265 56.2534 284.198 52.7734 279.798 52.3334C275.852 51.7734 271.972 50.9201 268.105 49.9734C267.505 53.0534 267.238 56.1868 267.012 59.3201C261.012 57.3601 255.198 54.7601 248.878 53.9468C251.078 51.2001 253.678 48.5868 254.892 45.2134C255.318 41.9734 254.878 38.7068 254.785 35.4668C257.518 33.6401 260.145 30.8934 263.745 31.3068C270.198 30.6001 275.172 36.4001 281.598 35.7201C276.452 27.4668 266.398 26.0001 257.678 24.3734C264.652 23.2001 272.598 22.5601 278.732 26.7734C282.932 30.1868 286.625 34.8401 287.225 40.3868C287.358 43.1734 289.692 44.9468 291.372 46.8934C291.958 42.5601 292.092 38.2001 291.945 33.8401C294.585 35.7334 297.412 37.3468 300.318 38.8134C300.265 40.9068 300.185 43.0134 300.118 45.1068C300.852 44.6001 301.612 44.0801 302.358 43.5601C303.465 47.2001 306.705 48.0668 310.132 47.4534C310.158 43.0134 309.892 38.5601 309.918 34.1201C307.158 32.6534 304.478 31.0134 301.878 29.2801C305.052 28.8534 308.252 28.6934 311.465 28.5068C310.438 25.6268 309.345 22.7868 308.265 19.9334ZM324.625 32.9734C325.652 36.8801 322.665 43.5468 328.118 44.5601C328.812 40.8001 329.465 37.0401 329.958 33.2534C328.625 33.1868 325.958 33.0534 324.625 32.9734ZM263.532 37.9201C262.892 39.3201 262.265 40.7068 261.625 42.0934C266.025 44.3601 270.812 45.3201 275.745 45.2001C280.732 45.0001 284.292 51.7334 289.265 49.0534C286.798 45.6134 284.638 40.4668 279.705 40.3734C274.225 40.0534 268.892 38.9468 263.532 37.9201ZM315.478 41.2401C316.825 42.6401 318.185 44.0268 319.558 45.4134C320.718 45.0801 323.038 44.4134 324.198 44.0801C323.918 42.5601 323.638 41.0268 323.372 39.4934C320.732 40.0934 318.092 40.6534 315.478 41.2401ZM310.625 50.2001C307.692 49.9734 305.132 51.5201 302.678 52.8668C304.398 55.1334 306.705 57.0401 307.945 59.6668C308.478 62.1601 308.385 64.7468 308.505 67.2934C309.985 68.1734 311.478 69.0401 312.998 69.9201C312.092 70.5601 311.198 71.2134 310.278 71.8001C306.332 70.0668 301.985 70.0268 297.758 69.9201C296.225 72.4401 295.158 75.4001 292.945 77.4134C290.412 78.6934 287.572 79.1601 284.892 79.9734C284.718 78.1468 284.572 76.3068 284.425 74.4668C286.852 73.9868 289.305 73.5468 291.758 73.1468C291.998 71.4001 292.238 69.6668 292.492 67.9334C284.892 68.2001 277.052 64.7734 269.665 67.7334C265.558 69.1734 263.238 73.1468 261.505 76.8801C257.958 84.6134 254.505 92.5334 253.158 100.987C252.225 105.467 252.998 110.6 249.585 114.173C247.865 105.933 249.465 97.5601 249.758 89.2801C246.998 90.6668 244.252 92.0668 241.465 93.3868C243.812 102.04 242.718 110.987 243.892 119.773C237.225 113.427 237.572 103.2 236.732 94.6934C234.292 94.6134 231.852 94.5601 229.425 94.5201C229.852 99.5068 232.158 103.973 233.492 108.72C233.878 117.053 236.065 125.12 237.318 133.347C239.598 133.04 242.265 133.36 244.025 131.507C251.518 125.76 254.772 116.467 261.185 109.747C267.185 103.333 273.345 97.0268 280.065 91.3468C287.798 83.5468 298.212 78.7201 309.038 77.2401C317.092 78.0001 325.238 79.1868 333.318 78.0134C330.945 75.7601 327.678 75.6401 324.665 75.1201C327.038 70.8534 330.372 67.2401 332.998 63.1334C331.998 62.4134 330.905 61.9068 329.732 61.6401C325.692 63.3468 321.692 65.1868 317.438 66.2934C318.105 63.6668 318.625 60.6401 321.118 59.0668C324.398 55.9734 330.332 54.7601 330.358 49.3468C323.758 49.3201 317.225 50.2268 310.625 50.2001ZM312.585 80.7601C314.972 84.3334 318.692 86.4401 322.318 88.5201C326.492 90.8534 328.998 95.0668 331.332 99.0668C332.492 97.3201 333.678 95.5601 334.892 93.8268C337.172 95.6401 339.318 97.6134 341.425 99.6401C342.385 99.1734 344.305 98.2534 345.265 97.7868C337.958 87.1868 324.878 82.4001 312.585 80.7601ZM286.012 92.5734C291.092 92.5068 296.132 91.7334 301.212 91.7201C305.918 91.7468 311.972 94.0001 311.678 99.6268C302.572 101 294.052 96.1201 284.985 97.2134C280.692 97.4134 277.332 100.333 274.198 102.947C282.812 107.92 290.612 114.893 295.105 123.893C285.038 121.387 277.945 113.067 269.652 107.373C265.038 112.347 260.572 117.547 257.612 123.707C266.092 122.36 274.705 122.32 283.118 124.133C281.212 125.56 279.452 127.493 276.958 127.8C269.372 129.28 261.612 130.467 254.385 133.307C250.318 135.827 249.838 141.347 248.852 145.613C245.772 157.173 246.438 169.293 247.252 181.107C250.652 176.147 253.598 170.893 256.652 165.72C255.198 163.507 253.772 161.28 252.358 159.067C255.225 155.773 259.438 155.267 263.558 155.173C262.798 157.893 261.958 160.6 261.278 163.333C263.372 162.293 265.452 161.2 267.492 160.027C268.092 160.96 268.718 161.88 269.345 162.813C270.878 161.187 272.425 159.56 273.998 157.947C273.292 155.653 272.612 153.347 271.932 151.04C270.745 152.893 269.545 154.733 268.358 156.56C268.412 152.16 270.025 148.013 271.158 143.813C269.185 143.867 267.225 143.92 265.265 143.987C266.865 142.347 268.358 140.587 270.145 139.147C272.132 137.813 274.812 137.707 276.452 135.813C279.505 133.027 282.065 128.96 286.558 128.52C290.985 127.76 295.212 126.267 299.532 125.107C299.438 126.96 299.345 128.84 299.238 130.707C300.572 130.4 301.905 130.093 303.252 129.813C303.305 124.28 298.958 120.387 295.745 116.413C292.158 112.253 290.065 107.027 289.118 101.667C294.145 102.24 298.612 105.427 300.798 110C305.598 119.453 307.198 130.8 315.052 138.507C315.412 135.707 315.558 132.827 314.452 130.173C311.585 121.2 308.465 110.893 313.612 102.107C314.892 102.133 316.158 102.173 317.452 102.2C318.025 105.493 318.692 108.787 319.332 112.08C322.598 111.56 325.878 111 329.158 110.4C323.905 100.387 318.518 89.6668 308.652 83.4268C299.918 80.1201 291.305 85.9868 286.012 92.5734ZM364.972 84.4001C358.998 86.2401 352.705 84.9868 346.598 85.3334C353.865 93.6934 365.012 97.2934 375.745 98.1601C379.305 97.6401 382.238 95.2801 385.345 93.6001C381.892 92.4001 378.412 91.3068 374.932 90.2134C374.905 89.6801 374.865 88.6001 374.838 88.0668C376.865 87.8934 378.918 87.7468 380.958 87.5468C380.598 86.1334 380.252 84.7334 379.918 83.3201C374.932 83.6934 369.812 82.9068 364.972 84.4001ZM398.585 88.8268C396.478 90.1734 398.905 93.4134 400.825 91.8534C402.878 90.4934 400.465 87.2668 398.585 88.8268ZM394.732 98.1868C397.238 102.12 399.932 105.933 402.732 109.68C403.318 106.013 403.425 102.28 403.252 98.5734C400.398 98.4401 397.558 98.3068 394.732 98.1868ZM346.052 107.627C347.745 109.733 349.465 111.84 351.078 114.013C348.678 114.307 346.292 114.52 343.905 114.707C344.878 118.333 347.372 122.16 345.478 125.92C342.585 132.827 340.038 140.373 333.972 145.227C326.545 151.2 320.905 159.827 320.278 169.52C324.118 166.773 326.412 162.627 328.892 158.733C331.678 154.373 335.612 150.867 340.012 148.173C340.812 150.253 341.598 152.347 342.398 154.44C349.878 150.467 358.972 147.453 362.412 138.893C359.652 137.427 356.892 136 354.012 134.813C351.785 138.587 349.358 142.267 346.265 145.4C345.585 139.16 345.265 132.413 348.798 126.907C352.785 120.013 354.665 111.867 352.412 104.053C350.265 105.2 348.145 106.413 346.052 107.627ZM124.998 112.52C120.638 114.2 118.372 118.56 115.638 122.027C118.265 123.347 120.905 124.667 123.558 125.973C124.585 123.147 125.665 120.32 126.852 117.547C127.558 120.4 128.198 123.267 128.825 126.147C131.012 123.68 133.212 121.2 135.572 118.88C134.598 122.627 133.225 126.253 132.158 129.973C134.238 129.107 136.625 128.547 138.065 126.64C143.278 120.64 150.705 115.667 158.945 115.96C152.198 123.693 143.452 129.333 134.118 133.4C132.665 135.72 130.252 138.387 131.278 141.32C132.318 145.2 133.212 149.12 134.065 153.04C131.958 154.493 130.198 156.307 130.465 159.067C130.505 164.24 127.892 169.16 128.465 174.32C131.425 177.587 136.118 176.56 140.025 176.773C138.238 173.693 136.145 170.8 134.132 167.88C138.932 167.733 143.732 167.987 148.545 167.92C144.198 163.84 139.438 160.2 135.478 155.72C136.852 155.747 139.625 155.813 141.012 155.84C142.718 159.973 146.878 161.44 150.852 162.533C152.358 164.453 153.252 167.24 155.772 168.08C162.585 171.133 170.132 171.387 177.372 172.8C184.492 174.16 191.305 170.973 198.372 170.787C203.252 170.6 208.185 170.587 212.972 171.68C217.065 172.693 220.492 175.28 224.252 177.067C226.225 178.187 227.998 176.08 229.745 175.427C231.505 176.187 233.265 176.987 235.052 177.747C235.185 168.467 235.158 157.773 228.092 150.747C221.998 144.107 212.252 147.6 204.438 146.08C201.972 145.227 198.318 144.853 198.532 141.44C202.172 139.44 206.425 139.72 210.438 139.8C217.012 139.92 222.558 144.027 228.878 145.347C225.732 134.44 212.318 127.253 201.612 131.707C194.158 134.573 186.318 136.773 178.318 137.293C180.785 131.707 186.718 129.267 192.198 127.64C198.892 125.147 206.145 126.573 213.092 125.907C207.145 118.493 196.732 116.76 187.958 119.107C184.678 120.307 181.745 122.267 178.425 123.347C174.678 124.267 170.798 123.587 167.052 123.2C172.652 115.373 183.118 117.293 190.492 112.453C181.638 108.147 170.758 111.333 164.438 118.493C162.518 122.293 163.478 127 165.718 130.453C169.545 136.893 175.212 142.573 176.238 150.32C174.358 150.253 172.478 150.187 170.612 150.12C170.145 151.413 169.678 152.693 169.225 153.987C173.212 154.32 177.652 153.827 180.958 156.56C185.252 159.773 190.038 162.227 195.012 164.253C194.812 165.253 194.438 167.253 194.252 168.253C186.958 164.667 178.705 163.387 171.785 159.04C169.212 157.44 166.478 156.133 163.598 155.24C162.532 157.253 161.492 159.267 160.465 161.293C157.998 160.44 155.518 159.627 152.985 159.027C145.972 158.333 144.212 150.2 140.812 145.253C143.598 144.4 146.425 143.653 149.278 143.027C149.478 145.227 149.678 147.427 149.878 149.627C152.025 150.773 154.065 152.08 156.025 153.52C156.385 152.267 156.758 151.027 157.132 149.773C158.505 150.96 159.865 152.147 161.238 153.333C161.465 150.44 161.585 147.533 161.665 144.64C163.692 145.747 165.758 146.8 167.892 147.747C166.225 140.44 163.612 133.253 159.505 126.96C158.572 134.373 158.958 142.027 155.918 149.053C153.132 145.613 151.705 141.173 152.105 136.76C155.052 127.28 159.718 118.267 166.545 110.973C162.598 109.973 158.612 108.853 154.505 108.933C144.598 109.013 134.318 108.653 124.998 112.52ZM318.198 113.027C317.838 120.72 317.372 128.453 318.198 136.133C323.092 129.293 327.238 121.947 331.305 114.613C326.918 114.253 322.558 113.667 318.198 113.027ZM365.398 113.187C366.558 119.8 368.212 126.373 368.132 133.16C372.585 133.04 377.038 132.973 381.492 132.733C374.798 127.333 371.158 119.4 365.398 113.187ZM415.078 120.387C414.465 123.507 417.225 125.387 419.105 127.347C419.238 123.187 419.132 119.013 418.878 114.853C416.945 116.213 414.492 117.573 415.078 120.387ZM105.852 126.267C104.705 131.76 103.318 137.267 103.198 142.92C103.198 146.893 100.692 150.2 99.7317 153.947C99.3584 158.48 101.545 162.72 103.158 166.827C105.452 163.133 106.758 158.947 107.292 154.64C109.758 155.8 112.332 156.68 114.918 157.573C115.972 155.293 117.612 153.173 117.998 150.64C117.812 146.533 116.465 142.587 116.025 138.507C117.865 138.293 119.705 138.067 121.558 137.853C121.745 136.627 122.118 134.173 122.305 132.96C119.798 132.4 117.158 130.947 114.638 132.2C111.972 132.96 110.732 135.627 109.025 137.56C109.265 135.627 109.492 133.68 109.705 131.747C114.145 131.347 118.585 130.747 122.985 129.933C120.598 127.347 117.665 125.413 114.212 124.64C114.012 122.413 113.772 120.187 113.478 117.987C110.585 120.307 106.558 122.24 105.852 126.267ZM355.945 130.533C357.438 131.12 358.945 131.72 360.465 132.307C361.172 126.973 360.065 121.653 356.812 117.28C356.065 121.667 355.918 126.107 355.945 130.533ZM320.758 153.507C325.918 148.333 328.412 141.347 332.078 135.16C335.638 130.4 331.972 124.6 331.772 119.413C323.238 128.32 319.212 141.32 320.758 153.507ZM45.3717 125.973C43.7584 127.92 47.145 130.187 48.4517 128.107C50.0784 126.147 46.6784 123.947 45.3717 125.973ZM81.6383 151.2C86.4517 157.067 90.5983 164.16 98.2517 166.707C96.9717 157.573 90.345 150.013 90.5584 140.547C92.5984 141.253 94.6117 142 96.6383 142.747C97.6383 137.72 99.3984 132.853 99.6917 127.693C90.8784 132.96 86.225 142.44 81.6383 151.2ZM279.078 137.147C287.532 136.947 295.985 137.44 304.438 137.16C300.465 133.827 296.038 129.88 290.478 130.333C285.612 130.067 281.918 133.653 279.078 137.147ZM410.865 132.053C409.665 138.68 414.372 144 416.932 149.653C416.812 143.36 416.505 136.093 410.865 132.053ZM121.358 142.093C120.772 146.453 122.958 150.507 124.292 154.52C125.852 151.733 127.958 149 128.225 145.72C127.905 142.627 126.292 139.893 125.078 137.093C123.812 138.733 122.065 140.107 121.358 142.093ZM274.532 144.44C275.185 149.533 276.572 154.493 278.065 159.413C283.958 153.493 290.105 147.88 296.652 142.693C289.265 142.707 281.438 141.04 274.532 144.44ZM404.065 143.453C403.745 144.08 403.092 145.32 402.772 145.947C405.825 151.653 409.972 156.72 415.078 160.72C415.905 153.933 410.665 148.76 407.265 143.48C406.465 143.48 404.865 143.467 404.065 143.453ZM301.878 145.053C293.985 149.013 290.372 157.733 284.505 163.907C287.012 163.533 289.518 163.04 292.012 162.533C290.852 174.973 277.145 181.04 274.972 193.053C279.625 191.16 282.012 186.627 285.052 182.947C288.612 178.253 294.158 175.213 300.118 175.24C298.718 178.2 296.985 181.067 294.305 183.013C288.305 187.693 282.758 192.88 276.892 197.707C274.745 197.293 272.585 196.933 270.438 196.573C272.772 185.733 277.825 175.573 282.705 165.653C279.878 164.987 277.065 164.24 274.278 163.48C271.998 165.68 269.918 168.093 267.292 169.88C265.225 170.52 262.838 170.04 260.932 171.067C252.425 179.187 246.318 189.56 242.692 200.707C241.438 205.267 241.932 210.053 242.012 214.72C253.932 211.24 265.238 205.933 277.225 202.64C287.532 201.133 297.652 198.213 308.158 198.16C308.278 197.627 308.545 196.56 308.665 196.027C305.892 195.107 303.158 194.067 300.558 192.747C302.945 192.213 305.372 191.773 307.785 191.333C308.318 188.56 308.598 185.573 310.732 183.493C313.825 179.973 315.198 175.427 316.678 171.08C313.718 166.653 313.345 161.48 313.652 156.307C314.105 150.027 308.852 142.347 301.878 145.053ZM350.972 155.533C346.532 157.08 342.318 159.16 338.585 162.04C335.772 164.333 331.745 164.307 329.105 166.84C323.412 172.08 318.238 178.16 315.638 185.56C326.132 183.12 333.105 171.64 344.625 173.133C342.732 177.213 340.118 181.267 335.758 183C328.558 186.04 320.745 187.36 313.665 190.72C313.718 194.24 313.745 197.773 313.558 201.293C316.318 201.32 319.092 201.347 321.878 201.347C321.785 199.28 321.705 197.213 321.638 195.147C329.998 194.04 338.012 191.187 345.585 187.56C349.692 185.573 354.198 184.813 358.718 184.48C356.705 182.373 354.732 180.253 352.825 178.067C350.292 178.24 347.772 178.413 345.265 178.56C346.572 165.64 360.065 158.72 362.972 146.32C358.225 148.373 355.145 152.693 350.972 155.533ZM372.612 147.307C379.718 154.173 391.932 154 396.425 163.8C392.612 167.467 392.398 172.853 390.905 177.587C391.292 178.213 391.705 178.813 392.118 179.44C395.638 175.093 399.452 171 403.518 167.16C401.252 161.147 399.918 154.467 395.678 149.44C391.172 148.827 386.558 149.533 382.118 148.493C378.998 147.707 375.798 147.36 372.612 147.307ZM357.612 171.147C358.665 171.773 360.785 173.027 361.852 173.667C362.732 172.04 363.638 170.427 364.425 168.76C366.758 164.76 364.772 160.093 364.358 155.867C361.078 160.44 359.038 165.733 357.612 171.147ZM374.478 155.213C374.945 157.613 374.772 160.36 376.412 162.36C378.812 166.187 383.532 167.253 387.532 168.56C386.465 161.893 380.025 157.987 374.478 155.213ZM75.665 167.867C82.4117 168.92 89.2784 169.333 96.1184 169.013C91.345 164.107 85.0517 161.24 79.1584 157.947C77.905 161.227 76.705 164.52 75.665 167.867ZM365.052 167.88C363.798 172.893 365.212 178.053 365.758 183.067C367.185 182.533 368.625 182.013 370.065 181.467C370.105 177.467 370.318 173.427 369.625 169.453C368.758 167.307 367.225 166.773 365.052 167.88ZM376.878 167.893C378.652 171.6 381.012 175 383.852 177.973C384.145 175.8 384.425 173.64 384.705 171.467C382.132 170.187 379.545 168.947 376.878 167.893ZM75.6383 174.027C78.2117 179.44 81.6917 184.507 86.6517 187.987C90.185 191.507 95.4384 189.867 99.8517 190.107C106.412 189.667 112.692 192.533 117.785 196.467C114.212 196.987 110.532 197.347 107.012 196.28C102.505 195.013 97.8783 196.32 93.425 197.08C94.1183 200.907 94.8517 204.747 95.425 208.6C97.1183 205.88 99.0917 203.347 101.385 201.107C101.758 203.56 102.092 206.04 102.425 208.507C104.132 207.64 105.852 206.773 107.558 205.907C111.732 208.56 116.905 208 121.385 209.587C126.638 213.853 128.838 220.573 132.065 226.293C134.958 218.453 134.238 207.773 127.025 202.507C122.732 201.227 118.185 201.32 113.798 200.627C117.478 199.64 121.265 199.133 124.998 198.333C125.052 193.493 121.452 190.093 117.492 187.92C107.012 185.36 95.0384 191.067 85.5317 184.467C87.265 183.267 88.825 181.72 90.8383 180.96C99.3717 179.4 107.532 183.2 115.892 184.187C114.518 182.453 113.132 180.733 111.718 179.04C112.025 178.333 112.625 176.907 112.932 176.2C112.492 176.107 112.078 176.013 111.665 175.92C99.6384 175.453 87.5717 175.867 75.6383 174.027ZM149.745 173.493C148.692 177.907 148.172 182.587 145.838 186.56C142.265 186.8 138.732 186 135.252 185.373C134.705 193.173 134.718 201.267 138.678 208.267C143.265 201.933 143.065 191.12 152.052 188.933C149.452 195.48 144.812 201.507 145.452 208.933C148.572 209.6 151.692 210.28 154.865 210.773C153.972 213.587 152.998 216.36 152.012 219.133C155.118 221.2 157.785 223.827 160.638 226.213C160.238 218.507 161.012 210.787 164.105 203.653C170.278 194.667 176.185 185.493 183.158 177.08C180.185 177.333 176.705 176.707 174.318 178.933C167.172 184.787 163.185 194.493 153.838 197.48C153.772 186.88 163.532 180.853 171.518 176.027C165.252 171.253 157.012 173.44 149.745 173.493ZM400.238 179.507C395.705 185.08 390.025 190.2 388.065 197.347C396.078 194.587 402.558 188.947 409.785 184.733C409.998 180.707 410.425 176.707 410.892 172.707C406.692 173.813 402.905 176.053 400.238 179.507ZM197.465 175.627C197.012 178.84 195.998 182.24 197.238 185.413C198.558 188.88 200.625 192.013 202.052 195.44C204.145 200.107 204.065 205.333 204.172 210.333C207.532 211.16 210.905 210.56 213.905 208.84C213.545 203.667 213.345 198.467 213.852 193.293C215.612 195 217.798 196.493 218.612 198.933C221.705 206.707 223.625 215.067 223.332 223.48C221.665 222.16 220.052 220.8 218.412 219.48C216.545 220.093 214.678 220.707 212.812 221.32C215.038 223.773 217.212 226.293 219.065 229.053C215.692 229.133 212.318 229.067 208.958 229.133C210.065 230.867 210.305 233.467 212.252 234.533C215.012 234.907 217.812 234.867 220.612 234.933C221.585 232.013 222.265 228.8 224.558 226.547C226.905 223.493 230.772 221.427 231.865 217.52C232.612 214.893 233.625 212.307 233.985 209.573C231.758 205.853 229.532 201.987 230.092 197.44C236.212 196.267 237.078 189.28 236.665 184.133C234.692 187.653 233.198 191.413 231.852 195.213C221.785 190.627 210.252 190.533 200.638 184.867C200.372 183.48 200.105 182.093 199.865 180.72C203.225 180.773 206.652 180.533 209.972 181.213C215.638 182.893 220.705 186.133 226.425 187.707C221.785 177.213 208.172 172.2 197.465 175.627ZM372.892 183.32C373.945 185.013 375.465 186.333 376.905 187.693C377.185 183.12 375.252 178.973 373.145 175.053C372.732 177.76 371.865 180.653 372.892 183.32ZM61.1184 185.76C57.2117 193.84 56.6384 203.173 51.7717 210.88C50.8517 210.867 48.9984 210.827 48.0784 210.8C46.9584 202.453 51.7184 195.467 54.905 188.213C46.305 191.547 44.4784 201.707 43.1184 209.733C43.2784 215.813 49.1717 219.373 54.8117 218.307C54.9584 220.52 55.065 222.747 55.1717 224.973C57.3317 225.053 59.4917 225.133 61.665 225.28C60.225 226.587 58.7584 227.867 57.2784 229.133C57.745 230.147 58.225 231.173 58.7183 232.2C61.105 230.693 63.4784 229.16 65.8917 227.693C65.9984 222.36 66.1717 216.947 67.7317 211.8C69.3584 205.347 70.905 198.2 67.7983 191.92C64.825 199.6 64.1984 207.88 61.745 215.693C60.3584 215.773 58.985 215.853 57.625 215.947C57.5984 210.68 56.705 205 59.5717 200.253C63.5584 193.173 66.705 185.707 68.6783 177.827C65.7317 180.013 62.6517 182.307 61.1184 185.76ZM121.438 177.267C121.625 180.187 121.758 183.107 121.785 186.04C125.478 187.107 129.052 188.52 132.638 189.933C132.665 187.027 132.665 184.12 132.625 181.213C129.038 179.507 125.372 177.92 121.438 177.267ZM176.252 195C177.545 200.787 181.398 205.573 183.812 210.933C185.892 214.8 185.585 219.32 185.532 223.56C176.772 218.307 173.625 208.147 171.998 198.667C168.612 205.093 168.918 213.933 174.198 219.253C175.652 221.307 178.772 223.187 177.612 226.107C175.865 229.173 172.265 229.027 169.252 229.613C166.745 230.84 167.225 233.987 166.598 236.24C171.878 235.2 176.892 233.187 182.105 231.853C181.398 233.813 180.665 235.747 179.998 237.707C185.518 237.373 190.745 235.427 195.598 232.88C198.345 234.08 201.185 234.987 204.092 235.747C204.158 233.627 204.225 231.52 204.265 229.427C200.758 227.867 197.465 225.933 194.145 224.04C196.425 223.453 198.705 222.88 200.998 222.28C199.558 220.467 198.118 218.667 196.718 216.84C198.638 217.32 200.558 217.827 202.492 218.307C202.265 214.573 201.852 210.72 199.158 207.867C194.518 202.12 194.438 194.533 192.918 187.653C192.172 187.6 190.678 187.493 189.932 187.44C189.985 194.813 190.145 202.2 189.798 209.573C188.772 209.44 186.705 209.173 185.678 209.04C184.572 206.133 182.878 203.36 182.665 200.2C181.772 192.92 187.318 187.013 187.852 179.92C182.172 182.973 176.505 188.16 176.252 195ZM76.265 183.973C75.9717 193.333 79.5984 202.24 82.3584 211.04C83.3984 215.64 88.6384 218.227 92.985 216.493C89.7984 212.16 89.6117 206.72 87.5184 201.947C84.7717 195.4 81.5184 188.88 76.265 183.973ZM329.878 197.253C329.825 198.427 329.705 200.76 329.652 201.933C330.518 202.373 332.252 203.267 333.118 203.72C334.852 202.4 336.598 201.093 338.345 199.773C339.425 201.227 340.545 202.667 341.665 204.107C342.878 204.053 344.078 204 345.305 203.947C346.265 202.12 346.598 199.627 348.772 198.8C354.118 195.813 359.972 193.76 365.065 190.28C364.198 188.76 363.345 187.253 362.492 185.747C353.918 194.547 340.718 193.413 329.878 197.253ZM358.918 199.573C355.505 199.4 354.385 202.853 352.932 205.227C356.078 204.84 359.185 203.813 362.385 203.96C365.185 204.507 367.798 205.733 370.598 206.347C375.638 205.44 379.718 201.907 383.758 198.973C380.545 197.107 377.305 195.32 374.092 193.48C369.478 196.507 364.545 199.227 358.918 199.573ZM400.905 196.36C409.705 200.307 419.585 197.147 428.772 199.507C428.718 200.907 428.678 202.32 428.652 203.733C420.305 204.067 411.785 204.787 403.612 202.613C395.758 201.213 386.105 201.053 380.558 207.813C388.665 209.64 396.972 208.6 405.185 208.84C410.998 208.707 415.518 212.907 419.678 216.413C425.492 211.947 431.012 207.093 436.985 202.813C433.092 199.44 428.972 196.16 424.092 194.333C416.598 191.16 407.838 192.32 400.905 196.36ZM29.425 208.88C27.0917 213.693 30.0517 218.76 31.145 223.493C33.8117 230.68 31.7984 238.507 33.905 245.813C36.1317 242.053 38.5184 238.373 41.145 234.867C39.3584 234.547 37.5984 234.24 35.825 233.933C36.7984 231.493 37.865 229.093 39.0117 226.72C37.3183 223.973 35.1983 221.16 35.305 217.773C35.1183 209.573 40.0117 202.547 42.265 194.92C36.7583 198.2 31.7717 202.787 29.425 208.88ZM293.025 204.24C296.132 207.773 300.385 209.867 304.652 211.667C309.545 213.76 313.865 216.893 318.238 219.893C318.492 215.107 316.878 210.16 312.838 207.32C307.332 202.667 299.652 203.573 293.025 204.24ZM72.0917 206.013C72.6917 214.693 73.9984 224.04 70.025 232.16C67.3717 237.627 66.2517 243.68 66.5983 249.747C66.2517 256.48 69.585 263.893 76.1184 266.52C75.385 261.347 72.785 256.787 71.345 251.84C70.545 247.84 71.025 243.733 71.1984 239.707C72.745 240.44 74.3184 241.173 75.905 241.88C76.745 230.267 77.0117 218.533 75.3317 206.987C74.5184 206.747 72.905 206.253 72.0917 206.013ZM280.105 207.187C280.132 209.427 280.185 211.68 280.265 213.933C281.945 212.507 283.625 211.067 285.332 209.64C283.572 208.827 281.838 208 280.105 207.187ZM214.692 207C213.505 210.773 212.625 214.627 211.732 218.467C212.972 218.413 215.452 218.32 216.692 218.267C216.438 214.453 215.825 210.667 214.692 207ZM257.305 214.2C258.425 218.547 260.932 222.613 265.092 224.613C268.065 226.533 271.572 224.88 274.358 223.48C271.452 221.293 268.425 219.253 265.478 217.133C265.878 216.187 266.278 215.253 266.692 214.32C269.038 214.427 271.385 214.56 273.745 214.693C273.585 212.6 273.425 210.493 273.265 208.4C267.758 209.773 262.412 211.747 257.305 214.2ZM331.025 209.16C339.065 216.253 350.532 217.227 358.798 224.04C366.332 228.96 369.772 237.48 372.985 245.48C374.612 244.227 376.238 242.96 377.878 241.693C376.625 231.427 371.385 221.96 364.398 214.507C354.598 208.227 342.265 208.04 331.025 209.16ZM111.385 213.613C112.385 215.573 113.398 217.533 114.372 219.507C112.465 219.8 110.558 220.067 108.652 220.347C108.478 222.12 108.305 223.907 108.145 225.693C106.012 224.88 103.918 224 101.825 223.12C101.692 225.04 101.572 226.973 101.452 228.893C105.425 231.293 109.638 233.267 113.932 235.08C115.278 231.013 116.052 226.787 116.972 222.6C126.132 230.387 123.972 243.96 120.812 254.147C123.038 252.427 125.998 251.16 127.305 248.547C126.932 246.48 126.172 244.493 125.572 242.493C127.932 242.2 130.292 241.947 132.678 241.693C129.452 237.747 130.505 232.6 129.545 227.987C124.985 222.12 119.385 217.04 115.758 210.44C114.278 211.493 112.825 212.56 111.385 213.613ZM143.385 213.867C140.425 222.493 136.452 231.253 137.612 240.6C140.492 239.6 143.345 238.453 146.025 236.973C150.665 237.24 155.305 237.24 159.945 237.027C158.852 234.813 158.332 232.147 156.505 230.413C153.958 229 151.105 228.253 148.412 227.227C148.425 224.44 148.785 221.627 148.412 218.867C146.985 216.96 145.105 215.48 143.385 213.867ZM163.345 223.84C165.772 223.64 168.212 223.427 170.638 223.187C169.745 219.733 168.692 216.32 167.585 212.933C165.438 216.24 163.945 219.933 163.345 223.84ZM285.465 220.213C287.985 220 290.505 219.8 293.038 219.547C292.265 216.92 291.852 213.84 289.172 212.427C287.918 215.013 286.705 217.613 285.465 220.213ZM296.905 213.427C301.812 220.227 308.412 225.627 312.718 232.907C312.732 229.893 313.198 226.813 312.478 223.853C307.692 219.84 302.758 215.787 296.905 213.427ZM390.305 213.227C393.012 218.28 398.225 221.827 403.865 222.667C409.678 223.493 414.732 219.72 418.785 216.04C413.292 215.653 407.612 216.6 402.305 214.8C398.438 213.48 394.372 212.933 390.305 213.227ZM431.038 213.96C432.945 216.027 435.492 217.187 438.158 217.907C437.425 216.32 436.692 214.747 435.972 213.16C434.732 213.36 432.265 213.76 431.038 213.96ZM23.6917 241.347C19.6784 244.16 16.7184 248.16 15.985 253.093C16.6784 253.147 18.065 253.253 18.7583 253.307C18.8917 251.573 19.025 249.84 19.185 248.107C20.7317 249.053 22.265 250.013 23.825 250.947C24.025 247.107 25.825 243.707 26.9984 240.133C26.945 231.933 26.105 223.733 25.4784 215.56C19.6517 222.827 20.3717 233.147 23.6917 241.347ZM372.452 215.413C376.745 222.373 382.278 228.6 389.092 233.187C391.532 231.88 393.985 230.64 396.478 229.44C390.505 222.173 382.052 216.147 372.452 215.413ZM229.878 254.8C232.718 253.733 235.172 251.933 236.905 249.453C239.758 245.533 243.412 242.32 246.598 238.693C247.265 236.293 247.198 233.76 247.518 231.307C257.385 234.84 263.558 244.013 272.945 248.4C268.398 236.587 256.812 229.533 251.985 217.853C239.798 226.053 229.852 239.613 229.878 254.8ZM411.478 227.373C420.185 231.693 430.038 227.973 438.305 224.36C433.945 222.12 429.652 219.653 425.025 218.04C419.705 219.693 415.518 223.707 411.478 227.373ZM88.0117 220.493C88.065 221.187 88.1717 222.573 88.225 223.267C90.4517 222.653 92.7183 222.12 94.9717 221.56C92.6517 221.16 90.3317 220.813 88.0117 220.493ZM292.065 244.413C291.572 247.267 293.585 249.093 295.625 250.693C297.065 244.347 300.758 238.96 305.332 234.44C306.132 237.427 306.905 240.413 307.758 243.387C310.545 240.787 311.038 237.053 311.518 233.48C308.638 232.653 305.052 232.907 303.012 230.373C299.918 227.24 297.692 223.413 295.332 219.747C288.958 226.32 292.252 236.267 292.065 244.413ZM338.545 219.373C339.318 221.827 340.078 224.413 341.825 226.387C347.852 233.573 355.452 239.147 363.052 244.533C362.932 240.12 363.545 234.307 358.998 231.787C352.358 227.373 346.305 221.773 338.545 219.373ZM318.452 220.813C316.652 229.413 318.198 238.253 318.092 246.96C319.958 243.96 321.918 240.947 322.932 237.52C323.812 231.613 321.358 225.827 318.452 220.813ZM81.5584 224.253C81.5184 230.56 83.6117 236.733 82.9317 243.053C82.2384 248.147 76.905 252.08 78.6383 257.547C79.6517 266.573 85.8917 273.573 91.985 279.787C94.5317 281.253 97.6517 281.147 100.465 281.853C99.5583 277.52 100.812 271.76 96.425 269.067C92.4383 265.427 87.3717 263.373 83.105 260.16C82.145 255.173 86.5717 251.533 87.7717 247.013C88.9317 238.947 86.1717 230.827 81.5584 224.253ZM329.238 224.04C329.598 228.707 331.438 233.053 332.358 237.6C329.972 241.68 326.878 245.373 325.198 249.867C322.758 255.973 318.412 261.107 315.972 267.187C316.252 271.373 319.278 274.693 321.105 278.307C324.545 277.853 327.985 277.4 331.452 277.16C335.225 270.72 335.052 263.093 334.705 255.893C330.865 260.373 327.918 266.96 321.092 267.04C321.905 262.747 323.958 258.8 327.198 255.827C330.212 252.427 335.025 249.6 334.932 244.467C335.452 237.293 335.598 228.853 329.238 224.04ZM268.052 227.747C268.078 228.773 268.132 230.827 268.158 231.867C269.358 233.093 270.532 234.36 271.718 235.627C272.558 235.333 274.252 234.76 275.092 234.48C275.532 233.493 276.412 231.507 276.852 230.52C274.292 228.52 271.332 227.227 268.052 227.747ZM92.4784 231.333C95.025 236.907 99.945 242.48 106.705 241.627C102.572 237.44 97.7584 233.92 92.4784 231.333ZM277.665 230.387C276.412 236.56 281.385 241.173 284.372 245.947C285.412 243 286.385 239.747 285.345 236.64C283.158 234.133 280.372 232.267 277.665 230.387ZM396.132 231.773C394.012 233.027 395.985 236.907 398.212 235.52C400.252 234.24 398.358 230.413 396.132 231.773ZM341.558 234.347C342.198 237.547 342.918 240.773 344.318 243.747C348.065 251.173 355.345 256.067 359.012 263.547C361.652 268.533 361.185 274.413 363.052 279.653C365.278 282.653 369.638 284.547 369.905 288.693C370.492 297.427 368.945 306.72 373.105 314.853C375.932 309.933 378.305 304.627 379.238 299C376.345 287.907 366.705 280.173 363.438 269.227C362.532 265.373 363.038 261.373 363.385 257.48C366.345 260.053 369.332 262.947 370.452 266.84C372.492 272.12 372.278 278.48 376.638 282.627C377.665 272.707 374.052 263.08 369.518 254.44C365.985 253.867 361.865 254.307 359.078 251.64C352.678 246.453 348.345 239.12 341.558 234.347ZM45.345 237.44C45.4117 242.36 48.505 246.307 51.7183 249.707C51.185 244.973 49.985 239.787 45.345 237.44ZM53.0117 236.747C54.145 242.56 57.3717 247.627 61.5584 251.72C61.6117 247.387 62.545 242.6 60.185 238.68C58.0917 237.16 55.4383 237.16 53.0117 236.747ZM217.198 239.907C205.998 240.347 194.732 238.373 183.585 240.12C188.732 244.653 195.665 246.493 202.412 246.413C209.345 245.933 215.585 250.387 222.558 248.893C220.892 245.04 221.825 241.133 224.332 237.92C222.025 238.813 219.732 239.973 217.198 239.907ZM412.065 237.16C412.585 249.16 425.318 256.707 436.252 257.36C430.865 248.133 422.038 240.92 412.065 237.16ZM94.9317 239.947C96.345 243.32 98.1584 246.507 100.118 249.6C98.5184 252.267 97.3317 255.147 97.4384 258.32C98.7184 258.76 100.012 259.227 101.292 259.693C101.532 257.813 101.772 255.933 102.012 254.067C103.118 253.72 105.358 253.027 106.465 252.68C104.185 247.253 100.492 242.32 94.9317 239.947ZM147.452 240C150.572 245.333 157.132 244.667 162.452 245.133C165.532 245.6 166.478 242.107 166.318 239.733C160.025 239.307 153.705 239.2 147.452 240ZM397.145 242.093C397.758 244.2 398.318 246.493 400.452 247.613C400.652 245.707 400.838 243.813 401.025 241.92C400.052 241.96 398.118 242.053 397.145 242.093ZM252.012 243.373C249.292 244.32 247.158 246.373 244.892 248.053C238.185 253.52 230.372 258.333 226.558 266.467C240.132 265.827 254.758 263.093 267.452 269.48C268.452 268.627 269.412 267.747 270.398 266.88C268.198 264.813 265.678 262.96 262.492 263.067C255.772 262.813 249.212 261.293 243.118 258.44C242.932 256.987 242.732 255.533 242.558 254.093C246.492 254.013 250.452 253.733 254.385 254.24C262.718 255.72 269.612 262.8 278.545 260.96C273.892 254.48 266.652 250.853 260.172 246.573C257.665 245.107 255.052 243.107 252.012 243.373ZM111.132 262.28C108.758 262.88 106.398 263.467 104.052 264.053C104.732 270.787 105.705 277.48 106.852 284.147C108.038 289.867 113.145 293.307 117.572 296.493C116.172 290.373 112.625 285.24 109.385 280C111.132 269.6 118.118 260.493 118.998 249.827C118.812 247.187 119.532 243.027 115.545 243.707C112.825 249.533 111.505 255.88 111.132 262.28ZM134.185 246.947C128.625 249.827 125.398 255.613 123.438 261.333C127.545 259.293 131.385 256.747 135.518 254.733C140.265 252.533 145.692 252.813 150.785 253.187C145.918 261.28 135.225 260.413 127.692 264.453C122.718 266.467 120.572 271.68 117.825 275.853C125.718 275.453 133.278 272.347 141.238 272.827C147.425 273.227 153.545 271.747 159.158 269.2C156.638 268.52 154.105 267.907 151.558 267.333C153.132 261.293 155.678 255.6 157.972 249.827C150.185 248.147 142.212 245.107 134.185 246.947ZM173.278 249.853C170.652 257.64 169.278 266.547 162.745 272.24C168.865 274.733 175.558 274.4 181.852 276.133C178.318 279.267 173.812 280.8 169.852 283.227C167.772 287.56 174.625 288.227 177.078 290.533C180.252 288.547 184.198 287.427 186.545 284.36C188.745 280.013 189.972 275.08 189.598 270.2C187.345 273.573 185.412 277.147 183.358 280.64C181.452 277.013 182.305 273.093 183.878 269.547C186.212 264.307 185.692 258.413 184.305 252.987C181.372 258.933 181.878 268.213 173.652 269.707C171.958 262.773 176.465 257.133 178.892 251.107C178.572 248.733 177.745 246.467 177.092 244.173C175.665 245.947 173.838 247.547 173.278 249.853ZM90.825 246.333C90.1317 250.653 91.0517 254.867 94.265 257.947C93.865 253.893 92.6917 249.947 90.825 246.333ZM404.318 247.973C404.212 250.04 403.318 252.28 404.505 254.213C405.212 256.093 407.025 257.96 405.998 260.08C403.558 267.333 397.825 272.987 395.825 280.44C402.612 275.667 406.852 268.253 413.105 262.853C411.065 257.653 409.132 252.4 407.225 247.147C406.492 247.36 405.038 247.773 404.318 247.973ZM373.092 249.213C373.998 251.893 374.905 254.56 375.865 257.213C377.732 254.68 379.478 252.053 381.078 249.333C378.612 247.427 375.745 248.533 373.092 249.213ZM191.358 248.96C196.772 256.893 206.118 261.133 214.812 264.467C215.358 261.667 215.905 258.867 216.478 256.08C208.412 252.773 200.052 249.96 191.358 248.96ZM279.838 249.6C280.812 252.52 281.985 255.373 283.118 258.253C283.958 258.307 285.652 258.427 286.492 258.48C284.798 255.16 282.572 252.147 279.838 249.6ZM25.9584 261.027C23.4917 261.013 21.0383 261 18.585 261.013C19.3183 265.027 20.265 269.027 20.5317 273.12C21.9717 273.12 23.425 273.133 24.8917 273.133C24.5183 269.587 24.1583 266.04 23.9183 262.48C28.5317 262.293 32.6783 264.187 36.345 266.813C36.2917 261.027 36.2783 255.24 36.225 249.467C31.5317 252.067 28.025 256.093 25.9584 261.027ZM341.732 251.04C342.118 255.347 342.865 259.693 344.412 263.747C346.798 268.64 351.278 272.04 355.692 275.013C355.718 269.973 352.505 265.96 350.278 261.707C348.012 257.72 346.278 252.987 341.732 251.04ZM48.265 253.507C49.7183 257.24 50.905 261.133 53.065 264.547C56.8117 268.053 62.345 268.227 67.1584 269C63.025 261.773 56.2783 255.947 48.265 253.507ZM384.785 288.52C385.638 288.2 387.358 287.56 388.212 287.227C391.025 281.28 393.585 275.147 394.585 268.587C392.812 268.707 391.065 268.827 389.318 268.973C389.878 263.08 391.145 256.387 386.172 251.88C379.225 262.96 381.732 276.613 384.785 288.52ZM10.185 262.427C11.1983 262.507 13.225 262.667 14.2384 262.747C14.0517 260.36 13.8383 257.973 13.545 255.613C12.0783 257.707 10.985 260.013 10.185 262.427ZM194.598 258.853C195.452 265.84 198.665 272.733 204.052 277.36C207.692 277.293 210.945 275.347 214.305 274.133C206.945 270.093 201.225 263.893 194.598 258.853ZM257.998 283.773C268.398 288.48 279.558 291.787 288.865 298.613C288.625 297.373 288.398 296.133 288.172 294.907C279.505 290.667 273.425 281.547 263.172 280.907C268.305 274.92 276.318 273.853 283.145 270.813C273.078 268.427 261.652 273.947 257.998 283.773ZM301.025 269.72C302.998 273.28 305.398 276.587 308.292 279.467C309.145 274.52 305.412 271.027 301.025 269.72ZM225.745 272.867C225.732 276.733 225.705 280.613 225.758 284.48C233.705 277.907 243.705 275.147 253.732 273.733C244.545 271.84 235.052 273.227 225.745 272.867ZM344.492 272.36C346.092 277.093 348.692 281.453 352.758 284.48C352.438 281.573 352.825 278.293 350.705 275.96C348.972 274.24 346.638 273.4 344.492 272.36ZM53.8783 273.84C53.7183 276.28 53.585 278.733 53.465 281.173C56.545 282.52 59.665 284.133 63.1317 284.16C68.5183 284.627 73.5584 282.107 78.905 281.933C79.0917 285.067 79.2383 288.213 79.425 291.36C86.7317 293.747 94.5317 293.293 102.105 293.027C100.025 292.493 97.8783 292.227 95.7583 291.987C89.5983 285.76 83.1717 279.453 75.145 275.693C68.145 274.347 60.9183 275.107 53.8783 273.84ZM277.438 278.28C278.438 280.507 280.838 281.533 282.678 282.973C287.092 285.8 290.465 289.867 294.145 293.533C294.518 286.707 290.852 280.627 288.985 274.253C284.945 275.013 280.998 276.213 277.438 278.28ZM331.825 279.227C333.198 281.64 334.612 284.027 336.145 286.373C336.905 281.987 336.985 277.507 336.305 273.107C334.758 275.12 333.292 277.173 331.825 279.227ZM384.692 303.987C389.732 299.6 392.425 293.12 397.852 289.12C401.145 286.293 405.332 284.72 409.678 284.773C411.132 281.293 413.038 277.787 412.532 273.88C400.652 280.707 387.798 289.747 384.692 303.987ZM122.545 283.253C122.785 295.293 130.865 306.68 142.305 310.6C144.092 309.507 145.892 308.427 147.718 307.387C145.652 298.693 135.518 291.013 140.532 281.6C146.398 289.453 148.465 299.28 154.038 307.267C151.798 309.08 149.612 310.96 147.492 312.907C154.678 313.28 161.958 313.147 168.918 311.107C175.652 309.093 182.385 312.333 189.172 311.52C195.305 310.813 200.958 313.88 206.945 314.667C203.932 309.92 201.265 304.093 195.638 301.987C191.758 300.413 188.785 297.213 184.745 295.973C185.825 301.76 191.812 304.093 195.572 307.893C192.558 308.107 189.438 308.24 186.705 306.773C181.252 304.333 175.332 303.413 169.425 303.147C169.612 305.04 169.825 306.933 170.012 308.84C163.198 306.333 156.158 303.12 151.518 297.333C149.505 295.107 152.012 292.613 152.865 290.48C152.078 284.933 149.252 279.24 143.678 277.253C136.065 275.76 128.958 279.693 122.545 283.253ZM198.892 276.96C199.398 281.053 201.372 284.72 204.172 287.68C205.145 283.08 202.652 279.36 198.892 276.96ZM238.785 284.707C235.812 287.307 231.718 287.427 228.012 288.027C228.038 290.96 228.145 293.893 228.332 296.84C234.132 294.627 238.252 289.747 243.532 286.667C247.265 284.307 251.425 282.787 255.532 281.227C254.745 279.747 253.972 278.28 253.198 276.813C247.572 277.72 243.118 281.293 238.785 284.707ZM410.332 294.933C412.838 294.027 416.425 293.813 417.185 290.693C418.452 285.973 418.038 280.973 417.185 276.227C414.278 282.213 412.598 288.693 410.332 294.933ZM338.972 282.56C339.065 284.107 339.158 285.653 339.265 287.2C339.945 287.4 341.318 287.813 341.998 288.013C341.812 285.32 341.612 282.627 341.372 279.933C340.772 280.587 339.572 281.907 338.972 282.56ZM299.065 281.6C299.185 289.267 301.212 297.053 305.678 303.373C306.718 295.52 303.452 287.92 299.065 281.6ZM189.958 293.707C191.385 293.067 192.825 292.44 194.278 291.8C194.172 288.107 193.852 284.333 191.612 281.24C189.558 285.107 189.625 289.467 189.958 293.707ZM358.945 284.933C358.612 287.8 358.252 290.653 357.918 293.507C356.318 293.747 354.732 294 353.172 294.267C349.145 294.6 347.585 299.04 345.105 301.6C342.465 299.04 339.932 296.387 337.478 293.667C334.252 295.347 331.452 297.68 329.212 300.52C324.038 306.867 316.612 311.08 312.305 318.147C319.798 315.147 325.172 308.827 332.065 304.853C335.132 302.773 338.972 303.627 342.425 303.813C337.425 311.507 328.972 315.333 320.892 318.893C315.252 321.307 310.505 325.213 305.865 329.133C301.625 332.6 295.772 331.747 290.798 333.28C298.145 335.507 305.932 333.92 313.478 334.173C313.625 332.2 313.785 330.24 313.985 328.28C322.972 327.76 327.798 319.56 334.558 314.88C339.452 311.133 345.798 310.493 351.212 307.787C353.932 305.333 355.598 301.987 357.625 298.973C358.518 302.933 359.398 306.973 359.065 311.067C358.852 316.933 356.105 322.253 355.172 327.987C359.572 327.347 364.052 324.853 365.358 320.333C366.572 314.133 365.852 307.707 364.132 301.693C362.078 295.24 363.198 288.4 363.052 281.773C361.665 282.813 360.292 283.867 358.945 284.933ZM196.612 292C197.772 291.853 200.065 291.587 201.212 291.44C200.492 288.507 199.465 285.653 198.212 282.907C197.198 285.84 196.745 288.907 196.612 292ZM209.185 284.693C209.705 287.6 210.372 290.467 211.052 293.333C210.492 293.987 209.372 295.293 208.812 295.947C206.172 296.267 203.545 296.613 200.932 297C206.212 303.28 211.705 309.413 217.838 314.893C219.198 304.64 216.332 294.627 213.958 284.773C212.358 284.747 210.758 284.72 209.185 284.693ZM347.358 284.08C346.958 285.893 346.572 287.707 346.198 289.52C346.972 289.413 348.518 289.187 349.278 289.067C348.638 287.4 348.012 285.733 347.358 284.08ZM420.332 287.76C420.038 291.427 419.932 295.107 420.038 298.787C421.532 299.32 423.038 299.84 424.545 300.373C424.638 295.987 424.598 291.613 424.558 287.227C423.132 287.413 421.732 287.587 420.332 287.76ZM430.892 285.72C431.665 288.76 430.985 293.707 435.265 294.067C434.585 290.907 434.718 286.76 430.892 285.72ZM313.292 297.227C313.212 301.16 313.265 305.093 313.558 309.027C318.412 304.013 322.838 298.6 327.838 293.72C329.678 292.24 329.692 289.773 330.225 287.667C324.372 290.507 319.372 294.827 313.292 297.227ZM44.3184 289.547C51.545 293.867 59.9584 296.8 68.4917 295.907C62.7717 289.107 52.505 288.92 44.3184 289.547ZM256.332 289.533C253.838 295.787 256.172 303.6 262.158 306.947C262.945 304.973 263.678 302.987 264.452 301.013C269.785 299.64 275.252 298.933 280.638 297.8C272.785 294.32 264.225 292.92 256.332 289.533ZM231.865 303.12C232.065 312.72 235.972 321.613 238.292 330.8C239.678 335.587 239.798 340.627 240.625 345.52C244.038 338.053 247.918 330.707 250.118 322.773C246.972 322.573 243.838 322.413 240.705 322.213C240.212 319.6 239.945 316.933 239.145 314.4C237.225 311.667 234.678 309.16 234.572 305.613C238.252 303.747 242.798 302.707 245.145 299.013C246.838 296.493 246.865 293.347 247.198 290.453C241.732 294.24 237.158 299.107 231.865 303.12ZM28.8383 291.853C31.9717 297.187 36.9984 301.453 42.945 303.293C48.425 304.08 55.145 304.813 58.9717 299.907C54.0383 299.4 49.025 299.453 44.1717 298.347C38.8917 296.587 34.2383 293.32 28.8383 291.853ZM427.878 295.973C426.118 297.853 429.625 300.493 431.238 298.72C432.985 296.72 429.532 294.267 427.878 295.973ZM378.692 320.453C390.972 317.72 400.665 309.027 412.492 305.04C411.172 302.307 410.198 299.44 409.358 296.547C407.132 299.24 404.718 301.787 402.185 304.2C401.478 301.627 400.838 299.067 400.212 296.493C392.652 304 381.318 309.28 378.692 320.453ZM67.2917 307.92C66.1184 310.987 66.745 314.427 66.5584 317.653C73.145 310.613 82.7983 306.987 88.1717 298.787C80.3717 298.467 71.7984 301.173 67.2917 307.92ZM102.612 300.8C97.825 300.693 93.5184 303.56 90.3584 306.92C86.8384 310.04 87.4383 315.947 90.0517 319.453C97.4117 325.067 106.598 327.933 113.092 334.773C119.185 332.88 124.985 330.24 130.678 327.36C133.225 325.933 136.212 326.333 139.012 326.293C140.092 325.08 141.185 323.893 142.278 322.693C140.998 321.133 139.718 319.573 138.478 318C133.532 319.973 128.652 322.12 123.932 324.587C118.012 327.973 110.918 326.84 104.465 326.293C105.678 324.507 106.492 322.227 108.558 321.213C115.812 316.893 124.598 317.693 132.692 316.867C132.532 315.72 132.372 314.587 132.225 313.453C127.145 312.24 121.785 310.52 116.625 312.32C108.212 314.827 99.7983 320.36 90.7183 317.453C90.6383 317 90.4784 316.107 90.3984 315.653C97.6917 308.227 109.292 309.667 118.678 307.333C114.038 303.827 108.598 300.773 102.612 300.8ZM270.705 306.04C270.692 307.733 270.692 309.427 270.692 311.133C276.865 308.16 283.158 305.467 289.172 302.173C282.812 302.253 276.705 304.107 270.705 306.04ZM243.958 312.28C245.385 312.013 246.825 311.76 248.278 311.493C249.212 313.16 250.212 314.8 251.278 316.413C251.252 311.28 249.012 306.507 247.945 301.56C245.705 304.747 243.998 308.307 243.958 312.28ZM281.918 315.84C278.145 323.787 273.785 331.453 270.332 339.547C272.732 338.827 275.372 338.333 277.212 336.453C284.505 329.96 286.305 319.373 293.732 312.973C295.785 310.92 298.865 310.787 301.545 310.173C297.718 318.493 290.225 324.427 286.665 332.893C294.972 329.36 304.332 322.56 303.638 312.44C304.092 308.227 300.012 304.453 295.838 305.24C289.852 306.147 284.412 310.307 281.918 315.84ZM256.225 307.64C256.265 310.04 256.412 312.427 256.612 314.827C257.572 314.173 259.505 312.88 260.465 312.24C259.185 310.573 257.812 308.987 256.225 307.64ZM55.0784 331.747C57.785 334.187 61.385 335.333 64.0917 337.773C64.5317 340 64.7184 342.267 64.9984 344.533C66.5717 332.76 76.5317 324.973 80.025 314.053C73.6784 320.88 66.865 327.267 60.6117 334.187C59.505 332.027 57.745 330.08 57.4384 327.613C56.4917 320.84 62.505 315.56 62.0384 308.773C53.7984 313.053 52.065 323.68 55.0784 331.747ZM394.518 319.587C400.945 320.84 407.518 320.987 414.052 321.173C413.785 318.387 413.518 315.613 413.265 312.827C406.412 312.6 399.598 314.947 394.518 319.587ZM332.345 322.16C329.638 323.173 327.932 325.533 326.532 327.92C334.825 326.413 342.465 321.733 351.145 322.307C351.132 319.853 351.132 317.4 351.118 314.947C344.905 317.453 338.492 319.48 332.345 322.16ZM160.278 322.293C154.665 329.973 154.372 340.147 149.225 348.147C156.012 347.987 163.745 347.04 169.038 352.32C166.425 353.653 163.972 355.733 160.918 355.84C154.478 356.2 148.385 353.48 141.958 353.467C143.692 355.067 145.292 357.24 147.852 357.44C155.118 358.533 162.252 360.32 169.532 361.293C172.225 356.507 173.852 351.133 173.905 345.613C172.972 343.36 171.358 341.48 169.985 339.48C167.158 342.133 164.212 344.733 160.785 346.587C160.332 346.093 159.425 345.08 158.972 344.573C160.065 332.907 171.585 326.813 176.905 317.28C171.065 317.12 164.078 317 160.278 322.293ZM183.318 318.693C176.012 323.28 172.692 331.693 169.985 339.48C171.758 339.413 173.545 339.32 175.332 339.213C175.345 337.04 175.358 334.88 175.398 332.72C178.172 333.013 180.945 333.267 183.732 333.4C182.532 331.147 180.732 329.347 178.718 327.827C183.745 321.013 193.745 324.4 199.558 318.72C194.225 317.973 188.558 317.133 183.318 318.693ZM262.012 317.653C261.425 319.973 261.452 322.587 260.145 324.667C257.198 327.467 253.012 329.293 251.545 333.347C247.692 342.36 242.785 351.147 241.692 361.053C250.585 361.547 257.212 354.773 262.198 348.293C266.772 337.987 271.305 327.64 274.772 316.88C270.505 316.947 266.238 317.133 262.012 317.653ZM135.225 341.8C134.145 346.96 139.812 349.667 144.185 348.8C144.532 345.107 144.652 341.213 146.585 337.933C149.212 332.68 153.732 328.04 154.012 321.893C145.625 325.973 138.305 332.853 135.225 341.8ZM86.745 322.12C87.3717 325.8 87.2784 330.027 89.865 333.027C93.8117 337.893 99.3717 342.32 106.038 341.653C106.265 340.72 106.732 338.84 106.972 337.907C98.9717 334.36 93.3584 327.533 86.745 322.12ZM198.092 326.507C194.732 328.187 189.718 329.12 189.198 333.587C194.758 332.6 200.185 328.987 205.972 330.68C211.185 332.213 216.145 334.453 221.332 336.093C219.132 331.467 215.932 327.027 211.132 324.853C206.878 322.56 202.185 325.107 198.092 326.507ZM343.372 327.933C341.345 329.827 342.012 332.84 341.652 335.307C345.465 332.613 348.518 328.8 349.198 324.067C347.185 325.253 345.105 326.36 343.372 327.933ZM79.7183 326.36C76.7717 333.387 74.0917 340.533 70.6917 347.36C72.8917 349.56 75.1584 351.707 77.4117 353.867C78.8917 344.88 84.905 335.187 79.7183 326.36ZM388.745 328.107C396.052 332.573 404.332 335.307 412.838 336.267C413.305 335.173 413.772 334.08 414.252 333C412.225 332.6 410.212 332.213 408.198 331.853C408.172 330 408.145 328.16 408.132 326.32C401.638 326.44 394.972 325.88 388.745 328.107ZM40.0517 330.533C40.2517 333.12 40.4917 335.72 40.865 338.293C43.0517 335.547 44.7984 332.453 45.665 329.027C43.785 329.52 41.9183 330.027 40.0517 330.533ZM358.665 335.32C359.625 336.36 360.585 337.4 361.545 338.467C372.972 338.787 384.492 337.707 395.798 339.947C395.065 342.24 394.185 344.48 393.332 346.733C399.185 346.293 405.012 345.267 410.505 343.147C401.038 339.853 392.998 333.587 383.625 330.133C374.892 327.053 366.332 331.533 358.665 335.32ZM109.745 344.787C111.398 346.893 112.998 349.027 114.625 351.16C120.385 346.493 126.372 341.213 128.238 333.72C121.598 336.573 115.985 341.213 109.745 344.787ZM197.492 335.6C196.185 337.253 195.118 339.067 194.012 340.84C196.252 339.96 198.505 339.12 200.785 338.36C200.318 341.387 199.785 344.413 199.385 347.467C202.518 345.84 207.652 342.507 205.852 338.467C203.358 336.853 200.425 335.947 197.492 335.6ZM85.985 335.84C85.6517 341.493 85.0784 347.293 86.185 352.88C88.945 357.053 93.305 359.76 97.1984 362.773C94.9717 356.16 92.905 349.493 90.6917 342.88C89.905 340.067 87.865 337.96 85.985 335.84ZM213.972 338.8C211.958 348.547 203.105 354.373 199.678 363.387C207.892 358.56 213.358 349.147 223.545 347.893C221.012 360.28 205.518 360.813 199.772 370.813C209.492 369.427 217.252 361.787 227.425 362.053C228.185 356.6 227.838 350.893 225.305 345.92C223.638 341.24 218.425 339.533 213.972 338.8ZM294.225 343.12C302.038 343.933 309.905 343.813 317.758 343.907C317.865 342.36 317.985 340.827 318.118 339.293C309.945 338.96 301.918 340.4 294.225 343.12ZM330.598 354.493C335.425 353.573 340.038 351.907 344.625 350.2C342.918 357.4 337.625 363.053 334.492 369.693C335.745 372.173 336.958 374.693 338.118 377.24C339.972 376.693 341.825 376.12 343.692 375.573C341.998 373.987 340.278 372.427 338.585 370.867C341.598 367.987 343.812 364.547 344.345 360.333C346.625 361.933 348.905 363.56 351.198 365.16C351.025 362.293 351.638 359.147 350.078 356.56C346.665 350.293 342.212 344.667 337.985 338.933C333.972 343.24 331.678 348.76 330.598 354.493ZM360.638 342.293C363.132 345.867 366.318 349.307 370.718 350.36C377.852 351.453 384.852 349.08 391.625 347.16C381.518 344.507 371.198 341.48 360.638 342.293ZM96.4384 344.72C98.3584 349.653 101.132 354.187 103.745 358.773C105.972 357.613 108.172 356.427 110.372 355.2C110.198 354.4 109.852 352.787 109.678 351.973C105.145 349.76 100.945 346.96 96.4384 344.72ZM288.612 346.827C297.172 351.187 306.065 355.013 315.372 357.48C315.372 355.627 315.372 353.773 315.385 351.92C309.358 351.6 303.665 349.707 298.158 347.36C295.158 345.853 291.772 346.187 288.612 346.827ZM273.678 349.32C273.625 350.507 273.598 351.68 273.558 352.867C277.892 354.387 282.252 355.96 286.892 356.187C287.012 352.787 287.105 349.4 287.172 346C282.678 347.147 278.198 348.36 273.678 349.32ZM194.185 348.987C194.878 352.387 196.398 355.52 198.372 358.373C199.492 354.853 200.492 351.293 201.412 347.707C198.998 348.12 196.585 348.56 194.185 348.987ZM178.198 351.387C177.065 355.173 176.505 359.093 176.385 363.04C176.185 368.68 174.092 374 173.465 379.573C177.905 374.947 178.518 368.333 180.892 362.653C182.532 359.28 181.918 355.507 181.705 351.92C180.825 351.787 179.078 351.52 178.198 351.387ZM187.718 349.987C186.998 355.52 187.958 361.133 187.092 366.64C184.918 371.547 181.785 376.013 180.118 381.16C185.465 377.573 189.665 372.28 191.825 366.2C193.038 360.627 193.012 353.533 187.718 349.987ZM357.745 351.613C357.852 356.267 357.985 360.92 357.945 365.587C360.572 364.853 363.198 364.067 365.825 363.293C364.625 358.52 361.838 354.387 357.745 351.613ZM124.225 354.933C120.558 361.027 119.078 368.053 118.305 375.04C117.785 380.307 113.772 384.093 111.198 388.413C111.092 390.56 112.158 391.387 114.372 390.867C120.452 391.147 124.332 385.013 126.905 380.293C128.412 371.88 127.345 362.92 124.225 354.933ZM135.145 356.693C133.318 368.453 141.505 378.733 151.038 384.493C145.398 375.373 144.385 363.4 135.145 356.693ZM102.318 366.573C103.732 370.147 105.652 373.48 107.572 376.8C108.438 376.52 110.158 375.947 111.025 375.667C113.452 370.547 115.598 365.28 116.572 359.667C111.572 361.427 106.945 364.027 102.318 366.573ZM261.785 360.947C257.892 363.373 259.145 368.36 257.852 372.12C256.038 377.08 253.558 381.76 251.732 386.72C255.972 383.493 259.665 379.547 261.972 374.693C264.612 369.2 269.252 365.187 273.412 360.893C269.585 360.453 265.478 359.253 261.785 360.947ZM73.225 366.68C76.425 366.613 79.625 366.547 82.8383 366.4C81.025 364.973 79.2117 363.573 77.3584 362.2C75.985 363.693 74.6117 365.2 73.225 366.68ZM148.998 363.173C155.865 367.707 164.785 369.507 169.372 376.96C166.625 377.053 163.718 377.72 161.065 376.773C157.105 374.627 153.865 371.413 150.372 368.627C153.052 374.56 155.972 380.44 157.598 386.787C160.612 386.56 163.785 386.973 166.678 385.92C172.065 381.507 169.585 373.787 169.745 367.8C162.932 365.853 156.158 363.36 148.998 363.173ZM279.092 363.547C276.505 367.6 273.905 371.773 270.145 374.853C266.678 377.667 263.345 380.68 260.892 384.44C264.958 382.92 268.865 380.88 272.105 377.96C276.212 374.28 281.185 371.88 286.025 369.32C283.758 367.32 281.412 365.44 279.092 363.547ZM293.878 363.8C299.812 371.2 309.212 373.987 317.692 377.32C318.425 372.573 317.945 367.76 315.372 363.627C308.212 363.36 301.038 363.32 293.878 363.8ZM189.945 382.307C200.638 382.56 210.865 378.12 221.625 379.867C221.812 381.24 222.012 382.627 222.225 384.013C217.918 386.773 213.025 388.8 207.838 388.813C199.198 388.96 190.532 388.533 181.918 389.493C185.825 391.573 189.932 393.467 194.438 393.72C202.305 394.413 209.638 397.64 216.452 401.467C216.105 402.267 215.385 403.88 215.025 404.693C212.678 405.2 210.318 405.733 207.998 406.347C211.025 408.027 214.185 409.453 217.358 410.84C222.452 400.893 224.785 389.907 227.078 379.053C227.678 375.16 227.652 371.2 227.758 367.28C216.438 375.493 199.985 372.013 189.945 382.307ZM363.878 367.64C361.358 367.64 361.198 371.933 363.785 372C366.198 372 366.332 367.707 363.878 367.64ZM239.852 393.987C247.305 389.32 251.985 380.48 251.318 371.68C245.038 377.427 240.705 385.493 239.852 393.987ZM270.265 383.787C278.585 384.147 286.572 381.12 294.918 381.213C293.598 378.44 292.212 375.733 290.878 372.973C284.558 377.547 277.252 380.427 270.265 383.787ZM368.425 373.253C368.105 376.653 368.052 380.067 368.398 383.467C369.785 383.613 371.185 383.773 372.598 383.947C372.412 380.293 371.998 376.667 371.332 373.08C370.598 373.12 369.145 373.213 368.425 373.253ZM378.492 372.32C380.052 374.427 381.905 376.28 383.932 377.947C384.078 376.2 384.238 374.44 384.398 372.693C382.918 372.6 379.972 372.413 378.492 372.32ZM375.332 376.133C375.158 377.907 374.998 379.68 374.852 381.467C376.465 381.28 378.105 381.093 379.745 380.907C378.252 379.333 376.798 377.733 375.332 376.133ZM305.132 379.84C309.732 390.213 323.785 393.92 325.172 405.947C315.252 403.613 310.825 393.787 304.145 387.187C303.558 392.173 304.345 397.613 308.585 400.853C315.785 406.333 324.505 409.333 332.718 412.947C331.265 402.573 327.305 391.947 319.065 385.067C315.132 381.773 309.878 381.28 305.132 379.84ZM136.425 381.4C137.345 389.08 141.052 395.947 143.318 403.24C144.758 407.373 144.532 411.813 145.065 416.107C147.732 410.96 150.398 405.12 149.252 399.187C146.332 392.44 141.732 386.453 136.425 381.4ZM279.825 387.533C272.398 386.387 263.732 386.493 257.678 391.493C265.092 391.667 272.652 389.187 279.892 391.813C277.878 393.907 275.865 396.013 273.918 398.173C278.652 398.467 283.758 399.253 288.145 396.933C292.558 395.093 296.878 391.64 296.812 386.413C291.225 387.613 285.505 388.307 279.825 387.533ZM123.998 391.48C128.518 391.68 121.865 395.4 123.998 391.48ZM130.452 397.987C132.065 398.693 133.692 399.427 135.318 400.147C135.132 397.453 134.932 394.76 134.665 392.067C133.265 394.04 131.865 396.013 130.452 397.987ZM157.025 394.133C161.465 400.827 169.465 403.507 174.892 409.187C177.238 411.853 180.372 413.36 183.958 413.493C179.838 402.32 167.425 397.667 157.025 394.133ZM174.532 393.253C179.652 401.067 189.358 404.373 198.398 403.547C191.252 398.733 183.425 393.52 174.532 393.253ZM103.145 396.68C103.318 398.573 104.198 398.893 105.758 397.64C105.572 395.733 104.692 395.4 103.145 396.68ZM232.638 420.84C237.358 414.747 240.465 407.24 247.105 402.827C250.398 405.427 254.225 407.2 257.758 409.44C259.292 407.68 260.825 405.92 262.358 404.147C257.852 403.333 252.238 403.253 250.652 397.973C239.292 398.08 232.158 410.507 232.638 420.84ZM109.518 403.48C109.465 405.04 109.425 406.613 109.385 408.187C113.692 408.24 117.572 406.467 121.158 404.24C119.092 403 117.292 400.587 114.678 400.787C112.892 401.533 111.225 402.56 109.518 403.48ZM156.265 401.547C159.678 408 165.012 413 170.332 417.867C174.852 421.96 176.758 427.893 178.158 433.653C167.478 432.773 167.318 419.4 160.038 413.973C161.732 421.24 165.185 428.12 164.718 435.787C173.998 437.52 183.652 436.747 192.412 433.107C192.558 432.027 192.852 429.88 192.998 428.8C190.518 429.587 188.038 430.413 185.572 431.24C185.345 430.12 184.878 427.867 184.652 426.747C182.705 426.56 180.758 426.373 178.825 426.187C178.918 423.467 179.105 420.76 179.318 418.067C170.878 414.293 164.118 408.053 158.078 401.2C157.625 401.28 156.718 401.453 156.265 401.547ZM262.652 404.907C263.412 406.813 264.172 408.72 264.958 410.64C269.518 408.507 274.078 406.32 278.452 403.787C273.172 403.107 267.718 403.093 262.652 404.907ZM187.665 405.853C188.118 409.093 189.158 412.213 190.492 415.2C191.798 413 193.118 410.813 194.412 408.613C192.158 407.68 189.918 406.747 187.665 405.853ZM264.745 416.533C267.772 417.84 271.132 418.893 274.412 417.787C281.145 415.867 288.158 411.733 290.385 404.667C282.078 409.147 273.092 412.147 264.745 416.533ZM297.065 406.84C295.465 410.747 294.092 414.72 292.665 418.68C293.625 419.547 294.598 420.413 295.585 421.293C297.252 420.267 298.505 417.867 300.705 418.173C302.078 421.187 303.345 424.307 305.425 426.933C305.652 423.467 305.678 420 305.745 416.533C304.265 416.827 302.665 417.027 301.305 416.24C299.105 413.747 300.718 409.32 300.278 406.067C299.198 406.333 298.118 406.587 297.065 406.84ZM306.372 405.48C308.092 409.027 309.638 413.227 313.332 415.2C315.918 416.027 318.652 415.147 321.292 414.933C317.825 409.867 312.252 406.8 306.372 405.48ZM113.518 416.573C117.732 415.76 120.332 412.4 121.278 408.373C117.478 409.76 114.332 412.453 113.518 416.573ZM152.732 407.573C151.478 417.293 149.692 426.947 146.465 436.24C150.305 436.213 154.145 436.08 157.985 435.907C157.652 429.373 156.652 422.907 156.345 416.373C156.305 413.067 154.438 410.24 152.732 407.573ZM131.118 410.733C132.012 412.813 132.825 414.92 133.598 417.053C134.652 417.2 136.745 417.48 137.785 417.613C137.545 415.12 137.265 412.627 136.932 410.147C134.985 410.333 133.052 410.533 131.118 410.733ZM118.465 420.44C120.158 420.933 121.852 421.427 123.558 421.92C123.318 419.293 123.092 416.68 122.758 414.067C121.278 416.16 119.852 418.293 118.465 420.44ZM130.172 422.693C130.185 419.92 130.025 417.16 129.732 414.413C127.972 417.24 125.852 420.96 130.172 422.693ZM202.465 418.16C204.332 420.427 206.038 422.827 207.972 425.053C211.545 423.4 212.425 419.093 213.478 415.68C210.598 415.187 207.718 414.693 204.838 414.213C204.038 415.52 203.265 416.84 202.465 418.16ZM243.145 415.8C239.025 420.44 235.278 425.413 232.398 430.933C234.985 434.547 238.038 438.227 242.505 439.467C248.185 437.6 252.918 433.733 258.078 430.8C258.038 429.787 257.972 427.787 257.932 426.787C255.132 428.6 252.358 430.453 249.505 432.16C248.825 429.787 248.398 427.347 248.158 424.893C245.785 424.36 243.412 423.827 241.078 423.253C242.572 421.453 244.145 419.693 245.772 417.987C244.878 417.267 244.012 416.533 243.145 415.8ZM281.038 425.547C277.105 430.547 272.332 435.067 269.892 441.08C274.078 442.427 278.372 443.413 282.732 444.107C281.372 434.267 289.092 426.653 289.678 417.147C286.398 419.52 283.532 422.373 281.038 425.547ZM313.132 420.307C311.385 421.653 313.385 425.133 315.385 423.693C317.145 422.347 315.105 418.853 313.132 420.307ZM255.278 441.013C257.918 441.133 260.572 441.213 263.225 441.267C267.385 435.307 272.585 430.187 276.852 424.307C267.958 427.253 261.718 434.627 255.278 441.013ZM176.692 442.48C176.545 443.147 176.252 444.453 176.105 445.107C181.772 445.84 187.678 445.6 192.025 441.453C186.865 440.947 181.772 441.773 176.692 442.48Z" fill="#0D0D0D"/>
<path d="M157.371 20.5859C162.918 25.0259 163.478 32.9193 165.758 39.2526C160.785 34.3726 152.958 28.4526 157.371 20.5859Z" fill="#0D0D0D"/>
<path d="M137.879 36.7592C141.519 32.4658 144.479 27.5858 148.706 23.8125C146.732 29.7458 143.386 35.1992 138.332 39.0125C138.226 38.4525 137.999 37.3192 137.879 36.7592Z" fill="#0D0D0D"/>
<path d="M168.545 31.9602C169.799 31.8269 171.066 31.6935 172.332 31.5469C172.412 34.8802 172.546 38.2269 172.652 41.5602C171.266 40.4802 169.879 39.3869 168.492 38.3202C168.492 36.2002 168.505 34.0802 168.545 31.9602Z" fill="#0D0D0D"/>
<path d="M150.425 33.8145C151.758 32.3612 153.812 33.3345 155.452 33.4945C153.452 37.4679 149.718 40.1612 147.532 44.0012C145.065 48.2279 141.838 51.8945 138.385 55.3079C149.585 59.0945 159.718 65.2812 168.905 72.6545C167.932 73.0145 165.998 73.7345 165.025 74.0945C156.038 66.4812 145.705 57.7879 133.132 58.9212C122.758 60.1079 116.905 69.5612 108.358 74.2412C105.478 76.0945 104.545 79.6145 103.092 82.5212C102.065 82.6279 100.012 82.8545 98.9716 82.9745C99.5182 72.4812 109.798 66.7212 118.998 64.8279C119.132 62.5479 119.265 60.2679 119.398 58.0012C114.185 58.5079 108.892 59.3345 104.318 62.0545C97.8116 64.9345 97.7582 73.0812 93.8116 78.2279C93.6916 75.6545 93.6382 73.0812 93.5582 70.5079C86.2516 74.7745 81.8116 82.3212 79.1182 90.1212C78.5449 93.5879 74.3449 92.6145 71.8516 93.4812C76.9182 83.2945 82.8516 73.0145 92.1716 66.1345C98.3049 61.3345 105.638 58.5212 112.638 55.2812C108.678 53.9879 104.665 52.7745 100.905 50.9479C105.732 49.7479 110.758 49.3479 115.452 47.6012C118.998 46.5745 122.545 44.8545 126.345 45.2412C130.585 45.7212 134.812 47.1612 139.118 46.4545C143.785 43.1079 146.012 37.4412 150.425 33.8145ZM116.118 53.8145C122.185 55.1745 128.558 55.0945 134.638 53.8012C128.812 51.3745 121.838 50.7479 116.118 53.8145Z" fill="#0D0D0D"/>
<path d="M340.611 44.9854C342.011 40.1854 345.145 36.172 348.225 32.332C350.905 38.8787 347.051 46.2387 342.385 50.8654C341.678 48.9854 339.851 47.1454 340.611 44.9854Z" fill="#0D0D0D"/>
<path d="M154.719 40.3984C157.892 43.1984 161.012 46.3851 161.639 50.7851C159.359 49.3051 157.119 47.7718 154.825 46.3318C154.772 44.3451 154.732 42.3718 154.719 40.3984Z" fill="#0D0D0D"/>
<path d="M356.186 42.2007C357.626 40.3207 360.093 39.894 362.173 39.0273C361.386 46.894 356.706 53.4807 351.386 59.0007C347.799 52.9207 352.266 46.7607 356.186 42.2007Z" fill="#0D0D0D"/>
<path d="M169.934 46.467C172.654 46.5203 175.36 46.4403 178.08 46.3203C177.094 51.307 175.987 56.2936 174.52 61.1603C173.08 56.227 171.854 51.227 169.934 46.467Z" fill="#0D0D0D"/>
<path d="M360.466 55.9873C365.746 52.7873 371.359 49.374 377.812 49.854C374.332 56.6673 367.412 61.094 360.039 62.574C360.172 60.374 360.319 58.1873 360.466 55.9873Z" fill="#0D0D0D"/>
<path d="M185.892 93.5321C186.812 79.6654 181.599 64.4787 189.012 51.7188C192.999 59.8521 191.199 69.3188 188.012 77.3854C185.225 84.0254 188.225 91.5854 192.532 96.8521C194.332 98.7854 194.092 101.532 194.372 103.972C190.839 103.585 186.239 105.025 183.852 101.612C179.905 96.4254 176.519 90.7721 171.559 86.4121C172.545 84.4654 173.479 82.4921 174.399 80.5187C176.039 84.9054 178.465 88.9188 180.865 92.9054C182.119 93.0654 184.639 93.3721 185.892 93.5321Z" fill="#0D0D0D"/>
<path d="M196.332 66.2006C196.305 59.6406 201.612 55.3472 206.719 52.2539C204.439 57.6139 202.185 63.8406 196.332 66.2006Z" fill="#0D0D0D"/>
<path d="M161.586 54.9609C162.959 55.6943 164.333 56.4409 165.719 57.1876C165.813 58.5609 165.919 59.9343 166.039 61.3209C164.599 61.2409 163.173 61.1743 161.746 61.1076C161.679 59.0543 161.626 57.0009 161.586 54.9609Z" fill="#0D0D0D"/>
<path d="M74.1992 65.2533C77.5459 58.04 86.7992 56.8133 93.2525 60.3733C87.0525 62.5467 80.8792 65.1867 74.1992 65.2533Z" fill="#0D0D0D"/>
<path d="M124.386 71.6653C128.013 68.5453 132.666 67.092 137.226 65.9453C136.186 68.6253 135.68 71.9587 132.92 73.492C128.44 76.5587 124.013 79.7187 119.746 83.0653C127.12 86.9587 133.04 92.8786 140.04 97.3186C136.426 97.3053 132.546 97.0653 129.866 94.3053C125.613 89.9187 120.16 87.1053 114.68 84.5853C118.08 80.3987 120.12 75.132 124.386 71.6653Z" fill="#0D0D0D"/>
<path d="M202.277 76.9316C204.944 74.2249 207.837 71.7449 210.704 69.2383C210.931 71.3449 211.171 73.4383 211.397 75.5449C208.477 76.6516 205.304 79.1983 202.277 76.9316Z" fill="#0D0D0D"/>
<path d="M71.6516 75.3056C75.7049 74.0389 79.2916 71.0123 83.7583 71.5723C80.1983 74.6656 76.1316 77.1056 71.9316 79.2256C66.3049 81.9589 60.8249 86.0256 54.2383 85.4656C56.5449 82.4923 58.8383 79.3589 62.0649 77.3189C64.9049 75.4123 68.4649 75.9856 71.6516 75.3056Z" fill="#0D0D0D"/>
<path d="M194.01 69.4531C196.757 71.5998 199.65 73.7865 201.464 76.8265C201.997 82.8131 201.037 88.8665 201.957 94.8265C202.637 98.1998 203.664 101.493 204.33 104.866C198.557 101.093 198.824 93.5465 196.224 87.7998C193.637 82.0531 193.384 75.6398 194.01 69.4531Z" fill="#0D0D0D"/>
<path d="M261.332 99.5203C263.879 89.2003 263.985 75.3336 275.239 70.3203C275.759 76.3336 272.665 81.6803 270.385 87.0136C268.319 91.787 265.492 96.307 261.332 99.5203Z" fill="#0D0D0D"/>
<path d="M142.973 76.1063C152.706 74.1729 161.586 79.5329 169.159 84.9463C162.919 85.7996 156.799 83.9996 150.733 82.8929C146.986 82.4263 145.026 78.8129 142.973 76.1063Z" fill="#0D0D0D"/>
<path d="M206.344 81.2514C210.464 80.6114 214.331 79.0647 217.771 76.6914C218.224 77.6647 219.131 79.5847 219.584 80.5447C217.931 82.3981 216.251 84.2114 214.597 86.0514C216.557 94.6781 218.904 103.211 221.691 111.611C222.451 113.985 222.837 116.451 222.891 118.945C220.157 114.425 217.197 110.011 214.917 105.238C211.197 97.6114 206.304 90.0647 206.344 81.2514Z" fill="#0D0D0D"/>
<path d="M132.027 79.4648C137.681 80.0648 142.747 82.8248 147.081 86.3848C151.601 90.1848 157.001 93.4515 159.534 99.0382C153.934 97.0248 148.841 93.9182 143.654 91.0515C138.894 88.2782 133.361 85.3448 132.027 79.4648Z" fill="#0D0D0D"/>
<path d="M85.6641 92.2001C86.1307 87.4001 89.7974 83.5601 94.1307 81.7734C93.064 87.4401 91.6507 93.0801 89.184 98.3334C88.0374 96.2934 85.9707 94.5734 85.6641 92.2001Z" fill="#0D0D0D"/>
<path d="M95.3052 87.5078C98.5719 89.0411 101.892 90.4545 105.225 91.8278C101.865 91.8678 98.5185 91.9212 95.1719 91.7345C95.1985 90.3212 95.2519 88.9211 95.3052 87.5078Z" fill="#0D0D0D"/>
<path d="M51.8516 93.6017C55.5849 89.0817 61.3849 90.1884 66.5582 90.6151C63.7582 93.6151 60.9582 96.6017 58.0916 99.5351C55.9449 97.6284 53.8916 95.6151 51.8516 93.6017Z" fill="#0D0D0D"/>
<path d="M59.1038 103.866C63.8638 101.906 67.5704 98.226 71.4637 94.9727C70.3837 99.7993 68.9571 104.533 67.9571 109.359C72.4904 109.266 76.9038 108.173 81.0238 106.293C79.7971 103.133 78.3704 100.053 77.0238 96.9593C78.0104 97.0127 79.9704 97.1193 80.9438 97.1593C83.5304 101.253 86.6237 105.159 87.8371 109.946C82.4637 110.013 77.0237 110.879 72.0504 112.946C68.3704 114.479 68.6238 119.066 67.8904 122.333C63.5438 122.533 59.2104 122.279 54.8771 122.493C51.3171 114.599 44.4371 107.759 44.6371 98.586C49.5437 100.213 53.4371 105.719 59.1038 103.866ZM56.6504 119.693C58.5838 118.839 60.9571 118.453 62.0104 116.386C60.6104 113.679 58.5837 111.386 56.5037 109.186C56.3171 112.693 56.4238 116.186 56.6504 119.693Z" fill="#0D0D0D"/>
<path d="M116.398 97.9336C117.692 98.0669 118.998 98.2136 120.305 98.3603C120.918 99.3603 121.545 100.374 122.172 101.387C120.252 101.294 118.332 101.2 116.425 101.107C116.412 100.307 116.398 98.7203 116.398 97.9336Z" fill="#0D0D0D"/>
<path d="M37.5977 108.133C41.731 109.573 45.1043 112.359 48.0243 115.546C45.611 116.306 43.171 117.013 40.731 117.679C39.3177 114.626 38.1977 111.453 37.5977 108.133Z" fill="#0D0D0D"/>
<path d="M183.773 143.172C189.227 143.745 194.413 146.025 198.427 149.799C203.867 154.892 209.12 160.332 213.04 166.732C207.133 166.599 203.053 162.079 198.427 159.079C192.493 154.932 185.68 150.679 183.773 143.172Z" fill="#0D0D0D"/>
<path d="M251.211 147.826C255.411 146.719 259.571 145.506 263.824 144.586C261.851 147.813 259.691 150.933 257.224 153.813C255.171 151.853 253.158 149.879 251.211 147.826Z" fill="#0D0D0D"/>
<path d="M211.773 149.188C214.4 149.974 217.307 150.801 218.893 153.268C223.267 159.254 226.24 166.241 228.067 173.414C226.213 172.694 223.947 172.548 222.72 170.788C217.76 164.414 212.947 157.374 211.773 149.188Z" fill="#0D0D0D"/>
<path d="M301.866 149.055C305.586 152.215 308.226 156.721 308.293 161.695C308.426 167.388 308.333 173.095 308.466 178.788C307.453 178.548 305.44 178.055 304.44 177.801C302.093 168.428 298.586 158.708 301.866 149.055Z" fill="#0D0D0D"/>
<path d="M55.2243 157.119C57.9043 156.372 60.7443 156.745 63.5043 156.719C63.331 157.959 63.1843 159.185 63.0243 160.425C57.7043 160.625 52.6643 162.425 47.5977 163.839C49.7977 161.265 52.1577 158.692 55.2243 157.119Z" fill="#0D0D0D"/>
<path d="M38.4922 180.108C39.2789 174.801 43.6922 171.695 48.6655 170.668C47.6655 171.815 46.6655 172.948 45.6655 174.068C46.1855 175.295 46.7188 176.521 47.2522 177.748C44.3855 178.735 41.4789 179.615 38.4922 180.108Z" fill="#0D0D0D"/>
<path d="M257.199 189.775C260.159 183.535 263.919 176.842 270.945 174.602C270.119 181.348 266.199 187.095 262.839 192.815C259.479 197.735 256.332 203.148 251.105 206.335C251.479 200.308 254.772 195.122 257.199 189.775Z" fill="#0D0D0D"/>
<path d="M1.71875 211.919C6.23875 202.172 17.8521 196.785 28.2654 198.545C24.2921 203.252 18.0388 204.772 13.2921 208.505C10.0254 211.199 5.85208 212.012 1.71875 211.919Z" fill="#0D0D0D"/>
<path d="M128.544 281.922C136.864 287.722 138.504 298.215 143.438 306.429C142.184 306.375 139.678 306.295 138.424 306.255C135.078 301.522 130.704 297.375 128.491 291.922C127.891 288.615 128.344 285.242 128.544 281.922Z" fill="#0D0D0D"/>
<path d="M253.12 342.746C255.987 335.626 258.134 327.159 265.72 323.586C265.947 329.733 262.36 334.986 259.76 340.279C256.707 345.826 254.974 352.346 249.934 356.559C248.68 351.626 251.6 347.213 253.12 342.746Z" fill="#0D0D0D"/>
</svg>
