<svg width="581" height="42" viewBox="0 0 581 42" fill="none" xmlns="http://www.w3.org/2000/svg">
<path d="M12.375 41.54C10.275 41.54 8.4 41.045 6.75 40.055C5.13 39.065 3.87 37.73 2.97 36.05C2.07 34.37 1.62 32.555 1.62 30.605C1.62 28.265 2.22 26.255 3.42 24.575C4.65 22.865 6.195 21.575 8.055 20.705C9.945 19.835 11.865 19.4 13.815 19.4C15.915 19.4 17.76 19.925 19.35 20.975C20.97 21.995 22.2 23.33 23.04 24.98C23.91 26.63 24.345 28.355 24.345 30.155C24.345 32.165 23.805 34.055 22.725 35.825C21.645 37.565 20.19 38.96 18.36 40.01C16.53 41.03 14.535 41.54 12.375 41.54ZM13.545 40.595C15.885 40.595 17.745 39.77 19.125 38.12C20.535 36.47 21.24 34.19 21.24 31.28C21.24 29.27 20.88 27.44 20.16 25.79C19.47 24.14 18.45 22.82 17.1 21.83C15.75 20.84 14.145 20.345 12.285 20.345C9.885 20.345 8.025 21.155 6.705 22.775C5.385 24.365 4.725 26.6 4.725 29.48C4.725 31.55 5.07 33.425 5.76 35.105C6.48 36.785 7.5 38.12 8.82 39.11C10.17 40.1 11.745 40.595 13.545 40.595ZM54.4567 24.35C54.4567 22.85 54.2167 21.83 53.7367 21.29C53.2567 20.75 52.3267 20.48 50.9467 20.48C50.8567 20.48 50.8117 20.39 50.8117 20.21C50.8117 20.03 50.8567 19.94 50.9467 19.94L52.7467 19.985C53.6467 20.045 54.3667 20.075 54.9067 20.075C55.3267 20.075 55.9567 20.045 56.7967 19.985L58.5067 19.94C58.5667 19.94 58.5967 20.03 58.5967 20.21C58.5967 20.39 58.5667 20.48 58.5067 20.48C57.3067 20.48 56.4817 20.75 56.0317 21.29C55.6117 21.83 55.4017 22.85 55.4017 24.35V32.72C55.4017 35.51 54.6217 37.685 53.0617 39.245C51.5017 40.805 49.4017 41.585 46.7617 41.585C45.0817 41.585 43.5517 41.255 42.1717 40.595C40.7917 39.905 39.6967 38.93 38.8867 37.67C38.0767 36.41 37.6717 34.91 37.6717 33.17V23.585C37.6717 22.685 37.5817 22.025 37.4017 21.605C37.2517 21.185 36.9367 20.9 36.4567 20.75C36.0067 20.57 35.3017 20.48 34.3417 20.48C34.2517 20.48 34.2067 20.39 34.2067 20.21C34.2067 20.03 34.2517 19.94 34.3417 19.94L36.3667 19.985C37.4467 20.045 38.3017 20.075 38.9317 20.075C39.6817 20.075 40.6267 20.045 41.7667 19.985L43.7017 19.94C43.7917 19.94 43.8367 20.03 43.8367 20.21C43.8367 20.39 43.7917 20.48 43.7017 20.48C42.7417 20.48 42.0217 20.57 41.5417 20.75C41.0617 20.93 40.7317 21.245 40.5517 21.695C40.4017 22.115 40.3267 22.775 40.3267 23.675V32C40.3267 34.79 41.0167 36.86 42.3967 38.21C43.8067 39.53 45.6067 40.19 47.7967 40.19C49.8667 40.19 51.4867 39.56 52.6567 38.3C53.8567 37.01 54.4567 35.18 54.4567 32.81V24.35ZM77.4573 40.46C77.5173 40.46 77.5473 40.55 77.5473 40.73C77.5473 40.91 77.5173 41 77.4573 41C76.6173 41 75.9723 40.985 75.5223 40.955L72.6873 40.91L70.0323 40.955C69.5223 40.985 68.8323 41 67.9623 41C67.9023 41 67.8723 40.91 67.8723 40.73C67.8723 40.55 67.9023 40.46 67.9623 40.46C68.9523 40.46 69.6723 40.385 70.1223 40.235C70.6023 40.085 70.9323 39.8 71.1123 39.38C71.2923 38.93 71.3823 38.255 71.3823 37.355V23.585C71.3823 22.685 71.2923 22.025 71.1123 21.605C70.9623 21.185 70.6473 20.9 70.1673 20.75C69.7173 20.57 68.9973 20.48 68.0073 20.48C67.9473 20.48 67.9173 20.39 67.9173 20.21C67.9173 20.03 67.9473 19.94 68.0073 19.94L70.0773 19.985C71.1573 20.045 72.0273 20.075 72.6873 20.075C73.2273 20.075 73.7223 20.06 74.1723 20.03C74.6523 20 75.0573 19.97 75.3873 19.94C76.3473 19.85 77.2323 19.805 78.0423 19.805C79.9923 19.805 81.4773 20.18 82.4973 20.93C83.5173 21.68 84.0273 22.76 84.0273 24.17C84.0273 25.4 83.6673 26.54 82.9473 27.59C82.2273 28.64 81.2373 29.48 79.9773 30.11C78.7173 30.71 77.3373 31.01 75.8373 31.01C74.8773 31.01 74.0523 30.95 73.3623 30.83L73.3173 29.93C74.0673 30.14 75.0123 30.245 76.1523 30.245C78.0123 30.245 79.3023 29.84 80.0223 29.03C80.7723 28.19 81.1473 26.975 81.1473 25.385C81.1473 22.085 79.7223 20.435 76.8723 20.435C75.7323 20.435 74.9823 20.675 74.6223 21.155C74.2923 21.635 74.1273 22.475 74.1273 23.675V37.355C74.1273 38.285 74.2023 38.96 74.3523 39.38C74.5023 39.8 74.8023 40.085 75.2523 40.235C75.7023 40.385 76.4373 40.46 77.4573 40.46ZM90.8223 40.46C90.8823 40.46 90.9123 40.55 90.9123 40.73C90.9123 40.91 90.8823 41 90.8223 41H85.5573C85.0173 41 84.0423 40.07 82.6323 38.21C81.2223 36.35 79.5423 33.8 77.5923 30.56L79.9773 29.615C81.7173 32.465 83.1723 34.655 84.3423 36.185C85.5123 37.715 86.5923 38.81 87.5823 39.47C88.6023 40.13 89.6823 40.46 90.8223 40.46Z" fill="#1F1F1F"/>
<path d="M115.65 37.175C115.65 38.045 115.725 38.69 115.875 39.11C116.055 39.53 116.37 39.83 116.82 40.01C117.3 40.19 118.005 40.28 118.935 40.28H121.95C123.51 40.28 124.755 39.785 125.685 38.795C126.645 37.805 127.29 36.44 127.62 34.7C127.62 34.64 127.68 34.61 127.8 34.61C127.89 34.61 127.965 34.625 128.025 34.655C128.115 34.685 128.16 34.73 128.16 34.79C127.95 36.17 127.845 38.015 127.845 40.325C127.845 40.565 127.785 40.745 127.665 40.865C127.575 40.955 127.41 41 127.17 41H109.575C109.515 41 109.485 40.91 109.485 40.73C109.485 40.55 109.515 40.46 109.575 40.46C110.565 40.46 111.285 40.385 111.735 40.235C112.185 40.085 112.485 39.8 112.635 39.38C112.785 38.93 112.86 38.255 112.86 37.355V23.585C112.86 22.685 112.77 22.025 112.59 21.605C112.44 21.185 112.14 20.9 111.69 20.75C111.24 20.57 110.535 20.48 109.575 20.48C109.515 20.48 109.485 20.39 109.485 20.21C109.485 20.03 109.515 19.94 109.575 19.94L111.6 19.985C112.74 20.045 113.625 20.075 114.255 20.075C115.005 20.075 115.95 20.045 117.09 19.985L118.98 19.94C119.07 19.94 119.115 20.03 119.115 20.21C119.115 20.39 119.07 20.48 118.98 20.48C117.99 20.48 117.27 20.57 116.82 20.75C116.37 20.9 116.055 21.2 115.875 21.65C115.725 22.07 115.65 22.73 115.65 23.63V37.175ZM144.535 29.84H152.725L153.04 30.65H143.815L144.535 29.84ZM161.05 40.46C161.17 40.46 161.23 40.55 161.23 40.73C161.23 40.91 161.17 41 161.05 41C160.51 41 159.64 40.97 158.44 40.91C157.24 40.85 156.37 40.82 155.83 40.82C155.35 40.82 154.72 40.85 153.94 40.91C153.16 40.97 152.56 41 152.14 41C152.02 41 151.96 40.91 151.96 40.73C151.96 40.55 152.02 40.46 152.14 40.46C152.95 40.46 153.535 40.37 153.895 40.19C154.285 39.98 154.48 39.635 154.48 39.155C154.48 38.735 154.285 38.09 153.895 37.22L147.055 22.46L148.225 21.47L142.6 35.465C142.12 36.605 141.88 37.55 141.88 38.3C141.88 39.08 142.15 39.635 142.69 39.965C143.23 40.295 144.055 40.46 145.165 40.46C145.315 40.46 145.39 40.55 145.39 40.73C145.39 40.91 145.315 41 145.165 41C144.715 41 144.1 40.97 143.32 40.91C142.48 40.85 141.7 40.82 140.98 40.82C140.23 40.82 139.345 40.85 138.325 40.91C137.425 40.97 136.705 41 136.165 41C136.015 41 135.94 40.91 135.94 40.73C135.94 40.55 136.015 40.46 136.165 40.46C137.095 40.46 137.83 40.34 138.37 40.1C138.91 39.83 139.405 39.32 139.855 38.57C140.335 37.82 140.905 36.65 141.565 35.06L148.045 19.265C148.105 19.145 148.195 19.085 148.315 19.085C148.435 19.085 148.51 19.145 148.54 19.265L155.785 34.835C156.565 36.515 157.18 37.73 157.63 38.48C158.11 39.23 158.59 39.755 159.07 40.055C159.58 40.325 160.24 40.46 161.05 40.46ZM172.777 20.93L173.677 21.065V36.095C173.677 37.685 173.902 38.81 174.352 39.47C174.802 40.13 175.582 40.46 176.692 40.46C176.752 40.46 176.782 40.55 176.782 40.73C176.782 40.91 176.752 41 176.692 41C176.032 41 175.522 40.985 175.162 40.955L173.272 40.91L171.337 40.955C170.947 40.985 170.407 41 169.717 41C169.657 41 169.627 40.91 169.627 40.73C169.627 40.55 169.657 40.46 169.717 40.46C170.827 40.46 171.607 40.13 172.057 39.47C172.537 38.81 172.777 37.685 172.777 36.095V20.93ZM189.562 41.495C189.562 41.555 189.487 41.6 189.337 41.63C189.187 41.66 189.082 41.645 189.022 41.585L174.262 23.63C173.302 22.49 172.462 21.68 171.742 21.2C171.052 20.72 170.377 20.48 169.717 20.48C169.657 20.48 169.627 20.39 169.627 20.21C169.627 20.03 169.657 19.94 169.717 19.94L172.237 19.985L174.622 19.94C174.832 19.94 174.997 20 175.117 20.12C175.267 20.24 175.477 20.495 175.747 20.885C175.987 21.275 176.317 21.74 176.737 22.28L189.112 37.535L189.562 41.495ZM189.562 41.495L188.662 40.1V24.845C188.662 23.255 188.437 22.13 187.987 21.47C187.567 20.81 186.802 20.48 185.692 20.48C185.602 20.48 185.557 20.39 185.557 20.21C185.557 20.03 185.602 19.94 185.692 19.94L187.222 19.985C188.002 20.045 188.632 20.075 189.112 20.075C189.592 20.075 190.252 20.045 191.092 19.985L192.667 19.94C192.757 19.94 192.802 20.03 192.802 20.21C192.802 20.39 192.757 20.48 192.667 20.48C191.557 20.48 190.762 20.81 190.282 21.47C189.802 22.13 189.562 23.255 189.562 24.845V41.495ZM213.561 41.18C212.721 41.18 211.776 41.135 210.726 41.045C210.366 41.015 209.916 40.985 209.376 40.955C208.836 40.925 208.221 40.91 207.531 40.91L204.876 40.955C204.366 40.985 203.676 41 202.806 41C202.746 41 202.716 40.91 202.716 40.73C202.716 40.55 202.746 40.46 202.806 40.46C203.826 40.46 204.561 40.385 205.011 40.235C205.491 40.085 205.806 39.8 205.956 39.38C206.136 38.93 206.226 38.255 206.226 37.355V23.585C206.226 22.685 206.136 22.025 205.956 21.605C205.806 21.185 205.491 20.9 205.011 20.75C204.561 20.57 203.841 20.48 202.851 20.48C202.791 20.48 202.761 20.39 202.761 20.21C202.761 20.03 202.791 19.94 202.851 19.94L204.876 19.985C206.016 20.045 206.901 20.075 207.531 20.075C208.461 20.075 209.391 20.03 210.321 19.94C211.521 19.88 212.421 19.85 213.021 19.85C215.541 19.85 217.716 20.3 219.546 21.2C221.376 22.1 222.771 23.345 223.731 24.935C224.691 26.525 225.171 28.325 225.171 30.335C225.171 32.405 224.676 34.265 223.686 35.915C222.696 37.565 221.316 38.855 219.546 39.785C217.806 40.715 215.811 41.18 213.561 41.18ZM213.021 40.55C215.841 40.55 218.031 39.71 219.591 38.03C221.151 36.35 221.931 33.95 221.931 30.83C221.931 27.83 221.151 25.355 219.591 23.405C218.061 21.455 215.751 20.48 212.661 20.48C211.281 20.48 210.306 20.705 209.736 21.155C209.196 21.605 208.926 22.445 208.926 23.675V36.86C208.926 38.21 209.196 39.17 209.736 39.74C210.306 40.28 211.401 40.55 213.021 40.55ZM239.272 23.585C239.272 24.875 239.707 25.925 240.577 26.735C241.447 27.515 242.752 28.34 244.492 29.21C245.722 29.84 246.697 30.41 247.417 30.92C248.167 31.43 248.797 32.06 249.307 32.81C249.817 33.56 250.072 34.46 250.072 35.51C250.072 36.62 249.757 37.64 249.127 38.57C248.527 39.47 247.657 40.19 246.517 40.73C245.377 41.27 244.042 41.54 242.512 41.54C240.382 41.54 238.582 41.015 237.112 39.965C236.962 39.905 236.857 39.815 236.797 39.695C236.767 39.575 236.737 39.38 236.707 39.11L236.257 34.655C236.227 34.535 236.287 34.46 236.437 34.43C236.617 34.4 236.737 34.445 236.797 34.565C237.217 36.305 238.042 37.79 239.272 39.02C240.532 40.22 241.927 40.82 243.457 40.82C244.507 40.82 245.407 40.52 246.157 39.92C246.937 39.29 247.327 38.33 247.327 37.04C247.327 35.66 246.877 34.535 245.977 33.665C245.077 32.795 243.772 31.91 242.062 31.01C240.862 30.35 239.902 29.78 239.182 29.3C238.492 28.79 237.907 28.175 237.427 27.455C236.947 26.735 236.707 25.865 236.707 24.845C236.707 23.135 237.367 21.8 238.687 20.84C240.007 19.88 241.612 19.4 243.502 19.4C245.032 19.4 246.532 19.745 248.002 20.435C248.272 20.585 248.437 20.705 248.497 20.795C248.587 20.885 248.647 21.02 248.677 21.2L248.947 25.115C248.947 25.235 248.857 25.31 248.677 25.34C248.527 25.37 248.437 25.325 248.407 25.205C248.257 24.455 247.912 23.69 247.372 22.91C246.862 22.1 246.202 21.425 245.392 20.885C244.582 20.345 243.682 20.075 242.692 20.075C241.612 20.075 240.772 20.405 240.172 21.065C239.572 21.725 239.272 22.565 239.272 23.585ZM272.824 19.4C273.964 19.4 275.179 19.52 276.469 19.76C277.789 19.97 278.854 20.285 279.664 20.705C279.874 20.795 280.009 20.885 280.069 20.975C280.129 21.065 280.174 21.23 280.204 21.47L280.654 26.105C280.654 26.195 280.564 26.255 280.384 26.285C280.234 26.315 280.144 26.27 280.114 26.15C279.574 24.08 278.584 22.55 277.144 21.56C275.734 20.57 273.979 20.075 271.879 20.075C270.319 20.075 268.909 20.495 267.649 21.335C266.389 22.175 265.399 23.33 264.679 24.8C263.989 26.24 263.644 27.875 263.644 29.705C263.644 31.565 264.004 33.365 264.724 35.105C265.444 36.815 266.509 38.21 267.919 39.29C269.359 40.37 271.084 40.91 273.094 40.91C274.924 40.91 276.469 40.4 277.729 39.38C279.019 38.36 279.949 36.8 280.519 34.7C280.519 34.61 280.594 34.565 280.744 34.565C280.804 34.565 280.864 34.595 280.924 34.655C281.014 34.685 281.059 34.715 281.059 34.745L280.474 39.515C280.444 39.755 280.399 39.92 280.339 40.01C280.279 40.1 280.114 40.205 279.844 40.325C277.534 41.135 275.134 41.54 272.644 41.54C269.794 41.54 267.454 40.97 265.624 39.83C263.794 38.69 262.474 37.265 261.664 35.555C260.854 33.845 260.449 32.12 260.449 30.38C260.449 28.34 260.989 26.48 262.069 24.8C263.149 23.12 264.634 21.8 266.524 20.84C268.414 19.88 270.514 19.4 272.824 19.4ZM298.748 29.84H306.938L307.253 30.65H298.028L298.748 29.84ZM315.263 40.46C315.383 40.46 315.443 40.55 315.443 40.73C315.443 40.91 315.383 41 315.263 41C314.723 41 313.853 40.97 312.653 40.91C311.453 40.85 310.583 40.82 310.043 40.82C309.563 40.82 308.933 40.85 308.153 40.91C307.373 40.97 306.773 41 306.353 41C306.233 41 306.173 40.91 306.173 40.73C306.173 40.55 306.233 40.46 306.353 40.46C307.163 40.46 307.748 40.37 308.108 40.19C308.498 39.98 308.693 39.635 308.693 39.155C308.693 38.735 308.498 38.09 308.108 37.22L301.268 22.46L302.438 21.47L296.813 35.465C296.333 36.605 296.093 37.55 296.093 38.3C296.093 39.08 296.363 39.635 296.903 39.965C297.443 40.295 298.268 40.46 299.378 40.46C299.528 40.46 299.603 40.55 299.603 40.73C299.603 40.91 299.528 41 299.378 41C298.928 41 298.313 40.97 297.533 40.91C296.693 40.85 295.913 40.82 295.193 40.82C294.443 40.82 293.558 40.85 292.538 40.91C291.638 40.97 290.918 41 290.378 41C290.228 41 290.153 40.91 290.153 40.73C290.153 40.55 290.228 40.46 290.378 40.46C291.308 40.46 292.043 40.34 292.583 40.1C293.123 39.83 293.618 39.32 294.068 38.57C294.548 37.82 295.118 36.65 295.778 35.06L302.258 19.265C302.318 19.145 302.408 19.085 302.528 19.085C302.648 19.085 302.723 19.145 302.753 19.265L309.998 34.835C310.778 36.515 311.393 37.73 311.843 38.48C312.323 39.23 312.803 39.755 313.283 40.055C313.793 40.325 314.453 40.46 315.263 40.46ZM330.23 37.175C330.23 38.135 330.335 38.84 330.545 39.29C330.755 39.71 331.16 40.01 331.76 40.19C332.39 40.37 333.365 40.46 334.685 40.46C334.775 40.46 334.82 40.55 334.82 40.73C334.82 40.91 334.775 41 334.685 41C333.605 41 332.78 40.985 332.21 40.955L328.88 40.91L326.225 40.955C325.715 40.985 325.025 41 324.155 41C324.095 41 324.065 40.91 324.065 40.73C324.065 40.55 324.095 40.46 324.155 40.46C325.145 40.46 325.865 40.385 326.315 40.235C326.765 40.085 327.065 39.8 327.215 39.38C327.395 38.93 327.485 38.255 327.485 37.355V23.585C327.485 22.685 327.395 22.025 327.215 21.605C327.065 21.185 326.75 20.9 326.27 20.75C325.82 20.57 325.115 20.48 324.155 20.48C324.095 20.48 324.065 20.39 324.065 20.21C324.065 20.03 324.095 19.94 324.155 19.94L326.18 19.985C327.32 20.045 328.205 20.075 328.835 20.075C329.345 20.075 329.825 20.06 330.275 20.03C330.755 20 331.16 19.97 331.49 19.94C332.45 19.85 333.32 19.805 334.1 19.805C339.05 19.805 341.525 21.635 341.525 25.295C341.525 26.735 341.15 27.95 340.4 28.94C339.68 29.9 338.75 30.62 337.61 31.1C336.5 31.58 335.345 31.82 334.145 31.82C333.335 31.82 332.675 31.76 332.165 31.64C332.075 31.64 332.03 31.565 332.03 31.415C332.03 31.175 332.12 31.055 332.3 31.055C332.75 31.145 333.215 31.19 333.695 31.19C335.015 31.19 336.125 30.77 337.025 29.93C337.955 29.06 338.42 27.815 338.42 26.195C338.42 24.305 337.925 22.88 336.935 21.92C335.975 20.93 334.67 20.435 333.02 20.435C332.24 20.435 331.67 20.495 331.31 20.615C330.95 20.735 330.68 21.02 330.5 21.47C330.32 21.92 330.23 22.655 330.23 23.675V37.175ZM352.141 41C352.081 41 352.051 40.91 352.051 40.73C352.051 40.55 352.081 40.46 352.141 40.46C353.131 40.46 353.851 40.385 354.301 40.235C354.751 40.085 355.051 39.8 355.201 39.38C355.381 38.93 355.471 38.255 355.471 37.355V23.585C355.471 22.685 355.381 22.025 355.201 21.605C355.051 21.185 354.751 20.9 354.301 20.75C353.851 20.57 353.131 20.48 352.141 20.48C352.081 20.48 352.051 20.39 352.051 20.21C352.051 20.03 352.081 19.94 352.141 19.94H367.801C368.101 19.94 368.251 20.06 368.251 20.3L368.296 23.09C368.326 23.66 368.341 24.38 368.341 25.25C368.341 25.34 368.251 25.385 368.071 25.385C367.891 25.385 367.801 25.34 367.801 25.25C367.681 23.87 367.171 22.745 366.271 21.875C365.401 20.975 364.321 20.525 363.031 20.525H361.771C360.721 20.525 359.956 20.615 359.476 20.795C358.996 20.945 358.666 21.23 358.486 21.65C358.306 22.07 358.216 22.73 358.216 23.63V37.175C358.216 38.045 358.306 38.705 358.486 39.155C358.666 39.575 358.996 39.875 359.476 40.055C359.986 40.205 360.751 40.28 361.771 40.28H363.931C365.161 40.28 366.241 39.8 367.171 38.84C368.131 37.85 368.776 36.575 369.106 35.015C369.106 34.925 369.181 34.88 369.331 34.88C369.511 34.88 369.601 34.925 369.601 35.015C369.391 37.175 369.286 38.945 369.286 40.325C369.286 40.565 369.241 40.745 369.151 40.865C369.061 40.955 368.881 41 368.611 41H352.141ZM366.001 31.325C365.881 31.325 365.221 31.235 364.021 31.055C362.851 30.845 360.541 30.74 357.091 30.74V29.795C360.511 29.795 362.806 29.72 363.976 29.57C365.176 29.42 365.851 29.345 366.001 29.345C366.151 29.345 366.226 29.66 366.226 30.29C366.226 30.98 366.151 31.325 366.001 31.325Z" fill="#1F1F1F"/>
<path d="M401.33 41.18C400.49 41.18 399.545 41.135 398.495 41.045C398.135 41.015 397.685 40.985 397.145 40.955C396.605 40.925 395.99 40.91 395.3 40.91L392.645 40.955C392.135 40.985 391.445 41 390.575 41C390.515 41 390.485 40.91 390.485 40.73C390.485 40.55 390.515 40.46 390.575 40.46C391.595 40.46 392.33 40.385 392.78 40.235C393.26 40.085 393.575 39.8 393.725 39.38C393.905 38.93 393.995 38.255 393.995 37.355V23.585C393.995 22.685 393.905 22.025 393.725 21.605C393.575 21.185 393.26 20.9 392.78 20.75C392.33 20.57 391.61 20.48 390.62 20.48C390.56 20.48 390.53 20.39 390.53 20.21C390.53 20.03 390.56 19.94 390.62 19.94L392.645 19.985C393.785 20.045 394.67 20.075 395.3 20.075C396.23 20.075 397.16 20.03 398.09 19.94C399.29 19.88 400.19 19.85 400.79 19.85C403.31 19.85 405.485 20.3 407.315 21.2C409.145 22.1 410.54 23.345 411.5 24.935C412.46 26.525 412.94 28.325 412.94 30.335C412.94 32.405 412.445 34.265 411.455 35.915C410.465 37.565 409.085 38.855 407.315 39.785C405.575 40.715 403.58 41.18 401.33 41.18ZM400.79 40.55C403.61 40.55 405.8 39.71 407.36 38.03C408.92 36.35 409.7 33.95 409.7 30.83C409.7 27.83 408.92 25.355 407.36 23.405C405.83 21.455 403.52 20.48 400.43 20.48C399.05 20.48 398.075 20.705 397.505 21.155C396.965 21.605 396.695 22.445 396.695 23.675V36.86C396.695 38.21 396.965 39.17 397.505 39.74C398.075 40.28 399.17 40.55 400.79 40.55ZM423.351 41C423.291 41 423.261 40.91 423.261 40.73C423.261 40.55 423.291 40.46 423.351 40.46C424.341 40.46 425.061 40.385 425.511 40.235C425.961 40.085 426.261 39.8 426.411 39.38C426.591 38.93 426.681 38.255 426.681 37.355V23.585C426.681 22.685 426.591 22.025 426.411 21.605C426.261 21.185 425.961 20.9 425.511 20.75C425.061 20.57 424.341 20.48 423.351 20.48C423.291 20.48 423.261 20.39 423.261 20.21C423.261 20.03 423.291 19.94 423.351 19.94H439.011C439.311 19.94 439.461 20.06 439.461 20.3L439.506 23.09C439.536 23.66 439.551 24.38 439.551 25.25C439.551 25.34 439.461 25.385 439.281 25.385C439.101 25.385 439.011 25.34 439.011 25.25C438.891 23.87 438.381 22.745 437.481 21.875C436.611 20.975 435.531 20.525 434.241 20.525H432.981C431.931 20.525 431.166 20.615 430.686 20.795C430.206 20.945 429.876 21.23 429.696 21.65C429.516 22.07 429.426 22.73 429.426 23.63V37.175C429.426 38.045 429.516 38.705 429.696 39.155C429.876 39.575 430.206 39.875 430.686 40.055C431.196 40.205 431.961 40.28 432.981 40.28H435.141C436.371 40.28 437.451 39.8 438.381 38.84C439.341 37.85 439.986 36.575 440.316 35.015C440.316 34.925 440.391 34.88 440.541 34.88C440.721 34.88 440.811 34.925 440.811 35.015C440.601 37.175 440.496 38.945 440.496 40.325C440.496 40.565 440.451 40.745 440.361 40.865C440.271 40.955 440.091 41 439.821 41H423.351ZM437.211 31.325C437.091 31.325 436.431 31.235 435.231 31.055C434.061 30.845 431.751 30.74 428.301 30.74V29.795C431.721 29.795 434.016 29.72 435.186 29.57C436.386 29.42 437.061 29.345 437.211 29.345C437.361 29.345 437.436 29.66 437.436 30.29C437.436 30.98 437.361 31.325 437.211 31.325ZM455.115 23.585C455.115 24.875 455.55 25.925 456.42 26.735C457.29 27.515 458.595 28.34 460.335 29.21C461.565 29.84 462.54 30.41 463.26 30.92C464.01 31.43 464.64 32.06 465.15 32.81C465.66 33.56 465.915 34.46 465.915 35.51C465.915 36.62 465.6 37.64 464.97 38.57C464.37 39.47 463.5 40.19 462.36 40.73C461.22 41.27 459.885 41.54 458.355 41.54C456.225 41.54 454.425 41.015 452.955 39.965C452.805 39.905 452.7 39.815 452.64 39.695C452.61 39.575 452.58 39.38 452.55 39.11L452.1 34.655C452.07 34.535 452.13 34.46 452.28 34.43C452.46 34.4 452.58 34.445 452.64 34.565C453.06 36.305 453.885 37.79 455.115 39.02C456.375 40.22 457.77 40.82 459.3 40.82C460.35 40.82 461.25 40.52 462 39.92C462.78 39.29 463.17 38.33 463.17 37.04C463.17 35.66 462.72 34.535 461.82 33.665C460.92 32.795 459.615 31.91 457.905 31.01C456.705 30.35 455.745 29.78 455.025 29.3C454.335 28.79 453.75 28.175 453.27 27.455C452.79 26.735 452.55 25.865 452.55 24.845C452.55 23.135 453.21 21.8 454.53 20.84C455.85 19.88 457.455 19.4 459.345 19.4C460.875 19.4 462.375 19.745 463.845 20.435C464.115 20.585 464.28 20.705 464.34 20.795C464.43 20.885 464.49 21.02 464.52 21.2L464.79 25.115C464.79 25.235 464.7 25.31 464.52 25.34C464.37 25.37 464.28 25.325 464.25 25.205C464.1 24.455 463.755 23.69 463.215 22.91C462.705 22.1 462.045 21.425 461.235 20.885C460.425 20.345 459.525 20.075 458.535 20.075C457.455 20.075 456.615 20.405 456.015 21.065C455.415 21.725 455.115 22.565 455.115 23.585ZM482.682 37.355C482.682 38.285 482.757 38.96 482.907 39.38C483.087 39.8 483.402 40.085 483.852 40.235C484.302 40.385 485.037 40.46 486.057 40.46C486.117 40.46 486.147 40.55 486.147 40.73C486.147 40.91 486.117 41 486.057 41C485.217 41 484.557 40.985 484.077 40.955L481.242 40.91L478.587 40.955C478.077 40.985 477.387 41 476.517 41C476.457 41 476.427 40.91 476.427 40.73C476.427 40.55 476.457 40.46 476.517 40.46C477.537 40.46 478.272 40.385 478.722 40.235C479.172 40.085 479.472 39.8 479.622 39.38C479.802 38.96 479.892 38.285 479.892 37.355V23.585C479.892 22.685 479.802 22.025 479.622 21.605C479.472 21.185 479.157 20.9 478.677 20.75C478.227 20.57 477.507 20.48 476.517 20.48C476.457 20.48 476.427 20.39 476.427 20.21C476.427 20.03 476.457 19.94 476.517 19.94L478.587 19.985C479.667 20.045 480.552 20.075 481.242 20.075C482.022 20.075 482.982 20.045 484.122 19.985L486.057 19.94C486.117 19.94 486.147 20.03 486.147 20.21C486.147 20.39 486.117 20.48 486.057 20.48C485.097 20.48 484.377 20.57 483.897 20.75C483.417 20.93 483.087 21.245 482.907 21.695C482.757 22.115 482.682 22.775 482.682 23.675V37.355ZM508.421 41.54C506.021 41.54 503.921 41.045 502.121 40.055C500.351 39.035 499.001 37.7 498.071 36.05C497.141 34.4 496.676 32.66 496.676 30.83C496.676 28.49 497.201 26.465 498.251 24.755C499.301 23.015 500.801 21.695 502.751 20.795C504.701 19.865 506.996 19.4 509.636 19.4C510.896 19.4 512.096 19.52 513.236 19.76C514.376 20 515.336 20.345 516.116 20.795C516.296 20.885 516.401 21.005 516.431 21.155C516.491 21.305 516.536 21.515 516.566 21.785L517.016 26.015C517.016 26.105 516.926 26.165 516.746 26.195C516.596 26.195 516.506 26.15 516.476 26.06C515.816 23.99 514.826 22.475 513.506 21.515C512.186 20.555 510.536 20.075 508.556 20.075C505.916 20.075 503.801 20.99 502.211 22.82C500.621 24.62 499.826 27.095 499.826 30.245C499.826 32.315 500.216 34.16 500.996 35.78C501.806 37.37 502.931 38.615 504.371 39.515C505.841 40.415 507.551 40.865 509.501 40.865C511.001 40.865 512.096 40.73 512.786 40.46C513.506 40.19 513.986 39.68 514.226 38.93C514.496 38.15 514.631 36.95 514.631 35.33C514.631 34.55 514.541 34.01 514.361 33.71C514.211 33.38 513.866 33.17 513.326 33.08C512.816 32.96 511.901 32.9 510.581 32.9C510.401 32.9 510.311 32.78 510.311 32.54C510.311 32.45 510.326 32.375 510.356 32.315C510.416 32.225 510.476 32.18 510.536 32.18C512.096 32.3 513.671 32.36 515.261 32.36C515.981 32.36 517.181 32.33 518.861 32.27C518.921 32.27 518.966 32.315 518.996 32.405C519.056 32.465 519.086 32.525 519.086 32.585C519.086 32.795 519.011 32.9 518.861 32.9C518.261 32.87 517.841 32.915 517.601 33.035C517.361 33.155 517.211 33.41 517.151 33.8C517.091 34.16 517.061 34.82 517.061 35.78C517.061 37.13 517.091 38.075 517.151 38.615C517.211 39.155 517.241 39.53 517.241 39.74C517.241 39.92 517.211 40.04 517.151 40.1C517.121 40.13 516.986 40.19 516.746 40.28C514.766 41.12 511.991 41.54 508.421 41.54ZM531.715 20.93L532.615 21.065V36.095C532.615 37.685 532.84 38.81 533.29 39.47C533.74 40.13 534.52 40.46 535.63 40.46C535.69 40.46 535.72 40.55 535.72 40.73C535.72 40.91 535.69 41 535.63 41C534.97 41 534.46 40.985 534.1 40.955L532.21 40.91L530.275 40.955C529.885 40.985 529.345 41 528.655 41C528.595 41 528.565 40.91 528.565 40.73C528.565 40.55 528.595 40.46 528.655 40.46C529.765 40.46 530.545 40.13 530.995 39.47C531.475 38.81 531.715 37.685 531.715 36.095V20.93ZM548.5 41.495C548.5 41.555 548.425 41.6 548.275 41.63C548.125 41.66 548.02 41.645 547.96 41.585L533.2 23.63C532.24 22.49 531.4 21.68 530.68 21.2C529.99 20.72 529.315 20.48 528.655 20.48C528.595 20.48 528.565 20.39 528.565 20.21C528.565 20.03 528.595 19.94 528.655 19.94L531.175 19.985L533.56 19.94C533.77 19.94 533.935 20 534.055 20.12C534.205 20.24 534.415 20.495 534.685 20.885C534.925 21.275 535.255 21.74 535.675 22.28L548.05 37.535L548.5 41.495ZM548.5 41.495L547.6 40.1V24.845C547.6 23.255 547.375 22.13 546.925 21.47C546.505 20.81 545.74 20.48 544.63 20.48C544.54 20.48 544.495 20.39 544.495 20.21C544.495 20.03 544.54 19.94 544.63 19.94L546.16 19.985C546.94 20.045 547.57 20.075 548.05 20.075C548.53 20.075 549.19 20.045 550.03 19.985L551.605 19.94C551.695 19.94 551.74 20.03 551.74 20.21C551.74 20.39 551.695 20.48 551.605 20.48C550.495 20.48 549.7 20.81 549.22 21.47C548.74 22.13 548.5 23.255 548.5 24.845V41.495ZM565.434 23.585C565.434 24.875 565.869 25.925 566.739 26.735C567.609 27.515 568.914 28.34 570.654 29.21C571.884 29.84 572.859 30.41 573.579 30.92C574.329 31.43 574.959 32.06 575.469 32.81C575.979 33.56 576.234 34.46 576.234 35.51C576.234 36.62 575.919 37.64 575.289 38.57C574.689 39.47 573.819 40.19 572.679 40.73C571.539 41.27 570.204 41.54 568.674 41.54C566.544 41.54 564.744 41.015 563.274 39.965C563.124 39.905 563.019 39.815 562.959 39.695C562.929 39.575 562.899 39.38 562.869 39.11L562.419 34.655C562.389 34.535 562.449 34.46 562.599 34.43C562.779 34.4 562.899 34.445 562.959 34.565C563.379 36.305 564.204 37.79 565.434 39.02C566.694 40.22 568.089 40.82 569.619 40.82C570.669 40.82 571.569 40.52 572.319 39.92C573.099 39.29 573.489 38.33 573.489 37.04C573.489 35.66 573.039 34.535 572.139 33.665C571.239 32.795 569.934 31.91 568.224 31.01C567.024 30.35 566.064 29.78 565.344 29.3C564.654 28.79 564.069 28.175 563.589 27.455C563.109 26.735 562.869 25.865 562.869 24.845C562.869 23.135 563.529 21.8 564.849 20.84C566.169 19.88 567.774 19.4 569.664 19.4C571.194 19.4 572.694 19.745 574.164 20.435C574.434 20.585 574.599 20.705 574.659 20.795C574.749 20.885 574.809 21.02 574.839 21.2L575.109 25.115C575.109 25.235 575.019 25.31 574.839 25.34C574.689 25.37 574.599 25.325 574.569 25.205C574.419 24.455 574.074 23.69 573.534 22.91C573.024 22.1 572.364 21.425 571.554 20.885C570.744 20.345 569.844 20.075 568.854 20.075C567.774 20.075 566.934 20.405 566.334 21.065C565.734 21.725 565.434 22.565 565.434 23.585Z" fill="#1F1F1F"/>
</svg>
